<?xml version="1.0" encoding="utf-8"?>
<svg width="17px" height="17px" viewBox="0 0 17 17" version="1.1" xmlns:xlink="http://www.w3.org/1999/xlink" xmlns="http://www.w3.org/2000/svg">
  <g id="bullet-point-(1)">
    <path d="M8.4502 16.5883C8.14805 16.5883 7.8459 16.4721 7.6168 16.243L0.64414 9.27031C0.42168 9.04785 0.298828 8.75234 0.298828 8.43691C0.298828 8.12148 0.42168 7.82598 0.644141 7.60351L7.6168 0.630859C7.83926 0.408398 8.13477 0.285546 8.4502 0.285546C8.76563 0.285546 9.06113 0.408398 9.28359 0.630859L16.2563 7.60351C16.7145 8.06172 16.7145 8.81211 16.2563 9.27031L9.28359 16.243C9.05449 16.4721 8.75234 16.5883 8.4502 16.5883L8.4502 16.5883ZM8.27422 15.5855C8.37051 15.6818 8.52988 15.6818 8.62617 15.5855L15.5988 8.61289C15.6951 8.5166 15.6951 8.35723 15.5988 8.26094L8.62617 1.28828C8.57969 1.2418 8.5166 1.21523 8.45019 1.21523C8.38379 1.21523 8.3207 1.2418 8.27422 1.28828L1.30156 8.26094C1.25508 8.30742 1.22851 8.37051 1.22851 8.43691C1.22851 8.50332 1.25508 8.56641 1.30156 8.61289L8.27422 15.5855L8.27422 15.5855Z" id="Hình-dạng" fill="#7B7B7B" fill-rule="evenodd" stroke="none" />
  </g>
</svg>