<?xml version="1.0" encoding="utf-8"?>
<svg width="16.59375px" height="16.59375px" viewBox="0 0 16.59375 16.59375" version="1.1" xmlns:xlink="http://www.w3.org/1999/xlink" xmlns="http://www.w3.org/2000/svg">
  <g id="calendar-(3)">
    <path d="M15.0046 16.5938L1.58918 16.5938C0.713025 16.5938 0 15.8807 0 15.0043L0 2.71446C0 1.83803 0.713025 1.125 1.58918 1.125L15.0046 1.125C15.8807 1.125 16.5938 1.83803 16.5938 2.71446L16.5938 15.0043C16.5938 15.8807 15.8807 16.5938 15.0046 16.5938L15.0046 16.5938ZM1.58917 1.96875C1.17827 1.96875 0.84375 2.30327 0.84375 2.71446L0.84375 15.0043C0.84375 15.4155 1.17827 15.75 1.58917 15.75L15.0046 15.75C15.4155 15.75 15.75 15.4155 15.75 15.0043L15.75 2.71446C15.75 2.30327 15.4155 1.96875 15.0046 1.96875L1.58917 1.96875Z" id="Hình-dạng" fill="#7B7B7B" fill-rule="evenodd" stroke="none" />
    <path d="M16.1719 5.34375L0.421875 5.34375C0.188944 5.34375 0 5.15481 0 4.92188C0 4.68894 0.188944 4.5 0.421875 4.5L16.1719 4.5C16.4048 4.5 16.5938 4.68894 16.5938 4.92188C16.5938 5.15481 16.4048 5.34375 16.1719 5.34375L16.1719 5.34375Z" id="Hình-dạng" fill="#7B7B7B" stroke="none" />
    <path d="M8.29688 3.09375C8.06394 3.09375 7.875 2.90481 7.875 2.67188L7.875 0.421875C7.875 0.188944 8.06394 0 8.29688 0C8.52981 0 8.71875 0.188944 8.71875 0.421875L8.71875 2.67188C8.71875 2.90481 8.52981 3.09375 8.29688 3.09375L8.29688 3.09375Z" id="Hình-dạng" fill="#7B7B7B" stroke="none" />
    <path d="M2.67188 3.09375C2.43894 3.09375 2.25 2.90481 2.25 2.67188L2.25 0.421875C2.25 0.188944 2.43894 0 2.67188 0C2.90481 0 3.09375 0.188944 3.09375 0.421875L3.09375 2.67188C3.09375 2.90481 2.90481 3.09375 2.67188 3.09375L2.67188 3.09375Z" id="Hình-dạng" fill="#7B7B7B" stroke="none" />
    <path d="M13.9219 3.09375C13.6889 3.09375 13.5 2.90481 13.5 2.67188L13.5 0.421875C13.5 0.188944 13.6889 0 13.9219 0C14.1548 0 14.3438 0.188944 14.3438 0.421875L14.3438 2.67188C14.3438 2.90481 14.1548 3.09375 13.9219 3.09375L13.9219 3.09375Z" id="Hình-dạng" fill="#7B7B7B" stroke="none" />
    <path d="M4.92188 9.84375L2.67188 9.84375C2.43894 9.84375 2.25 9.65481 2.25 9.42188L2.25 7.17188C2.25 6.93894 2.43894 6.75 2.67188 6.75L4.92188 6.75C5.15481 6.75 5.34375 6.93894 5.34375 7.17188L5.34375 9.42188C5.34375 9.65481 5.15481 9.84375 4.92188 9.84375L4.92188 9.84375ZM3.09375 9L4.5 9L4.5 7.59375L3.09375 7.59375L3.09375 9Z" id="Hình-dạng" fill="#7B7B7B" fill-rule="evenodd" stroke="none" />
    <path d="M9.42188 9.84375L7.17188 9.84375C6.93894 9.84375 6.75 9.65481 6.75 9.42188L6.75 7.17188C6.75 6.93894 6.93894 6.75 7.17188 6.75L9.42188 6.75C9.65481 6.75 9.84375 6.93894 9.84375 7.17188L9.84375 9.42188C9.84375 9.65481 9.65481 9.84375 9.42188 9.84375L9.42188 9.84375ZM7.59375 9L9 9L9 7.59375L7.59375 7.59375L7.59375 9Z" id="Hình-dạng" fill="#7B7B7B" fill-rule="evenodd" stroke="none" />
    <path d="M13.9219 9.84375L11.6719 9.84375C11.4389 9.84375 11.25 9.65481 11.25 9.42188L11.25 7.17188C11.25 6.93894 11.4389 6.75 11.6719 6.75L13.9219 6.75C14.1548 6.75 14.3438 6.93894 14.3438 7.17188L14.3438 9.42188C14.3438 9.65481 14.1548 9.84375 13.9219 9.84375L13.9219 9.84375ZM12.0938 9L13.5 9L13.5 7.59375L12.0938 7.59375L12.0938 9Z" id="Hình-dạng" fill="#7B7B7B" fill-rule="evenodd" stroke="none" />
    <path d="M4.92188 14.3438L2.67188 14.3438C2.43894 14.3438 2.25 14.1548 2.25 13.9219L2.25 11.6719C2.25 11.4389 2.43894 11.25 2.67188 11.25L4.92188 11.25C5.15481 11.25 5.34375 11.4389 5.34375 11.6719L5.34375 13.9219C5.34375 14.1548 5.15481 14.3438 4.92188 14.3438L4.92188 14.3438ZM3.09375 13.5L4.5 13.5L4.5 12.0938L3.09375 12.0938L3.09375 13.5Z" id="Hình-dạng" fill="#7B7B7B" fill-rule="evenodd" stroke="none" />
    <path d="M9.42188 14.3438L7.17188 14.3438C6.93894 14.3438 6.75 14.1548 6.75 13.9219L6.75 11.6719C6.75 11.4389 6.93894 11.25 7.17188 11.25L9.42188 11.25C9.65481 11.25 9.84375 11.4389 9.84375 11.6719L9.84375 13.9219C9.84375 14.1548 9.65481 14.3438 9.42188 14.3438L9.42188 14.3438ZM7.59375 13.5L9 13.5L9 12.0938L7.59375 12.0938L7.59375 13.5Z" id="Hình-dạng" fill="#7B7B7B" fill-rule="evenodd" stroke="none" />
    <path d="M13.9219 14.3438L11.6719 14.3438C11.4389 14.3438 11.25 14.1548 11.25 13.9219L11.25 11.6719C11.25 11.4389 11.4389 11.25 11.6719 11.25L13.9219 11.25C14.1548 11.25 14.3438 11.4389 14.3438 11.6719L14.3438 13.9219C14.3438 14.1548 14.1548 14.3438 13.9219 14.3438L13.9219 14.3438ZM12.0938 13.5L13.5 13.5L13.5 12.0938L12.0938 12.0938L12.0938 13.5Z" id="Hình-dạng" fill="#7B7B7B" fill-rule="evenodd" stroke="none" />
  </g>
</svg>