<?xml version="1.0" encoding="utf-8"?>
<svg width="30px" height="30px" viewBox="0 0 30 30" version="1.1" xmlns:xlink="http://www.w3.org/1999/xlink" xmlns="http://www.w3.org/2000/svg">
  <g id="Group">
    <path d="M30 15.0918C30 6.75665 23.2842 0 15 0C6.71578 0 0 6.75665 0 15.0918C0 22.6245 5.48533 28.868 12.6562 30L12.6562 19.4541L8.84756 19.4541L8.84756 15.0918L12.6562 15.0918L12.6562 11.7669C12.6562 7.98456 14.8958 5.89518 18.322 5.89518C19.9631 5.89518 21.6798 6.18987 21.6798 6.18987L21.6798 9.90401L19.7882 9.90401C17.9249 9.90401 17.3438 11.0673 17.3438 12.2608L17.3438 15.0918L21.504 15.0918L20.8389 19.4541L17.3438 19.4541L17.3438 30C24.5147 28.868 30 22.6245 30 15.0918" id="Fill-73" fill="#424D54" fill-rule="evenodd" stroke="none" />
  </g>
</svg>