<?xml version="1.0" encoding="utf-8"?>
<svg width="30px" height="30px" viewBox="0 0 30 30" version="1.1" xmlns:xlink="http://www.w3.org/1999/xlink" xmlns="http://www.w3.org/2000/svg">
  <g id="Group-3">
    <path d="M15 30C23.2842 30 30 23.2842 30 15C30 6.71578 23.2842 0 15 0C6.71578 0 0 6.71578 0 15C0 23.2842 6.71578 30 15 30ZM8.47372 9.72769C9.64994 9.72724 10.6071 8.76658 10.6062 7.58746C10.6048 6.42546 9.64394 5.46791 8.47794 5.4668C7.30394 5.46569 6.33927 6.43213 6.34327 7.60569C6.34705 8.76658 7.31216 9.72813 8.47372 9.72769ZM16.8631 12.1574C16.61 12.3958 16.4069 12.677 16.1606 12.9536C16.1606 12.8228 16.16 12.6919 16.1594 12.5611C16.158 12.2381 16.1565 11.9151 16.164 11.5923C16.1682 11.4143 16.1197 11.3536 15.9317 11.3552C14.9109 11.3643 13.8895 11.3634 12.8684 11.3558C12.6909 11.3545 12.6293 11.3981 12.6295 11.5858C12.6346 15.3823 12.6346 19.1787 12.6297 22.975C12.6295 23.1494 12.6795 23.1958 12.8517 23.1945C13.9269 23.187 15.0024 23.1858 16.0775 23.1954C16.2729 23.1972 16.3206 23.1407 16.32 22.9494C16.3153 21.6803 16.3153 20.4111 16.3154 19.1418L16.3154 19.1345C16.3154 18.4886 16.3154 17.8428 16.3148 17.197C16.3146 16.8872 16.3328 16.5796 16.3715 16.2721C16.5329 14.985 17.1911 14.3581 18.4571 14.2912C19.3842 14.2423 20.0175 14.6932 20.2729 15.5781C20.4115 16.0585 20.4429 16.5523 20.4446 17.0463C20.4509 19.0181 20.4495 20.9896 20.4435 22.9614C20.4429 23.1387 20.4835 23.197 20.6713 23.1954C21.7386 23.1861 22.8064 23.1863 23.8737 23.195C24.0648 23.1967 24.1191 23.1458 24.1186 22.9518C24.1163 21.8816 24.1178 20.8114 24.1192 19.7413C24.1206 18.7393 24.1219 17.7374 24.1202 16.7354C24.1184 15.7532 24.0686 14.7738 23.798 13.8201C23.4373 12.5483 22.6806 11.6521 21.3786 11.2756C20.8095 11.111 20.2257 11.0683 19.6353 11.0634C18.5611 11.0543 17.6409 11.4243 16.8631 12.1574ZM10.3118 17.2923C10.3118 17.7164 10.3117 18.1405 10.3115 18.5645C10.311 20.0185 10.3104 21.4727 10.3163 22.9268C10.3172 23.1354 10.2652 23.1986 10.0492 23.1961C8.98228 23.1843 7.91494 23.1872 6.84783 23.1946C6.67694 23.1959 6.62539 23.153 6.62561 22.9763C6.63072 19.1737 6.63028 15.371 6.6265 11.5683C6.62628 11.411 6.6645 11.355 6.83161 11.3559C7.91406 11.363 8.99672 11.365 10.0792 11.3548C10.2872 11.3526 10.3156 11.4334 10.3152 11.6117C10.3111 13.1168 10.3114 14.6219 10.3117 16.1271C10.3118 16.5155 10.3118 16.9039 10.3118 17.2923Z" id="Combined-Shape" fill="#424D54" fill-rule="evenodd" stroke="none" />
  </g>
</svg>