<?xml version="1.0" encoding="utf-8"?>
<svg width="16px" height="16.000092px" viewBox="0 0 16 16.000092" version="1.1" xmlns:xlink="http://www.w3.org/1999/xlink" xmlns="http://www.w3.org/2000/svg">
  <g id="next-banner-3" transform="translate(0 9.1552734E-05)">
    <path d="M15.8698 7.49595L11.3027 0.208313C11.1286 -0.0695677 10.8493 -0.0695677 10.6752 0.208313C10.501 0.486181 10.501 0.93183 10.6752 1.2097L14.4865 7.29147L0.443566 7.29147C0.19714 7.29147 0 7.60605 0 7.99926C0 8.39246 0.19714 8.70706 0.443566 8.70706L14.4865 8.70706L10.6752 14.7888C10.501 15.0667 10.501 15.5123 10.6752 15.7902C10.7606 15.9265 10.8756 15.9999 10.9873 15.9999C11.099 15.9999 11.214 15.9318 11.2994 15.7902L15.8665 8.50258C16.0439 8.21945 16.0439 7.76857 15.8698 7.49595L15.8698 7.49595Z" id="Group" fill="#FFFFFF" fill-rule="evenodd" stroke="none" />
  </g>
</svg>