<svg id="Layer_1" data-name="Layer 1" xmlns="http://www.w3.org/2000/svg" viewBox="0 0 428 428"><defs><style>.cls-1{fill:#df0024;}</style></defs><g id="new_window_pop_up" data-name="new window pop up"><path class="cls-1" d="M42,256V393.57A76.43,76.43,0,0,0,118.43,470H393.57A76.43,76.43,0,0,0,470,393.57V118.43A76.43,76.43,0,0,0,393.57,42H256a15.29,15.29,0,1,0,0,30.57H393.57a45.86,45.86,0,0,1,45.86,45.86V393.57a45.86,45.86,0,0,1-45.86,45.86H118.43a45.86,45.86,0,0,1-45.86-45.86V256A15.29,15.29,0,1,0,42,256Z" transform="translate(-42 -42)"/><path class="cls-1" d="M164.29,72.57a15.29,15.29,0,0,0,0-30.57h-107A15.13,15.13,0,0,0,42,57.29v107a15.29,15.29,0,0,0,30.57,0v-70L245.15,266.85l.09.09a15.27,15.27,0,0,0,21.61-.09l.09-.09a15.27,15.27,0,0,0-.09-21.61L94.12,72.57Z" transform="translate(-42 -42)"/></g></svg>