<?xml version="1.0" encoding="utf-8"?>
<svg width="30px" height="30px" viewBox="0 0 30 30" version="1.1" xmlns:xlink="http://www.w3.org/1999/xlink" xmlns="http://www.w3.org/2000/svg">
  <g id="Group-5">
    <path d="M15 30C23.2842 30 30 23.2842 30 15C30 6.71578 23.2842 0 15 0C6.71578 0 0 6.71578 0 15C0 23.2842 6.71578 30 15 30ZM23.3115 9.95336C23.4026 9.95247 23.4053 9.95581 23.4051 10.0429C23.405 10.1114 23.4095 10.395 23.4155 10.7699C23.4273 11.5054 23.4447 12.5925 23.4439 13.0987C23.4437 13.2736 23.4204 13.2825 23.2437 13.2827C22.6839 13.2836 22.1342 13.208 21.5899 13.0836C20.6548 12.8696 19.7915 12.4894 18.9906 11.9634C18.9795 11.956 18.9681 11.9464 18.9566 11.9367C18.9252 11.9102 18.8927 11.8828 18.8604 11.8976C18.8179 11.9169 18.8239 11.9627 18.8295 12.0061C18.8314 12.0205 18.8333 12.0347 18.8333 12.0476C18.8328 12.7599 18.8336 13.4723 18.8343 14.1847C18.8359 15.6239 18.8374 17.0631 18.8291 18.5023C18.8204 20.0063 18.3419 21.3518 17.3573 22.498C16.3113 23.7158 14.9824 24.4225 13.3875 24.6174C12.1582 24.7674 10.9919 24.5451 9.88484 23.9983C9.70573 23.9098 9.53439 23.8067 9.37439 23.686C9.32395 23.6414 9.2735 23.5965 9.22306 23.5518C9.10261 23.5 9.00617 23.4127 8.90573 23.3329C7.91728 22.5496 7.22084 21.562 6.8375 20.3583C6.70417 19.9394 6.62106 19.5105 6.58061 19.072C6.55128 18.7547 6.54728 18.4374 6.56817 18.1211C6.61573 17.3923 6.78817 16.6918 7.0895 16.0247C7.40417 15.3276 7.83328 14.7091 8.37928 14.1743C9.01506 13.5514 9.7515 13.0849 10.5906 12.7831C11.1166 12.5938 11.6577 12.4794 12.2162 12.4385C12.6204 12.4089 13.0222 12.4178 13.4239 12.4656C13.4782 12.472 13.5102 12.4831 13.5088 12.5476C13.5048 12.7707 13.5048 12.994 13.5033 13.2174C13.5073 13.2211 13.5364 14.9151 13.5362 15.6907C13.5362 15.718 13.5355 15.7454 13.5342 15.7729C13.5304 15.8507 13.4906 15.8767 13.4173 15.8558C13.2051 15.7954 12.9871 15.7676 12.7682 15.756C12.4282 15.7378 12.0931 15.7863 11.7751 15.9036C10.7091 16.2969 10.0619 17.0605 9.92684 18.1851C9.79373 19.2938 10.2311 20.1803 11.1533 20.8189C11.2306 20.8725 11.3099 20.9223 11.3819 20.9827C11.3993 20.9985 11.4166 21.0143 11.4342 21.0303C11.6484 21.1151 11.8624 21.2011 12.0904 21.2463C12.8139 21.3894 13.4955 21.2789 14.1233 20.8918C14.8479 20.4449 15.2762 19.7905 15.4264 18.9547C15.4546 18.7967 15.4593 18.6358 15.4593 18.4747C15.4584 14.1545 15.4584 9.83425 15.4591 5.51425C15.4591 5.41295 15.4519 5.36898 15.4704 5.35026C15.4886 5.33177 15.5318 5.33792 15.6315 5.33781C16.3289 5.33718 17.0262 5.33733 17.7235 5.33746C18.0224 5.33752 18.3212 5.33758 18.6199 5.33758L18.6435 5.33749C18.6592 5.33739 18.6749 5.33729 18.6906 5.33758C18.7924 5.33914 18.7944 5.33936 18.7937 5.4427C18.7926 5.67358 18.8886 6.21559 18.8973 6.25825C19.3279 8.4427 21.8735 9.77803 22.6584 9.89647C22.8744 9.92914 23.0917 9.95536 23.3115 9.95336Z" id="Combined-Shape" fill="#424D54" fill-rule="evenodd" stroke="none" />
  </g>
</svg>