<?xml version="1.0" encoding="utf-8"?>
<svg width="30px" height="30px" viewBox="0 0 30 30" version="1.1" xmlns:xlink="http://www.w3.org/1999/xlink" xmlns="http://www.w3.org/2000/svg">
  <g id="Group-2">
    <path d="M15 30C23.2844 30 30 23.2842 30 15C30 6.71556 23.2844 0 15 0C6.71556 0 0 6.71556 0 15C0 23.2842 6.71556 30 15 30ZM23.3023 12.3062C23.3023 17.5693 19.2956 23.6389 11.9689 23.6389C9.72006 23.6389 7.62672 22.9793 5.8645 21.8498C6.17561 21.8866 6.49339 21.9049 6.81339 21.9049C8.68006 21.9049 10.3978 21.2682 11.7601 20.2C10.0178 20.1675 8.54672 19.016 8.04006 17.4335C8.28228 17.48 8.53117 17.5053 8.78895 17.5053C9.15117 17.5053 9.5045 17.4562 9.83784 17.3653C8.01561 17 6.64228 15.3895 6.64228 13.4604C6.64228 13.4429 6.64228 13.4262 6.6445 13.4095C7.18006 13.7082 7.79561 13.8878 8.44895 13.908C7.37784 13.1942 6.67561 11.9744 6.67561 10.5924C6.67561 9.86308 6.87339 9.17886 7.21561 8.59064C9.18006 11.0006 12.1134 12.5855 15.4245 12.752C15.3556 12.4604 15.3223 12.1564 15.3223 11.8438C15.3223 9.64486 17.1045 7.86108 19.3045 7.86108C20.4512 7.86108 21.4845 8.34531 22.2134 9.11953C23.1201 8.94086 23.9712 8.60908 24.7423 8.15264C24.4445 9.08264 23.8134 9.86308 22.9912 10.356C23.7956 10.2598 24.5645 10.046 25.2778 9.72908C24.7445 10.5275 24.0689 11.2291 23.2912 11.7913C23.2978 11.962 23.3023 12.1338 23.3023 12.3062Z" id="Combined-Shape" fill="#424D54" fill-rule="evenodd" stroke="none" />
  </g>
</svg>