<?xml version="1.0" encoding="utf-8"?>
<svg width="30px" height="30px" viewBox="0 0 30 30" version="1.1" xmlns:xlink="http://www.w3.org/1999/xlink" xmlns="http://www.w3.org/2000/svg">
  <g id="Group-4">
    <path d="M15 30C23.2842 30 30 23.2842 30 15C30 6.71578 23.2842 0 15 0C6.71578 0 0 6.71578 0 15C0 23.2842 6.71578 30 15 30ZM22.8138 8.418C23.6744 8.648 24.352 9.32578 24.582 10.1862C25 11.7458 25 15 25 15C25 15 25 18.2542 24.582 19.8138C24.352 20.6744 23.6744 21.352 22.8138 21.582C21.2542 22 15 22 15 22C15 22 8.74578 22 7.186 21.582C6.32556 21.352 5.64778 20.6744 5.418 19.8138C5 18.2542 5 15 5 15C5 15 5 11.7458 5.418 10.1862C5.64778 9.32578 6.32556 8.648 7.186 8.418C8.74578 8 15 8 15 8C15 8 21.2542 8 22.8138 8.418ZM18.196 15L13 12L13 18L18.196 15Z" id="Combined-Shape" fill="#424D54" fill-rule="evenodd" stroke="none" />
  </g>
</svg>