<?xml version="1.0" encoding="utf-8"?>
<svg width="54px" height="54px" viewBox="0 0 54 54" version="1.1" xmlns:xlink="http://www.w3.org/1999/xlink" xmlns="http://www.w3.org/2000/svg">
  <g id="checklist">
    <g id="Layer_2_00000147924616424217509670000008822401513075111858_" transform="translate(3.0902405 3.09021)">
      <path d="M16.3266 16.7378C16.6219 17.0437 17.1176 17.0437 17.4129 16.7378C17.4129 16.7378 17.4129 16.7378 17.4129 16.7378L19.9863 14.1644C20.2922 13.8585 20.2922 13.3734 19.9863 13.0675C19.6805 12.7617 19.1953 12.7617 18.8895 13.0675L18.8895 13.0675L16.8645 15.0925L16.1262 14.3542C15.8203 14.0484 15.3352 14.0484 15.0293 14.3542C14.7234 14.6601 14.7234 15.1453 15.0293 15.4511L15.0293 15.4511L16.3266 16.7378L16.3266 16.7378Z" id="Hình-dạng" fill="#DF0024" fill-rule="evenodd" stroke="none" />
      <path d="M23.3086 15.6832L32.2312 15.6832C32.6531 15.6832 33.0012 15.3351 33.0012 14.9132C33.0012 14.4914 32.6531 14.1433 32.2312 14.1433L23.3086 14.1433C22.8867 14.1433 22.5387 14.4914 22.5387 14.9132C22.5387 15.3351 22.8762 15.6832 23.3086 15.6832L23.3086 15.6832Z" id="Hình-dạng" fill="#DF0024" fill-rule="evenodd" stroke="none" />
      <path d="M16.3266 22.5281C16.6219 22.834 17.1176 22.834 17.4129 22.5281C17.4129 22.5281 17.4129 22.5281 17.4129 22.5281L19.9863 19.9547C20.2922 19.6488 20.2922 19.1637 19.9863 18.8578C19.6805 18.552 19.1953 18.552 18.8895 18.8578L18.8895 18.8578L16.8645 20.8828L16.1262 20.1445C15.8203 19.8387 15.3352 19.8387 15.0293 20.1445C14.7234 20.4504 14.7234 20.9355 15.0293 21.2414L15.0293 21.2414L16.3266 22.5281L16.3266 22.5281Z" id="Hình-dạng" fill="#DF0024" fill-rule="evenodd" stroke="none" />
      <path d="M23.3086 21.4629L32.2312 21.4629C32.6531 21.4629 33.0012 21.1149 33.0012 20.693C33.0012 20.2711 32.6531 19.9231 32.2312 19.9231L23.3086 19.9231C22.8867 19.9231 22.5387 20.2711 22.5387 20.693C22.5387 21.1254 22.8762 21.4629 23.3086 21.4629L23.3086 21.4629Z" id="Hình-dạng" fill="#DF0024" fill-rule="evenodd" stroke="none" />
      <path d="M16.3266 28.3078C16.6219 28.6136 17.1176 28.6136 17.4129 28.3078C17.4129 28.3078 17.4129 28.3078 17.4129 28.3078L19.9863 25.7343C20.2922 25.4285 20.2922 24.9433 19.9863 24.6375C19.6805 24.3316 19.1953 24.3316 18.8895 24.6375L18.8895 24.6375L16.8645 26.6625L16.1262 25.9242C15.8203 25.6183 15.3352 25.6183 15.0293 25.9242C14.7234 26.2301 14.7234 26.7152 15.0293 27.0211L15.0293 27.0211L16.3266 28.3078L16.3266 28.3078Z" id="Hình-dạng" fill="#DF0024" fill-rule="evenodd" stroke="none" />
      <path d="M23.3086 27.2531L32.2312 27.2531C32.6531 27.2531 33.0012 26.9051 33.0012 26.4832C33.0012 26.0613 32.6531 25.7133 32.2312 25.7133L23.3086 25.7133C22.8867 25.7133 22.5387 26.0613 22.5387 26.4832C22.5387 26.9051 22.8762 27.2531 23.3086 27.2531L23.3086 27.2531Z" id="Hình-dạng" fill="#DF0024" fill-rule="evenodd" stroke="none" />
      <path d="M47.0496 40.5L45.8895 40.5L45.8895 16.7273C45.8895 14.9449 44.4445 13.5 42.6621 13.5L38.1797 13.5L38.1797 8.49023C38.1797 8.28984 38.0953 8.08945 37.9582 7.9418L30.2379 0.221484C30.0902 0.0738282 29.9004 0 29.6895 0L12.0762 0C10.7262 0 9.63984 1.09687 9.63984 2.43633L9.63984 13.5L5.15742 13.5C3.375 13.5 1.93008 14.9449 1.93008 16.7273L1.93008 40.5L0.769922 40.5C0.348047 40.5 0 40.848 0 41.2699L0 43.9805C0.0843749 46.1742 1.91953 47.8934 4.12383 47.8195L43.7168 47.8195C45.9105 47.8934 47.7562 46.1742 47.8406 43.9805L47.8406 41.2699C47.8195 40.8375 47.482 40.5 47.0496 40.5L47.0496 40.5ZM42.6621 15.0398C43.5902 15.0398 44.3496 15.7992 44.3496 16.7273L44.3496 40.5L42.6094 40.5L42.6094 17.55C42.6094 17.1281 42.2613 16.78 41.8395 16.78L38.1797 16.78L38.1797 15.0398L42.6621 15.0398L42.6621 15.0398ZM29.1621 40.5C28.8773 40.5 28.6137 40.6582 28.4871 40.9008L27.6539 42.4301L20.1656 42.4301L19.3324 40.9008C19.1953 40.6477 18.9316 40.5 18.6574 40.5L6.75 40.5L6.75 18.3199L9.63984 18.3199L9.63984 33.5602C9.63984 34.9102 10.7367 35.9965 12.0762 35.9965L35.7434 35.9965C37.0934 35.9965 38.1797 34.8996 38.1797 33.5602L38.1797 18.3199L41.0695 18.3199L41.0695 40.5L29.1621 40.5L29.1621 40.5ZM30.4699 2.63672L35.543 7.70977L30.4699 7.70977L30.4699 2.63672L30.4699 2.63672ZM11.1797 2.43628C11.1797 1.94058 11.5805 1.53979 12.0762 1.53979C12.0762 1.53979 12.0762 1.53979 12.0762 1.53979L28.9195 1.53979L28.9195 8.47964C28.9195 8.90151 29.2676 9.24956 29.6895 9.24956L36.6293 9.24956L36.6293 33.5496C36.6293 34.0453 36.2285 34.446 35.7328 34.446L35.7328 34.446L12.0762 34.446C11.5805 34.446 11.1797 34.0453 11.1797 33.5496L11.1797 2.43628L11.1797 2.43628ZM3.46992 16.7273C3.46992 15.7992 4.2293 15.0398 5.15742 15.0398L9.63985 15.0398L9.63985 16.78L5.96953 16.78C5.54766 16.78 5.19961 17.1281 5.19961 17.55L5.19961 40.5L3.46992 40.5L3.46992 16.7273L3.46992 16.7273ZM46.2797 43.9804C46.1953 45.3199 45.0457 46.3535 43.7063 46.2796L4.11328 46.2796C2.77383 46.3535 1.62422 45.3199 1.53984 43.9804L1.53984 42.0398L18.1934 42.0398L19.0266 43.5691C19.1637 43.8222 19.4168 43.9699 19.7016 43.9699L28.118 43.9699C28.4027 43.9699 28.6559 43.8117 28.793 43.5691L29.6262 42.0398L46.2797 42.0398L46.2797 43.9804L46.2797 43.9804Z" id="Hình-dạng" fill="#DF0024" fill-rule="evenodd" stroke="none" />
    </g>
  </g>
</svg>