<?xml version="1.0" encoding="utf-8"?>
<svg width="48px" height="48.062866px" viewBox="0 0 48 48.062866" version="1.1" xmlns:xlink="http://www.w3.org/1999/xlink" xmlns="http://www.w3.org/2000/svg">
  <g id="favicon">
    <path d="M24 0.06287C10.7452 0.0628692 0 10.808 0 24.0629C1.49596e-06 37.3177 10.7452 48.0629 24 48.0629C37.2548 48.0629 48 37.3177 48 24.0629C47.9954 10.7998 37.2466 0.0582946 23.9917 0.0628707L24 0.06287ZM24 46.9256C11.3753 46.9169 1.14718 36.6771 1.15296 24.0524C1.15873 11.4277 11.3962 1.19718 24.0209 1.20007C36.6456 1.20296 46.8784 11.4381 46.8784 24.0628C46.8784 30.1376 44.4662 35.9556 40.1733 40.2426C35.8804 44.5296 30.0591 46.9339 23.9922 46.9255L24 46.9256Z" id="Hình-dạng" fill="#0F0E9F" fill-rule="evenodd" stroke="none" />
    <path d="M19.8039 20.3372L23.8196 1.5686L27.7568 20.3372L46.5019 24.4235L27.7568 28.3372L23.8196 47.0431L19.8039 28.3764L0.964691 24.4235L19.8039 20.3372L19.8039 20.3372Z" id="Đa-giác" fill="#0F0E9F" fill-rule="evenodd" stroke="none" />
    <path d="M21.0667 21.6706L23.7333 10.6274L26.3922 21.6706L37.2627 24.3059L26.4392 27.0431L23.7333 38.1725L21.0667 27.0823L10.0235 24.4L21.0667 21.6706L21.0667 21.6706Z" id="Đa-giác" fill="#DF0024" fill-rule="evenodd" stroke="none" />
    <path d="M22.3686 23.0118L23.7333 18.5099L25.098 23.0118L29.4275 24.306L25.098 25.655L23.7333 29.9922L22.3686 25.702L18.1255 24.306L22.3686 23.0118L22.3686 23.0118Z" id="Đa-giác" fill="#F8F400" fill-rule="evenodd" stroke="none" />
  </g>
</svg>