<?xml version="1.0" encoding="utf-8"?>
<svg width="54px" height="54.016113px" viewBox="0 0 54 54.016113" version="1.1" xmlns:xlink="http://www.w3.org/1999/xlink" xmlns="http://www.w3.org/2000/svg">
  <g id="human">
    <path d="M27.0069 28.5967C19.1101 28.5967 12.7086 22.1951 12.7086 14.2984C12.7086 6.40174 19.1101 0 27.0069 0C34.9037 0 41.3052 6.40163 41.3052 14.2983C41.3052 22.195 34.9036 28.5967 27.0069 28.5967L27.0069 28.5967ZM27.0069 25.4193C33.1488 25.4193 38.1279 20.4404 38.1279 14.2984C38.1279 8.15635 33.1488 3.17749 27.007 3.17749C20.8651 3.17749 15.886 8.15646 15.886 14.2984C15.886 20.4402 20.865 25.4193 27.007 25.4193L27.0069 25.4193ZM12.8403 35.3562C9.12923 36.3999 6.70336 39.9576 7.08696 43.7935L7.93454 52.2692C8.0219 53.1422 7.38489 53.9208 6.51188 54.0081C5.63876 54.0954 4.86027 53.4584 4.77292 52.5853L3.92533 44.1095C3.38823 38.7393 6.78459 33.7586 11.98 32.2975C14.639 31.5497 17.2997 31.0001 19.9619 30.6494C20.6226 30.5624 21.2674 30.8969 21.5767 31.4873L25.5997 39.1675C26.0068 39.9447 26.967 40.2448 27.7442 39.8376C28.0305 39.6876 28.2643 39.4538 28.4143 39.1675L32.4372 31.4873C32.7466 30.8969 33.3914 30.5623 34.0521 30.6494C36.7143 31.0002 39.375 31.5497 42.0339 32.2975C47.2294 33.7587 50.6256 38.7394 50.0886 44.1096L49.2411 52.5853C49.1538 53.4584 48.3752 54.0953 47.5021 54.0081C46.6291 53.9207 45.9921 53.1423 46.0794 52.2692L46.927 43.7935C47.3106 39.9576 44.8848 36.4 41.1737 35.3562C39.025 34.7519 36.8776 34.2851 34.7313 33.9557L31.2291 40.6419C30.779 41.501 30.0776 42.2023 29.2185 42.6524C26.8868 43.8738 24.0064 42.9736 22.785 40.6419L19.2828 33.9557C17.1364 34.2851 14.989 34.7519 12.8403 35.3562L12.8403 35.3562Z" id="Group" fill="#DF0024" fill-rule="evenodd" stroke="none" />
  </g>
</svg>