<?xml version="1.0" encoding="utf-8"?>
<svg width="42.759155px" height="42.769775px" viewBox="0 0 42.759155 42.769775" version="1.1" xmlns:xlink="http://www.w3.org/1999/xlink" xmlns="http://www.w3.org/2000/svg">
  <g id="world-(1)">
    <path d="M35.3108 5.20115C34.7306 4.7053 33.1586 3.5026 32.9476 3.4393C29.6455 1.3082 25.7209 0.0527508 21.5114 0.0316503C21.4692 0.0211005 21.427 0 21.3848 0C21.3321 0 21.2899 0.0210997 21.2477 0.0316503C16.9855 0.0633007 13.0187 1.3504 9.69545 3.53425C9.6427 3.5659 9.58995 3.59755 9.5372 3.6292C3.85075 7.43775 0.0844 13.9049 0.03165 21.2477C0.0211 21.2899 0 21.3321 0 21.3849C0 21.4271 0.0211 21.4693 0.0211 21.5115L0.0211 21.5115C0.0632999 28.8543 3.82965 35.332 9.5161 39.1511C9.5794 39.2038 9.65325 39.246 9.7271 39.2777C13.082 41.4721 17.091 42.7697 21.3954 42.7697C25.6576 42.7697 29.6877 41.4932 33.0848 39.2777C33.1903 39.2355 33.2852 39.1616 33.3696 39.0878C37.136 36.5347 40.09 32.8105 41.6303 28.2951C41.8307 27.7043 41.5142 27.0713 40.9234 26.8709C40.3326 26.6704 39.6996 26.9869 39.4992 27.5777C38.191 31.4285 35.7328 34.6462 32.5889 36.9039C31.8504 36.4292 31.0908 36.0072 30.2785 35.6379C32.9371 31.9032 34.604 27.2612 34.8361 22.5137L41.5775 22.5137C41.5986 22.5137 41.6197 22.5243 41.6303 22.5243C42.2527 22.5243 42.7591 22.0179 42.7591 21.3954C42.7591 15.7406 40.5331 10.6028 36.9355 6.7731L35.3108 5.20115L35.3108 5.20115ZM2.33154 22.5032L7.94414 22.5032C8.17624 27.2718 9.86424 31.9349 12.5334 35.6801C11.7527 36.0388 10.9931 36.4503 10.2546 36.9039C5.71809 33.6334 2.67969 28.4323 2.33154 22.5032L2.33154 22.5032L2.33154 22.5032ZM22.5137 8.96755C24.4654 8.8726 26.3328 8.5561 28.0735 7.99695C30.6583 11.4468 32.3463 15.8251 32.5995 20.2561L22.5137 20.2561L22.5137 8.96755L22.5137 8.96755ZM22.5137 6.70976L22.5137 2.93286C23.9485 3.75576 25.2778 4.83186 26.4805 6.09786C25.225 6.43546 23.8957 6.64646 22.5137 6.70976L22.5137 6.70976L22.5137 6.70976ZM26.3856 2.95398C27.7993 3.33378 29.1602 3.86128 30.4262 4.54703C29.8987 4.84243 29.3501 5.10618 28.7804 5.33828C28.0419 4.47318 27.2401 3.67138 26.3856 2.95398L26.3856 2.95398ZM13.9999 5.2539C13.4724 5.03235 12.9449 4.7897 12.4385 4.5154C13.6623 3.8613 14.9599 3.3549 16.3209 2.9751C15.498 3.6714 14.7278 4.431 13.9999 5.2539L13.9999 5.2539ZM20.2665 2.94348L20.2665 6.70983C18.9267 6.63598 17.6185 6.41443 16.3419 6.06628C17.5341 4.82138 18.8423 3.75583 20.2665 2.94348L20.2665 2.94348ZM20.2665 8.95694L20.2665 20.256L10.2018 20.256C10.455 15.8039 12.1536 11.394 14.7594 7.93359C16.5318 8.51384 18.3781 8.86199 20.2665 8.95694L20.2665 8.95694L20.2665 8.95694ZM20.2665 22.5032L20.2665 33.8022C18.3781 33.8972 16.5318 34.2453 14.7489 34.8256C12.143 31.3652 10.4445 26.9553 10.2018 22.5032L20.2665 22.5032L20.2665 22.5032ZM20.2665 39.8263C18.8528 39.0139 17.5341 37.9484 16.3419 36.7035C17.6185 36.3553 18.9267 36.1338 20.2665 36.0599L20.2665 39.8263L20.2665 39.8263ZM16.3631 39.8157C14.981 39.4359 13.6517 38.9189 12.4174 38.2543C12.9343 37.98 13.4618 37.7268 13.9999 37.5052C14.7384 38.3493 15.5191 39.1194 16.3631 39.8157L16.3631 39.8157L16.3631 39.8157ZM22.5137 39.8262L22.5137 36.0493C23.8957 36.1232 25.225 36.3236 26.491 36.6507C25.2883 37.9167 23.9485 39.0033 22.5137 39.8262L22.5137 39.8262ZM30.4578 38.2227C29.1813 38.9085 27.8203 39.4571 26.4066 39.8369C27.2717 39.1195 28.0946 38.3177 28.8542 37.442C29.4028 37.6741 29.9303 37.9379 30.4578 38.2227L30.4578 38.2227ZM28.0841 34.7728C26.3328 34.2136 24.4654 33.8971 22.5137 33.8022L22.5137 22.5137L32.5995 22.5137C32.3568 26.9341 30.6688 31.3124 28.0841 34.7728L28.0841 34.7728ZM35.1842 8.17626C38.2332 11.3518 40.1849 15.5824 40.4592 20.256L34.8466 20.256C34.604 15.5718 32.8949 10.9193 30.2363 7.16346C31.0486 6.79421 31.8188 6.37221 32.5573 5.89746C32.8843 6.14011 33.2219 6.37221 33.5279 6.62541L35.1842 8.17626L35.1842 8.17626ZM10.2757 5.86584C11.0142 6.30894 11.7632 6.7204 12.5439 7.0791C9.87479 10.8243 8.18679 15.4769 7.95469 20.2561L2.33154 20.2561C2.69024 14.3375 5.72864 9.13635 10.2757 5.86584L10.2757 5.86584Z" id="Group" fill="#DF0024" fill-rule="evenodd" stroke="none" />
  </g>
</svg>