<?xml version="1.0" encoding="utf-8"?>
<svg width="61px" height="61px" viewBox="0 0 61 61" version="1.1" xmlns:xlink="http://www.w3.org/1999/xlink" xmlns="http://www.w3.org/2000/svg">
  <g id="factory">
    <path d="M4.03829 57.3949L56.9619 57.3949C57.4672 57.3949 57.8769 56.9852 57.8769 56.4799L57.8769 19.8799C57.8769 19.3745 57.4672 18.9649 56.9619 18.9649L40.2601 18.9649C39.7547 18.9649 39.3451 19.3745 39.3451 19.8799L39.3451 30.3414L33.6233 32.7143L32.4033 13.5176C32.3713 13.0352 31.9717 12.6596 31.4883 12.6575L24.8881 12.6575C24.4046 12.6568 24.0052 13.0347 23.9792 13.5176L22.9422 30.2438L17.9829 32.7692L16.7934 13.5176C16.761 13.0281 16.3506 12.6499 15.8601 12.6575L9.25379 12.6575C8.77033 12.6596 8.3708 13.0352 8.33879 13.5176L6.81989 38.1128C6.8126 38.2223 6.82711 38.3322 6.86259 38.4361L3.62349 40.0892C3.31696 40.2435 3.12349 40.5573 3.12329 40.9005L3.12329 56.4799C3.12329 56.9852 3.53295 57.3949 4.03829 57.3949L4.03829 57.3949ZM46.9336 55.5649L46.9336 48.5255L50.2825 48.5255L50.2825 55.5649L46.9336 55.5649ZM41.1689 20.7949L56.0468 20.7949L56.0468 55.5649L52.1123 55.5649L52.1123 47.6349C52.1123 47.1296 51.7027 46.7199 51.1973 46.7199L46.0184 46.7199C45.5131 46.7199 45.1034 47.1296 45.1034 47.6349L45.1034 55.5649L41.1689 55.5649L41.1689 20.7949ZM24.4795 34.4955C24.5044 34.4245 24.5208 34.3508 24.5283 34.2759L25.0956 25.01L31.3054 25.01L31.83 33.4402L24.51 36.4902L24.4795 34.4955ZM30.6526 14.4875L31.1955 23.18L25.2114 23.18L25.7482 14.4753L30.6526 14.4875ZM15.0183 14.4875L15.5551 23.18L9.57715 23.18L10.1139 14.4753L15.0183 14.4875ZM9.46123 25.01L15.671 25.01L16.2078 33.6659L8.69263 37.5028L9.46123 25.01ZM17.5621 35.0384L22.6434 32.4459L22.6434 37.8688C22.645 38.1746 22.7984 38.4596 23.0527 38.6295C23.3069 38.7995 23.629 38.8321 23.9122 38.7167L39.3391 32.33L39.3391 55.571L4.95337 55.571L4.95337 52.033L23.2534 52.033C23.7587 52.033 24.1684 51.6233 24.1684 51.118L24.1684 45.7012C24.1684 45.1958 23.7587 44.7862 23.2534 44.7862L4.95337 44.7862L4.95337 41.48L17.5621 35.0384ZM4.95337 46.6284L12.7126 46.6284L12.7126 50.2091L4.95337 50.2091L4.95337 46.6284ZM22.3078 46.6284L22.3078 50.2091L14.5425 50.2091L14.5425 46.6162L22.3078 46.6284ZM43.5603 27.45C43.5603 26.9447 43.97 26.535 44.4753 26.535L52.7408 26.535C53.2462 26.535 53.6558 26.9447 53.6558 27.45C53.6558 27.9554 53.2462 28.365 52.7408 28.365L44.4753 28.365C43.97 28.365 43.5603 27.9554 43.5603 27.45L43.5603 27.45ZM43.5603 33.9953C43.5603 33.49 43.97 33.0803 44.4753 33.0803L52.7408 33.0803C53.2462 33.0803 53.6558 33.49 53.6558 33.9953C53.6558 34.5007 53.2462 34.9103 52.7408 34.9103L44.4753 34.9103C43.9723 34.9103 43.5637 34.5044 43.5603 34.0014L43.5603 33.9953ZM43.5603 40.8944C43.5603 40.389 43.97 39.9794 44.4753 39.9794L52.7408 39.9794C53.2462 39.9794 53.6558 40.389 53.6558 40.8944C53.6558 41.3997 53.2462 41.8094 52.7408 41.8094L44.4753 41.8094C43.9723 41.8094 43.5637 41.4034 43.5603 40.9005L43.5603 40.8944ZM27.4014 45.7013C27.4014 45.1959 27.811 44.7863 28.3164 44.7863L35.1606 44.7863C35.6659 44.7863 36.0756 45.1959 36.0756 45.7013C36.0756 46.2066 35.6659 46.6163 35.1606 46.6163L28.3164 46.6163C27.811 46.6163 27.4014 46.2066 27.4014 45.7013L27.4014 45.7013ZM27.4014 51.1119C27.4014 50.6066 27.811 50.1969 28.3164 50.1969L35.1606 50.1969C35.6659 50.1969 36.0756 50.6066 36.0756 51.1119C36.0756 51.6172 35.6659 52.0269 35.1606 52.0269L28.3164 52.0269C27.811 52.0269 27.4014 51.6172 27.4014 51.1119L27.4014 51.1119ZM26.4435 10.065C26.4465 6.49932 29.3365 3.60881 32.9028 3.6051L42.6201 3.6051C44.6566 3.6051 46.3075 5.25603 46.3075 7.29255C46.3075 9.32907 44.6566 10.98 42.6201 10.98L39.503 10.98C39.0963 12.3807 37.8139 13.345 36.3554 13.3468L35.2818 13.3468C34.7764 13.3468 34.3668 12.9371 34.3668 12.4318C34.3668 11.9265 34.7764 11.5168 35.2818 11.5168L36.3554 11.5168C36.743 11.5217 37.1164 11.3707 37.3917 11.0978C37.6669 10.8248 37.821 10.4527 37.8194 10.065C37.8227 9.56104 38.2304 9.15333 38.7344 9.15L42.6384 9.15C43.6642 9.15 44.4958 8.31839 44.4958 7.29255C44.4958 6.26671 43.6642 5.4351 42.6384 5.4351L32.9028 5.4351C30.3471 5.43846 28.2762 7.50937 28.2729 10.065C28.2729 10.5703 27.8632 10.98 27.3579 10.98C26.8525 10.98 26.4429 10.5703 26.4429 10.065L26.4435 10.065ZM3.19654 6.8564C3.19654 5.06076 4.6522 3.6051 6.44784 3.6051L18.1964 3.6051C19.9921 3.6051 21.4477 5.06076 21.4477 6.8564C21.4477 8.65205 19.9921 10.1077 18.1964 10.1077L16.0675 10.1077C15.8587 10.1077 15.6893 10.277 15.6893 10.4859C15.6893 10.9912 15.2797 11.4009 14.7743 11.4009C14.269 11.4009 13.8593 10.9912 13.8593 10.4859C13.8593 9.26635 14.848 8.2777 16.0675 8.2777L18.1964 8.2777C18.9814 8.2777 19.6177 7.64137 19.6177 6.8564C19.6177 6.07144 18.9814 5.4351 18.1964 5.4351L6.44784 5.4351C5.66288 5.4351 5.02654 6.07144 5.02654 6.8564C5.02654 7.64137 5.66288 8.2777 6.44784 8.2777L7.50314 8.2777C8.44877 8.27689 9.37222 8.56413 10.1505 9.1012L11.0716 9.7112C11.4042 9.93755 11.5499 10.3545 11.4307 10.7387C11.3115 11.1229 10.9554 11.3842 10.5531 11.3826C10.3685 11.3819 10.1881 11.3267 10.0346 11.224L9.11354 10.614C8.63935 10.2889 8.07806 10.1146 7.50314 10.1138L6.44784 10.1138C5.58448 10.1138 4.75658 9.77042 4.14666 9.15936C3.53675 8.54831 3.19492 7.71976 3.19654 6.8564L3.19654 6.8564Z" id="Hình-dạng" fill="#DF0024" fill-rule="evenodd" stroke="none" />
  </g>
</svg>