<?xml version="1.0" encoding="utf-8"?>
<svg width="48.00293px" height="48.025574px" viewBox="0 0 48.00293 48.025574" version="1.1" xmlns:xlink="http://www.w3.org/1999/xlink" xmlns="http://www.w3.org/2000/svg">
  <g id="idea-(1)">
    <path d="M34.5989 3.78012C30.6406 0.553399 25.4534 -0.684761 20.3788 0.375179C14.0473 1.69776 8.86957 6.89428 7.51885 13.3008C6.37449 18.7037 7.78149 24.1253 11.3928 28.1775C13.1844 30.1848 14.1693 32.6987 14.1693 35.2688L14.1693 38.0828C14.1693 39.9213 15.3418 41.4784 16.9833 42.0599L16.9833 43.8046C16.9833 46.1308 18.878 48.0256 21.2043 48.0256L26.8323 48.0256C29.1585 48.0256 31.0533 46.1308 31.0533 43.8046L31.0533 42.0599C32.6948 41.4783 33.8673 39.9119 33.8673 38.0828L33.8673 35.2688C33.8673 32.7362 34.8803 30.1848 36.7188 28.0837C39.4109 25.0071 40.8929 21.0581 40.8929 16.9778C40.8929 11.8375 38.6042 7.0256 34.5989 3.78012L34.5989 3.78012ZM28.2299 43.8046C28.2299 44.5831 27.6014 45.2116 26.8229 45.2116L21.1949 45.2116C20.4164 45.2116 19.7879 44.5831 19.7879 43.8046L19.7879 42.3038L28.2299 42.3038L28.2299 43.8046L28.2299 43.8046ZM31.0439 38.0828C31.0439 38.8613 30.4154 39.4898 29.6369 39.4898L18.3809 39.4898C17.6024 39.4898 16.9739 38.8613 16.9739 38.0828L16.9739 36.6758L31.0439 36.6758L31.0439 38.0828L31.0439 38.0828ZM24.0089 23.8815C24.9563 23.8815 25.913 23.7314 26.8229 23.4312L26.8229 33.8618L21.1949 33.8618L21.1949 23.4312C22.1048 23.7314 23.0615 23.8815 24.0089 23.8815L24.0089 23.8815ZM21.6545 20.5985L24.0089 15.8991L26.3633 20.5985C24.8531 21.2269 23.1647 21.2269 21.6545 20.5985L21.6545 20.5985ZM34.5989 26.2265C32.6385 28.4589 31.4379 31.1228 31.1283 33.8524L29.6369 33.8524L29.6369 21.2082C29.6369 21.2082 29.6369 21.2082 29.6369 21.1988C29.6369 21.0112 29.5994 20.7954 29.5056 20.5985C29.4962 20.5891 29.4962 20.5797 29.4962 20.5703L25.2752 12.1283C25.0407 11.6499 24.5529 11.3498 24.0183 11.3498C23.4836 11.3498 22.9959 11.6499 22.7614 12.1283L18.5404 20.5703C18.4466 20.7579 18.3903 20.983 18.3903 21.1988C18.3903 21.1988 18.3903 21.2082 18.3903 21.2082L18.3903 33.8618L16.9082 33.8618C16.6081 31.1134 15.4262 28.4683 13.5033 26.3109C10.5017 22.9341 9.31981 18.4035 10.2859 13.8918C11.4209 8.56392 15.717 4.23974 20.9792 3.14228C25.2189 2.26056 29.5431 3.29236 32.8449 5.97504C36.1841 8.68586 38.0977 12.7005 38.0977 16.9872C38.0789 20.3827 36.8407 23.6657 34.5989 26.2265L34.5989 26.2265Z" id="Group" fill="#757575" fill-rule="evenodd" stroke="none" />
    <path d="M4.221 16.9688L1.407 16.9688C0.62846 16.9688 0 17.5972 0 18.3757C0 19.1543 0.62846 19.7828 1.407 19.7828L4.221 19.7828C4.99954 19.7828 5.628 19.1543 5.628 18.3757C5.628 17.5972 4.99954 16.9688 4.221 16.9688L4.221 16.9688Z" id="Group" fill="#DF0024" fill-rule="evenodd" stroke="none" />
    <path d="M4.80252 9.93882L2.81396 7.94088C2.26054 7.38746 1.36944 7.38746 0.825398 7.94088C0.281358 8.4943 0.271978 9.3854 0.825398 9.92944L2.81396 11.9274C3.36738 12.4808 4.25848 12.4808 4.80252 11.9274C5.35594 11.374 5.35594 10.4829 4.80252 9.93882L4.80252 9.93882Z" id="Group" fill="#DF0024" fill-rule="evenodd" stroke="none" />
    <path d="M4.80234 24.8159C4.24892 24.2624 3.35782 24.2624 2.81378 24.8159L0.825221 26.8138C0.271801 27.3672 0.271801 28.2583 0.825221 28.8024C1.37864 29.3558 2.26974 29.3558 2.81378 28.8024L4.80234 26.8138C5.35576 26.2604 5.35576 25.3693 4.80234 24.8159L4.80234 24.8159Z" id="Group" fill="#DF0024" fill-rule="evenodd" stroke="none" />
    <path d="M46.596 16.9688L43.782 16.9688C43.0035 16.9688 42.375 17.5972 42.375 18.3757C42.375 19.1543 43.0035 19.7828 43.782 19.7828L46.596 19.7828C47.3745 19.7828 48.003 19.1543 48.003 18.3757C48.003 17.5972 47.3745 16.9688 46.596 16.9688L46.596 16.9688Z" id="Group" fill="#DF0024" fill-rule="evenodd" stroke="none" />
    <path d="M47.1773 7.94088C46.6239 7.38746 45.7328 7.38746 45.1888 7.94088L43.2002 9.93882C42.6468 10.4922 42.6468 11.3833 43.2002 11.9274C43.7536 12.4808 44.6447 12.4808 45.1888 11.9274L47.1773 9.93882C47.7308 9.3854 47.7308 8.4943 47.1773 7.94088L47.1773 7.94088Z" id="Group" fill="#DF0024" fill-rule="evenodd" stroke="none" />
    <path d="M47.1728 26.8138L45.1864 24.8159C44.6336 24.2624 43.7434 24.2624 43.2 24.8159C42.6565 25.3693 42.6471 26.2604 43.2 26.8044L45.1864 28.793C45.7392 29.3464 46.6294 29.3464 47.1728 28.793C47.7257 28.2489 47.7257 27.3578 47.1728 26.8138L47.1728 26.8138Z" id="Group" fill="#DF0024" fill-rule="evenodd" stroke="none" />
  </g>
</svg>