<?xml version="1.0" encoding="utf-8"?>
<svg width="48px" height="48px" viewBox="0 0 48 48" version="1.1" xmlns:xlink="http://www.w3.org/1999/xlink" xmlns="http://www.w3.org/2000/svg">
  <g id="project-(1)">
    <path d="M42.9 35.7C43.65 34.8 44.25 33.6 44.25 32.25C44.25 29.4 41.85 27 39 27C36.15 27 33.75 29.4 33.75 32.25C33.75 33.6 34.2 34.8 35.1 35.7C33 36.9 31.5 39.3 31.5 42L31.5 42.75C31.5 44.85 33.15 46.5 35.25 46.5L42.75 46.5C44.85 46.5 46.5 44.85 46.5 42.75L46.5 42C46.5 39.3 45 37.05 42.9 35.7L42.9 35.7ZM36.75 32.25C36.75 31.05 37.8 30 39 30C40.2 30 41.25 31.05 41.25 32.25C41.25 33.45 40.2 34.5 39 34.5C37.8 34.5 36.75 33.45 36.75 32.25L36.75 32.25ZM43.5 42.75C43.5 43.2 43.2 43.5 42.75 43.5L35.25 43.5C34.8 43.5 34.5 43.2 34.5 42.75L34.5 42C34.5 39.6 36.6 37.5 39 37.5C41.4 37.5 43.5 39.6 43.5 42L43.5 42.75L43.5 42.75Z" id="Hình-dạng" fill="#757575" fill-rule="evenodd" stroke="none" />
    <path d="M12.9 35.7C13.65 34.8 14.25 33.6 14.25 32.25C14.25 29.4 11.85 27 9 27C6.15 27 3.75 29.4 3.75 32.25C3.75 33.6 4.2 34.8 5.1 35.7C3 36.9 1.5 39.3 1.5 42L1.5 42.75C1.5 44.85 3.15 46.5 5.25 46.5L12.75 46.5C14.85 46.5 16.5 44.85 16.5 42.75L16.5 42C16.5 39.3 15.15 37.05 12.9 35.7L12.9 35.7ZM6.75 32.25C6.75 31.05 7.8 30 9 30C10.2 30 11.25 31.05 11.25 32.25C11.25 33.45 10.2 34.5 9 34.5C7.8 34.5 6.75 33.45 6.75 32.25L6.75 32.25ZM13.5 42.75C13.5 43.2 13.2 43.5 12.75 43.5L5.25 43.5C4.8 43.5 4.5 43.2 4.5 42.75L4.5 42C4.5 39.6 6.45 37.5 9 37.5C11.55 37.5 13.5 39.6 13.5 42L13.5 42.75L13.5 42.75Z" id="Hình-dạng" fill="#757575" fill-rule="evenodd" stroke="none" />
    <path d="M32.1 34.35C32.4 33.6 32.1 32.7 31.35 32.4L25.5 29.7L25.5 25.35C31.35 24.6 36 19.5 36 13.5C36 6.9 30.6 1.5 24 1.5C17.4 1.5 12 6.9 12 13.5C12 19.65 16.65 24.6 22.5 25.35L22.5 29.7L16.65 32.25C15.9 32.55 15.6 33.45 15.9 34.2C16.2 34.95 17.1 35.25 17.85 34.95L24 32.25L30.15 34.95C30.3 35.1 30.6 35.1 30.75 35.1C31.35 35.25 31.8 34.95 32.1 34.35L32.1 34.35L32.1 34.35ZM15 13.5C15 8.55 19.05 4.5 24 4.5C28.95 4.5 33 8.55 33 13.5C33 18.45 28.95 22.5 24 22.5C19.05 22.5 15 18.45 15 13.5L15 13.5Z" id="Hình-dạng" fill="#757575" fill-rule="evenodd" stroke="none" />
    <path d="M29.25 9.75C28.65 9.15 27.75 9.15 27.15 9.75L22.8 13.95L21 12.15C20.4 11.55 19.5 11.55 18.9 12.15C18.3 12.75 18.3 13.65 18.9 14.25L21.75 17.1C22.05 17.4 22.35 17.55 22.8 17.55C23.25 17.55 23.55 17.4 23.85 17.1L29.25 12C29.7 11.4 29.85 10.35 29.25 9.75L29.25 9.75L29.25 9.75Z" id="Hình-dạng" fill="#DF0024" stroke="none" />
  </g>
</svg>