<?xml version="1.0" encoding="utf-8"?>
<svg width="48.01367px" height="48px" viewBox="0 0 48.01367 48" version="1.1" xmlns:xlink="http://www.w3.org/1999/xlink" xmlns="http://www.w3.org/2000/svg">
  <g id="quality" transform="translate(0.0068359375 0)">
    <g id="Group" transform="translate(-0.006918211 0.0070314696)">
      <path d="M32.0749 17.7952L21.0715 28.7986L15.032 23.3637C14.4554 22.8434 13.5625 22.8926 13.0493 23.4692C12.529 24.0457 12.5782 24.9386 13.1547 25.4519L20.1856 31.7797C20.4528 32.0187 20.7903 32.1383 21.1278 32.1383C21.4863 32.1383 21.8519 31.9977 22.1191 31.7235L34.0717 19.7709C34.6201 19.2225 34.6201 18.3296 34.0717 17.7812C33.5162 17.2468 32.6233 17.2468 32.0749 17.7952L32.0749 17.7952Z" id="Hình-dạng" fill="#DF0024" fill-rule="evenodd" stroke="none" />
      <path d="M47.6905 28.6088L45.7781 23.9754L47.6905 19.342C48.485 17.4156 47.7749 15.2289 46.0031 14.1392C45.9961 14.1392 45.9961 14.1321 45.989 14.1321L41.0885 11.2002L39.9846 6.63718C39.4995 4.61228 37.6363 3.26234 35.5552 3.42405L29.9656 3.85997L26.7595 1.02651C26.7525 1.01948 26.7455 1.01245 26.7384 1.01245C25.1565 -0.337484 22.8503 -0.337484 21.2684 1.01245C21.2613 1.01948 21.2543 1.02651 21.2473 1.02651L18.0412 3.85997L12.4516 3.41702C10.3916 3.25531 8.54244 4.58415 8.03621 6.58093L6.50348 11.4674L2.03182 14.1251C2.02479 14.1321 2.01776 14.1321 2.01073 14.1392C0.238938 15.2289 -0.471183 17.4156 0.323309 19.342L2.23572 23.9754L0.323309 28.6088C-0.471183 30.5352 0.238938 32.7218 2.01073 33.8116C2.01776 33.8116 2.02479 33.8187 2.02479 33.8187L6.91127 36.7295L8.01512 41.3066C8.47916 43.219 10.1666 44.5338 12.1071 44.5338C12.2196 44.5338 12.3321 44.5267 12.4376 44.5197L17.9709 44.0908L21.2403 46.9594C21.2473 46.9664 21.2473 46.9664 21.2543 46.9735C22.0488 47.6484 23.0191 47.9859 23.9893 47.9859C24.9596 47.9859 25.9299 47.6485 26.7244 46.9735C26.7314 46.9665 26.7314 46.9665 26.7384 46.9594L30.0078 44.0908L35.5411 44.5197C37.6152 44.6814 39.4784 43.3244 39.9706 41.3066L41.0744 36.7435L45.975 33.8116C45.982 33.8116 45.982 33.8046 45.9891 33.8046C47.7679 32.7218 48.485 30.5352 47.6905 28.6088L47.6905 28.6088ZM42.9517 24.5097L45.0891 29.6845C45.3563 30.3243 45.1172 31.0485 44.5336 31.4141L39.1409 34.6413C38.8175 34.8381 38.5855 35.1475 38.4941 35.5201L37.2567 40.6527C37.0949 41.3277 36.4762 41.7776 35.7802 41.7214L29.6562 41.2503C29.2766 41.2222 28.9039 41.3488 28.6227 41.5948L24.9104 44.8502C24.3831 45.2931 23.6237 45.2931 23.0964 44.8502L19.3911 41.5948C19.1029 41.3417 18.7302 41.2222 18.3576 41.2503L12.2337 41.7214C11.5446 41.7776 10.9189 41.3277 10.7572 40.6527L9.5127 35.499C9.4213 35.1334 9.18928 34.817 8.86586 34.6202L3.48019 31.4141C2.89662 31.0485 2.65757 30.3243 2.92474 29.6845L5.06214 24.5097C5.20276 24.1652 5.20276 23.7785 5.06214 23.434L2.92474 18.2593C2.65757 17.6194 2.89662 16.8953 3.48019 16.5297L8.40182 13.6048C8.69712 13.429 8.92211 13.1478 9.02757 12.8173L10.7361 7.37542C10.7431 7.34729 10.7572 7.31214 10.7642 7.28402C10.9259 6.60905 11.5446 6.15907 12.2407 6.21532L18.4279 6.69342C18.8076 6.72154 19.1802 6.59499 19.4685 6.34891L23.1105 3.13578C23.6378 2.69284 24.3901 2.69284 24.9174 3.13578L28.5524 6.34891C28.8407 6.60202 29.2133 6.72858 29.593 6.69342L35.7802 6.21532C36.4762 6.15907 37.0949 6.61608 37.2567 7.28402L38.4941 12.4166C38.5855 12.7822 38.8175 13.0986 39.1409 13.2954L44.5336 16.5226C45.1242 16.8882 45.3563 17.6124 45.0891 18.2522L42.9517 23.427C42.8111 23.7785 42.8111 24.1652 42.9517 24.5097L42.9517 24.5097Z" id="Hình-dạng" fill="#757575" fill-rule="evenodd" stroke="none" />
    </g>
  </g>
</svg>