<?xml version="1.0" encoding="utf-8"?>
<svg width="48px" height="48px" viewBox="0 0 48 48" version="1.1" xmlns:xlink="http://www.w3.org/1999/xlink" xmlns="http://www.w3.org/2000/svg">
  <g id="time-(2)">
    <g id="Group" transform="translate(0.28762478 -2.0742416E-05)">
      <path d="M31.4468 27.0188L23.478 27.0188L23.478 18.3938C23.3843 15.9094 19.8218 15.9094 19.728 18.3938L19.728 28.8938C19.728 29.925 20.5624 30.7688 21.603 30.7688L31.4468 30.7688C33.9218 30.675 33.9311 27.1125 31.4468 27.0188L31.4468 27.0188Z" id="Hình-dạng" fill="#DF0024" fill-rule="evenodd" stroke="none" />
      <path d="M45.6217 19.9875C45.6499 11.2969 41.2343 4.2844 33.453 1.3969C20.1499 -3.2156 4.8405 3.8344 4.728 19.0031C2.84363 21.4688 1.48425 23.5219 0.574875 25.2656C-1.122 28.3406 1.14675 32.3531 4.64363 32.5313C4.64363 32.5313 5.01863 36.9188 5.01863 36.9188C5.26238 40.5563 8.553 43.5656 12.1905 43.5L13.7843 43.5C14.8155 43.5 15.6593 44.3438 15.6593 45.375L15.6593 46.125C15.6593 47.1563 16.4936 48 17.5343 48C18.5749 48 19.4093 47.1656 19.4093 46.125L19.4093 45.375C19.4093 42.2719 16.8874 39.75 13.7843 39.75L12.1905 39.75C10.3811 39.75 8.90925 38.3906 8.74988 36.5906L8.33737 31.8656C8.18738 30.1125 6.753 28.7906 4.9905 28.7906C4.053 28.7813 3.46238 27.8156 3.88425 27C4.74675 25.3594 6.153 23.2688 8.0655 20.8031C8.31862 20.475 8.45925 20.0719 8.45925 19.6594C8.028 -1.4156 42.4905 -1.83748 41.8717 19.9969C41.8717 22.4531 40.8405 24.6563 39.753 26.9813C38.5061 29.6344 37.0999 32.6344 37.0999 36.3938L37.0999 46.125C37.0999 47.1563 37.9342 48 38.9749 48C40.0155 48 40.8499 47.1656 40.8499 46.125C40.8499 46.125 40.8499 36.3844 40.8499 36.3844C40.8967 30.2719 45.678 26.2875 45.6217 19.9875L45.6217 19.9875Z" id="Hình-dạng" fill="#757575" fill-rule="evenodd" stroke="none" />
    </g>
  </g>
</svg>