<?xml version="1.0" encoding="utf-8"?>
<svg width="57px" height="57px" viewBox="0 0 57 57" version="1.1" xmlns:xlink="http://www.w3.org/1999/xlink" xmlns="http://www.w3.org/2000/svg">
  <g id="tools-(1)">
    <path d="M54.5812 42.7847L41.9519 30.1366C41.5168 29.7231 40.8341 29.7231 40.399 30.1366L37.8944 32.6412L34.9453 29.6983L42.0646 22.5414C45.0387 22.3849 49.0023 22.3974 49.1776 22.3724C49.9164 22.2597 51.3315 21.1201 56.1215 14.677C56.2546 14.4949 56.3288 14.2764 56.3344 14.0509L56.3344 11.1518C56.3335 10.759 56.1235 10.3965 55.7834 10.2001C55.4435 9.99926 55.0212 9.99926 54.6814 10.2001L49.6158 13.2056C49.1838 13.3433 47.2866 13.7879 45.6649 11.4774C43.9117 8.97283 44.6943 7.77064 45.8026 6.82516C47.4575 5.64286 49.1757 4.55174 50.9495 3.55667C51.2749 3.36662 51.4821 3.02508 51.5005 2.64876C51.5148 2.27281 51.3351 1.91585 51.0247 1.70328C50.8681 1.59684 47.0549 -0.951573 40.5054 1.58432C35.4462 3.53789 34.7386 6.11135 34.676 6.39937C34.676 6.39937 33.599 14.007 33.599 14.007L26.4359 21.1764L20.0367 14.7584C20.3141 14.0609 20.4585 13.3176 20.4625 12.5669C20.4655 10.9922 19.8388 9.48168 18.7218 8.37171C18.6694 8.31676 18.6106 8.26839 18.5465 8.2277L7.70791 1.1773C7.27616 0.891566 6.70295 0.949149 6.33666 1.31505L1.83467 5.81704C1.46877 6.18333 1.41118 6.75654 1.69692 7.1883L8.7661 18.0081C8.8087 18.0708 8.8569 18.1295 8.91011 18.1834C10.0176 19.2995 11.5267 19.9244 13.099 19.9178C13.8516 19.919 14.5975 19.7767 15.2968 19.4983L21.696 25.9163L13.8567 33.7557L6.34291 34.8201L6.26151 34.8201C5.97349 34.889 3.40629 35.5903 1.44646 40.6558C-1.05812 47.2053 1.44646 51.0122 1.57169 51.175C1.78196 51.4822 2.13242 51.6633 2.50464 51.6572C2.87919 51.6438 3.22022 51.4377 3.40629 51.1124C4.40216 49.3391 5.49323 47.621 6.67473 45.9655C7.62021 44.8573 8.84119 44.0871 11.3333 45.8215C13.65 47.4558 13.2117 49.3655 13.0614 49.7725L10.0559 54.838C9.85193 55.1755 9.84625 55.5969 10.0411 55.9398C10.2359 56.2827 10.6008 56.4935 10.9951 56.4911L13.8942 56.4911C14.121 56.487 14.3405 56.4102 14.5203 56.2719C21.0949 51.413 22.1405 50.0104 22.2282 49.3029C22.2282 49.1526 22.2282 45.1891 22.3847 42.2212L30.2053 34.4382L33.1857 37.3748L30.6811 39.8794C30.2545 40.3091 30.2545 41.0025 30.6811 41.4323L43.3293 54.0741C46.2872 57.0279 51.0785 57.0279 54.0364 54.0741L54.6062 53.5043C56.0293 52.0862 56.8293 50.1599 56.8293 48.1508C56.8293 46.1417 56.0293 44.2153 54.6062 42.7972L54.5812 42.7847ZM35.4086 15.3032C35.5748 15.1324 35.6823 14.9131 35.7154 14.6771L36.8237 6.88781C36.8925 6.71249 37.6251 5.07825 41.2943 3.6569C43.3674 2.75496 45.6561 2.46806 47.8876 2.83039C46.6694 3.53526 45.4963 4.31527 44.375 5.1659C41.3632 7.74562 42.4402 10.7073 43.8678 12.7423C46.1031 15.9168 49.1838 15.7603 50.4924 15.2468C50.5425 15.2468 54.1429 13.0992 54.1429 13.0992L54.1429 13.7253C52.0891 16.4803 49.6158 19.5422 48.7768 20.2184C47.3367 20.1433 43.3293 20.3374 41.5323 20.4376C41.2608 20.4505 41.004 20.5644 40.8122 20.7569L33.3987 28.1329L31.5202 26.2545L38.6708 19.0726C38.9886 18.8059 39.1286 18.3826 39.0324 17.979C38.9362 17.5755 38.6203 17.2608 38.2163 17.1663C37.8123 17.0717 37.3896 17.2134 37.1242 17.5323L29.9549 24.6954L27.9888 22.723L35.4086 15.3032ZM13.0803 17.7263C12.1278 17.731 11.2103 17.3676 10.5193 16.712L4.01367 6.73745L7.2571 3.49402L17.2316 10.0185C18.6103 11.4931 18.5771 13.7937 17.1565 15.228L15.7226 16.6619C15.0225 17.363 14.0711 17.7553 13.0803 17.7514L13.0803 17.7263ZM20.5565 40.9751C20.3633 41.1639 20.2492 41.4191 20.2371 41.6889C20.1369 43.4922 19.9428 47.4933 20.0242 48.9334C19.348 49.7724 16.2674 52.252 13.5249 54.3057L12.8987 54.3057C12.8987 54.3057 15.0276 50.7179 15.0652 50.6553C15.5974 49.3404 15.7602 46.2723 12.5606 44.0307C10.5256 42.6031 7.55143 41.5261 4.97797 44.5379C4.12803 45.6597 3.34804 46.8328 2.64245 48.0506C2.27958 45.8184 2.56875 43.529 3.47522 41.4572C4.90283 37.7567 6.54333 37.0742 6.70613 36.9803L14.5267 35.872C14.7635 35.8416 14.9836 35.7337 15.1528 35.5652L23.2426 27.4629L25.215 29.429L17.3068 37.3435C17.0991 37.5472 16.9821 37.8259 16.9821 38.1168C16.9821 38.4077 17.0991 38.6863 17.3068 38.89C17.5105 39.0977 17.7892 39.2147 18.0801 39.2147C18.371 39.2147 18.6496 39.0977 18.8533 38.89L26.7616 30.9818L28.64 32.8603L20.5565 40.9751ZM17.1628 18.2837L17.2755 18.1835L18.7032 16.7559L18.8033 16.6432L36.3354 34.1753L34.6949 35.8158L17.1628 18.2837ZM53.0345 51.9703L52.4647 52.5464C50.3591 54.6415 46.9564 54.6415 44.8508 52.5464L32.9854 40.6496L35.4899 38.145L38.6833 34.958L41.1879 32.4534L53.0846 44.3501C54.0924 45.3652 54.6539 46.7403 54.6445 48.1707C54.635 49.601 54.0556 50.9686 53.0345 51.9703L53.0345 51.9703ZM40.5132 38.4467C40.3095 38.2391 40.0308 38.1221 39.7399 38.1221C39.449 38.1221 39.1703 38.2391 38.9666 38.4467C38.5407 38.8743 38.5407 39.5658 38.9666 39.9933L48.3588 49.3855C48.6362 49.6629 49.0406 49.7712 49.4195 49.6697C49.7985 49.5681 50.0944 49.272 50.1959 48.893C50.2974 48.514 50.1889 48.1097 49.9114 47.8324L40.5132 38.4467Z" id="Group" fill="#DF0024" fill-rule="evenodd" stroke="none" />
  </g>
</svg>