<?xml version="1.0" encoding="utf-8"?>
<svg width="57.983093px" height="53.15411px" viewBox="0 0 57.983093 53.15411" version="1.1" xmlns:xlink="http://www.w3.org/1999/xlink" xmlns="http://www.w3.org/2000/svg">
  <g id="image-gallery">
    <path d="M42.1616 53.1541C41.7558 53.1541 41.3403 53.1034 40.9296 52.9947L3.57422 42.9909C1.01349 42.2855 -0.513291 39.6329 0.158299 37.0722L4.8715 19.5046C5.04544 18.8596 5.70737 18.4851 6.34997 18.6494C6.99498 18.8209 7.37668 19.4853 7.20516 20.1279L2.49437 37.6906C2.15857 38.971 2.92679 40.3045 4.20958 40.6597L41.5504 50.6586C42.8332 50.9968 44.1571 50.2334 44.4904 48.9579L46.3772 41.9666C46.5511 41.3216 47.213 40.9375 47.8581 41.1138C48.5031 41.2878 48.8823 41.9521 48.7108 42.5947L46.8265 49.5763C46.2588 51.7264 44.302 53.1541 42.1616 53.1541L42.1616 53.1541Z" id="Group" fill="#DF0024" fill-rule="evenodd" stroke="none" />
    <path d="M53.1497 38.6526L14.497 38.6526C11.8324 38.6526 9.66547 36.4856 9.66547 33.821L9.66547 4.83158C9.66547 2.16696 11.8324 0 14.497 0L53.1497 0C55.8143 0 57.9812 2.16696 57.9812 4.83158L57.9812 33.821C57.9812 36.4856 55.8143 38.6526 53.1497 38.6526L53.1497 38.6526ZM14.497 2.41579C13.1659 2.41579 12.0812 3.50048 12.0812 4.83158L12.0812 33.821C12.0812 35.1521 13.1659 36.2368 14.497 36.2368L53.1497 36.2368C54.4807 36.2368 55.5654 35.1521 55.5654 33.821L55.5654 4.83158C55.5654 3.50048 54.4807 2.41579 53.1497 2.41579L14.497 2.41579Z" id="Group" fill="#DF0024" fill-rule="evenodd" stroke="none" />
    <path d="M21.7471 16.9132C19.0825 16.9132 16.9155 14.7462 16.9155 12.0816C16.9155 9.41697 19.0825 7.25 21.7471 7.25C24.4117 7.25 26.5787 9.41697 26.5787 12.0816C26.5787 14.7462 24.4117 16.9132 21.7471 16.9132L21.7471 16.9132ZM21.7471 9.66579C20.416 9.66579 19.3313 10.7505 19.3313 12.0816C19.3313 13.4127 20.416 14.4974 21.7471 14.4974C23.0782 14.4974 24.1629 13.4127 24.1629 12.0816C24.1629 10.7505 23.0782 9.66579 21.7471 9.66579L21.7471 9.66579Z" id="Group" fill="#DF0024" fill-rule="evenodd" stroke="none" />
    <path d="M11.0426 36.0726C10.7334 36.0726 10.4242 35.9542 10.1874 35.7199C9.71634 35.2488 9.71634 34.483 10.1874 34.0119L21.5972 22.6022C22.9645 21.2348 25.3537 21.2348 26.7211 22.6022L30.1177 25.9988L39.5199 14.717C40.2036 13.8981 41.2086 13.4222 42.2788 13.4125L42.3053 13.4125C43.3634 13.4125 44.366 13.8715 45.0569 14.676L57.6915 29.4171C58.1263 29.922 58.0684 30.6854 57.561 31.1202C57.0561 31.5551 56.2952 31.4995 55.8579 30.9898L43.2233 16.2486C42.989 15.9781 42.6653 15.8283 42.3053 15.8283C42.0541 15.8066 41.612 15.9805 41.3777 16.2631L31.1275 28.5619C30.9101 28.8228 30.5936 28.9799 30.253 28.9943C29.9099 29.0185 29.5838 28.8832 29.3446 28.6416L25.0131 24.3101C24.5565 23.856 23.7617 23.856 23.3051 24.3101L11.8954 35.7199C11.661 35.9542 11.3518 36.0726 11.0426 36.0726L11.0426 36.0726Z" id="Group" fill="#DF0024" fill-rule="evenodd" stroke="none" />
  </g>
</svg>