<?xml version="1.0" encoding="utf-8"?>
<svg width="61px" height="60.263306px" viewBox="0 0 61 60.263306" version="1.1" xmlns:xlink="http://www.w3.org/1999/xlink" xmlns="http://www.w3.org/2000/svg">
  <g id="logo-cong-doan">
    <g id="Group" transform="translate(0 0.00160177)">
      <path d="M23.9329 42.5511C24.2464 42.41 24.5755 42.3316 24.9047 42.3003L24.9203 46.7201C25.2495 46.7985 27.8199 45.9835 29.4812 46.4694C29.7007 46.5164 29.9044 46.5947 30.1082 46.7045C30.2492 46.7828 30.453 46.9709 30.5784 47.0336C30.8291 46.9866 31.1583 46.6574 31.6598 46.5164C33.8541 45.9521 35.6721 46.8142 36.4088 46.7828C36.4401 45.482 36.4088 43.7109 36.4088 42.3473C36.7379 42.41 37.0671 42.5041 37.3805 42.6608L37.3805 47.8956C37.1298 47.8956 36.1894 47.6135 35.8916 47.5195C35.3744 47.3784 34.8571 47.2687 34.3399 47.206C33.5093 47.0649 31.9733 46.8769 31.3464 47.6449L29.8417 47.6292C29.7163 47.4254 29.8574 47.5351 29.638 47.3941C28.9327 46.9239 27.6788 47.0649 26.9108 47.1903C26.3466 47.2844 25.9234 47.3627 25.4062 47.4881L23.9956 47.7546C23.8859 47.6135 23.9329 43.2564 23.9329 42.5511L23.9329 42.5511L23.9329 42.5511ZM31.0486 45.9678C31.315 45.9678 31.6598 45.8268 31.9733 45.7641C32.6942 45.623 33.8854 45.5917 34.575 45.7641C34.7631 45.8111 35.5154 46.0148 35.6408 46.0148C35.7192 44.8707 35.6565 41.642 35.6565 40.1687C35.2803 40.1531 34.1989 40.8584 32.4905 40.9211C32.1457 40.9367 31.5501 40.874 31.2837 41.0308C30.9232 41.2345 31.0329 41.595 31.0329 42.0809C31.0329 42.9742 30.9859 45.3566 31.0486 45.9678L31.0486 45.9678L31.0486 45.9678ZM25.6727 40.2471L25.657 45.9835C25.9548 45.9835 26.4406 45.8268 26.7541 45.7641C27.5534 45.5917 28.3684 45.5917 29.1678 45.7484C29.4499 45.7954 30.0298 45.9835 30.2649 45.9835L30.2649 41.2659C29.591 40.78 29.2305 41.1248 27.8199 40.8897C26.3936 40.6389 26.4406 40.4509 25.6727 40.2471L25.6727 40.2471L25.6727 40.2471ZM34.7161 34.4167C34.7161 33.7898 34.7318 33.6644 34.9512 33.1942C35.4214 32.1911 36.3461 31.6896 37.2708 31.1253C37.8507 30.7648 40.8129 29.4953 41.4399 29.4953L41.4555 29.8245C41.5182 33.2569 39.8726 36.5012 37.0514 38.4447C36.6282 38.7425 34.8415 39.8396 34.2772 39.7769L34.2929 39.197L34.7161 39.1657L34.7161 34.4167L34.7161 34.4167L34.7161 34.4167ZM40.2017 25.3106C40.2957 25.3889 40.954 26.7995 40.8913 27.0033C41.0794 27.0816 41.048 27.2227 41.1107 27.4578C41.2048 27.8183 41.4085 28.5236 41.3458 28.8684C40.2487 28.9468 37.9448 28.8841 36.6282 28.8841L35.4214 28.8841C35.249 28.8841 35.1863 28.8841 35.1236 28.8214C34.9669 28.6019 35.0766 27.3011 35.0766 26.9249C35.0766 26.392 35.0295 25.53 35.0922 25.0441C35.3587 24.9658 38.4306 25.0128 39.1359 25.0128C40.1233 24.9971 40.0606 24.9187 40.2017 25.3106L40.2017 25.3106L40.2017 25.3106ZM26.8481 29.5894L24.2621 29.605C26.425 29.9185 29.9985 31.235 30.453 33.6957L30.7508 33.7584L30.7664 38.0529L31.2523 38.0685L31.2837 39.3537L33.2271 38.9149L33.2585 38.0999L33.807 38.0842L33.807 30.8902L37.4432 29.6677L32.992 29.6207L32.9764 24.2761L37.3335 24.2605L33.5719 23.1633L33.5406 22.6618C33.0391 22.5834 28.8073 22.6461 27.9296 22.6461C26.2212 22.6461 27.0362 22.5051 25.7197 23.2731C25.4219 23.4455 25.1084 23.6022 24.7793 23.7433C24.027 24.0724 23.8702 23.9627 23.9173 24.3075L26.7384 24.3232L26.3623 24.5112C24.9987 25.0598 24.3561 26.6114 24.9047 27.975C24.9047 27.9907 24.9203 28.0064 24.9203 28.022C25.4532 29.2916 26.7071 29.511 26.8481 29.605L26.8481 29.5894L26.8481 29.5894ZM19.4661 29.8871C19.4661 27.5675 20.4535 25.3889 21.8014 23.7119C23.8546 21.1729 27.1773 19.6682 30.4843 19.6682C31.5501 19.6682 31.5658 19.7623 32.3965 19.8406C32.6942 19.872 32.9764 19.9347 33.2585 20.0287C33.5249 20.1071 33.8541 20.1541 34.1048 20.2481C35.7975 20.9221 36.7693 21.408 38.0858 22.5991C38.2582 22.7558 38.462 22.9596 38.6187 23.1163L39.0419 23.5082C39.0889 23.5709 39.0732 23.4298 39.0889 23.6492C38.2112 23.7746 35.7819 23.2417 34.8571 22.364L34.4967 21.9879L25.9391 21.9879C25.798 22.0506 25.2808 23.0066 23.6508 23.4455C23.2903 23.5395 22.9142 23.5395 22.5694 23.6335L22.585 25.5143L23.8075 25.5457C23.8075 25.6397 23.8859 28.9624 23.7605 29.0878C23.5411 29.2445 22.8985 29.1192 22.5694 29.1505L22.585 31.1253C23.2747 31.188 23.8232 31.1253 24.4972 31.2664C26.2369 31.5955 27.24 32.0344 28.3841 33.586C29.4185 34.9966 30.0768 38.0058 29.9201 40.2941C28.6349 40.4038 26.6287 39.8239 25.6727 39.3851C25.0927 39.1186 24.5442 38.8208 24.027 38.476C23.3217 38.0215 23.1963 37.8491 22.6321 37.3632C21.9111 36.752 21.1431 35.7332 20.6729 34.8555C20.6102 34.7458 20.5162 34.6048 20.4535 34.4637C19.7639 32.8807 19.4661 31.7993 19.4661 29.8871L19.4661 29.8871L19.4661 29.8871ZM28.4311 17.8815C28.5722 17.2702 28.6819 16.6433 28.7916 16.0477C28.9327 15.3268 28.8543 15.3268 29.1521 15.3111L30.9075 15.3268L31.5344 17.7718L33.3368 18.0069L34.9669 15.9223L36.9573 16.6903L36.5185 19.0727C36.8633 19.2451 37.1924 19.4331 37.5216 19.6369C38.2269 20.0601 38.1642 20.1071 38.4933 19.9033C39.1046 19.5115 39.7785 19.0727 40.3898 18.7435C40.5622 18.8062 41.722 19.7936 41.9101 19.9974C41.8317 20.2638 41.4555 20.8437 41.2988 21.1102C41.1421 21.3766 40.7659 21.9565 40.6876 22.223C41.0167 22.7402 41.3929 23.226 41.8004 23.6962C42.537 23.6649 43.6185 23.226 44.3081 23.2417C44.4962 23.6649 45.0761 24.6366 45.1387 25.0285C44.9036 25.1538 43.2893 26.2196 43.1169 26.4077C43.1639 26.7212 43.2266 27.0346 43.3207 27.3481L43.5401 28.1788C43.5401 28.1788 43.5558 28.1944 43.5558 28.2258L46.0164 28.6176L46.0164 30.6395L43.5714 31.4545C43.4931 31.7366 43.2266 33.0845 43.2423 33.3352C43.5871 33.633 43.9789 33.8525 44.3551 34.1346L45.2171 34.7302C45.2641 34.7615 45.3112 34.7928 45.3582 34.8399C45.4522 34.9182 45.3895 34.8555 45.4836 34.9496L44.6999 36.5796L42.0198 36.2975C41.8317 36.6109 41.628 36.9087 41.4085 37.1908C41.0794 37.661 40.954 37.5827 41.2361 38.0685C41.5653 38.6328 42.0511 39.3537 42.3332 39.9336C41.9728 40.3725 41.5966 40.7957 41.1891 41.1875C40.8286 41.1091 39.4024 40.2471 38.9322 40.012C38.6814 39.8866 38.3052 40.2314 37.8821 40.4822C37.2865 40.8584 37.4589 40.9054 36.6752 40.6703L36.6909 39.5418C39.371 37.8961 42.1138 34.7928 42.1138 30.2163C42.1295 23.9627 36.7379 19.1824 30.4373 19.1824C24.795 19.1824 20.4535 22.8812 19.184 27.2697C17.7577 32.2381 20.0617 36.9714 24.121 39.4948C24.3718 39.6202 24.6069 39.7612 24.8263 39.918C24.842 40.5136 24.9674 40.9211 24.4502 41.3129L22.6477 40.2471C22.35 40.3412 21.723 40.7957 21.4409 40.9838C21.0648 41.2502 20.6729 41.4853 20.2811 41.7047C20.0773 41.5793 18.9959 40.4665 18.9019 40.2785C19.0272 39.918 19.325 39.4791 19.4974 39.15C19.6698 38.8209 19.9833 38.382 20.1087 38.0685C19.7952 37.5357 19.4347 37.0341 19.0116 36.5639L16.3471 37.0498L15.6889 35.1847C15.8299 35.0123 16.9741 34.1659 17.2405 33.9622C17.7734 33.5547 17.7891 33.8681 17.3816 31.9874C16.8643 31.8306 14.8582 31.6425 14.6074 31.4388C14.4977 31.2507 14.5447 29.8401 14.5604 29.4953L17.3189 28.7273C17.3972 28.3512 17.5853 27.4735 17.5696 27.1287L15.4538 25.7651C15.4694 25.6084 15.9553 24.1037 16.112 23.853L18.8705 24.1664C19.1996 23.7589 19.4974 23.3044 19.7482 22.8342C19.6698 22.5991 19.1683 21.9879 19.0116 21.7528C18.7765 21.408 18.51 21.0632 18.2906 20.734C18.7451 20.2011 19.231 19.6996 19.7325 19.2294L22.0835 20.4989L23.4471 19.5115L23.0709 16.9411L24.936 16.1575C25.0771 16.2515 26.5347 17.9912 26.7071 18.2106L28.4311 17.8815L28.4311 17.8815L28.4311 17.8815ZM12.8207 47.5822C13.573 47.159 14.5447 46.6574 15.4538 47.3784C15.7986 47.6762 16.018 48.068 16.0807 48.5069C16.1747 49.2278 16.018 49.51 15.8456 50.0115C15.8613 50.0115 15.8613 50.0115 15.8769 50.0272L17.1778 50.8735C17.4442 51.0303 18.3846 51.6102 18.6511 51.6572L19.8579 50.9989C25.0614 48.2718 31.3934 47.6605 37.0827 49.2278C38.4933 49.604 39.8569 50.1369 41.1578 50.7795C41.6123 51.0146 42.0041 51.2497 42.4273 51.4691C43.0229 51.5161 44.7626 50.0899 45.3582 49.7921C45.1858 49.0398 44.9977 48.0994 45.8127 47.4098C46.5337 46.7985 47.7405 47.0336 48.195 47.4254C48.2577 47.2844 48.7122 46.8769 48.8376 46.7515C49.0727 46.5164 49.2294 46.3283 49.4332 46.0932C50.1855 45.2469 52.4581 42.3943 52.5992 41.595L47.1136 40.2628C47.0352 40.3412 45.9851 42.5667 45.656 43.1153L44.6686 44.6826C44.214 45.3566 43.7125 45.9992 43.1639 46.6104C42.9132 46.9082 42.631 47.2373 42.3489 47.5195C42.1922 47.6762 41.5653 48.2404 41.5026 48.3972L42.1138 48.7733C42.0668 48.9927 41.9414 49.1808 41.7533 49.3062C41.3929 49.2122 41.2048 48.9144 40.8913 48.883C40.6876 49.0084 40.5465 49.2122 40.2957 49.3062C40.2174 49.3062 39.8569 49.0868 39.7942 48.883C39.9509 48.6793 40.1547 48.6636 40.2331 48.4285C39.1829 47.4881 38.6657 48.0367 38.7441 46.7672C39.1359 46.7672 40.3741 47.8643 40.8443 47.927C41.1891 47.7702 42.2235 46.6104 42.537 46.2343C43.8065 44.7296 44.2611 44.04 45.2641 42.316C45.4679 41.9712 46.2672 40.4352 46.3299 40.059C45.9694 39.8553 44.9037 39.7612 44.4335 39.5575C44.4805 39.3381 44.7312 39.197 44.9193 39.0089C45.4992 39.056 46.0948 39.3537 46.6434 39.3537C46.8785 38.6171 47.239 37.8178 47.4114 37.0655C47.7562 35.6862 48.0226 34.6831 48.2107 33.2412C48.3204 32.4105 48.5868 29.5894 48.4458 29.0251C47.9129 28.9781 47.7091 29.1505 47.7091 28.6333C47.7091 28.5392 47.7248 28.4452 47.7405 28.3512C47.9599 28.3355 48.3047 28.3825 48.3831 28.2885C48.5712 27.9437 48.2577 25.9062 48.2107 25.4203C48.0226 23.3671 47.0509 20.0601 46.2045 18.1479C45.8284 18.1323 45.2798 18.6338 44.7939 18.6338C44.7313 17.5053 45.3268 17.9912 45.844 17.4583C45.797 16.9724 44.073 14.214 43.7125 13.7594L42.4116 12.1451C42.2079 11.8943 41.2518 10.8599 40.9697 10.7188C41.0167 12.2705 40.5779 13.1168 39.7942 13.9789C39.2927 14.5431 37.9134 15.6872 37.2865 15.8596C37.2238 15.0603 37.2865 14.6215 36.879 14.0729C35.3744 12.0354 30.2179 13.6654 28.2587 14.308L25.0928 15.4521C24.7636 15.1387 24.1367 13.9005 23.8232 13.587C23.4471 13.3519 23.1806 13.1325 22.8045 12.8817C22.491 12.678 22.0365 12.3645 21.77 12.1608L19.7169 10.7502C19.4347 10.8756 18.463 11.957 18.2279 12.2235C17.9928 12.4899 17.7577 12.7564 17.5383 13.0385C17.3502 13.2892 17.1151 13.6184 16.9114 13.8692C16.4098 14.4804 14.8268 17.1448 14.7485 17.6934L16.0023 18.1479L16.0807 18.8219C15.5635 18.8062 14.8425 18.3517 14.4193 18.336C13.9805 18.9473 13.1341 22.0506 12.9304 22.9126C12.6326 24.1978 12.1781 27.0503 12.2564 28.3355L13.0401 28.3668L13.0401 29.0408L12.2564 29.0565C12.1467 29.9185 12.3034 31.1723 12.3505 32.0187C12.4288 33.2882 12.9147 35.937 13.3065 37.1125C13.573 37.9118 13.8237 38.6171 14.0745 39.3537C14.7485 39.4008 15.5791 38.8209 15.9083 39.1343C16.1277 39.3381 16.2061 39.4008 16.2374 39.5888L14.4193 40.012C14.435 40.4195 15.25 41.9712 15.4694 42.3473C16.2844 43.7579 17.1621 45.1528 18.2279 46.3283C18.4944 46.6261 19.6071 47.8643 19.9049 47.974C20.3281 47.8486 21.7544 46.7358 22.0522 46.7358L22.0522 47.4411C21.8014 47.6292 21.5349 47.8016 21.2685 47.9583C21.1274 48.0523 20.5789 48.3501 20.4848 48.4285C20.5789 48.6636 20.767 48.6323 20.8923 48.8674C20.814 49.0711 20.6572 49.2278 20.4692 49.2905C20.14 49.2122 20.1087 48.9927 19.8109 48.8674C19.5131 48.9457 19.3407 49.2278 18.9802 49.2749C18.8862 49.1181 18.7295 48.9614 18.6511 48.8047C18.8078 48.5852 19.1056 48.5696 19.231 48.3501C19.1996 48.2874 18.4944 47.6135 18.369 47.4724C16.6606 45.6857 15.2657 43.6482 14.2156 41.4226C14.0118 41.0464 13.8394 40.6546 13.6827 40.2471C13.2595 40.2471 10.1405 41.0464 9.49795 41.2032C9.23151 41.2659 8.35381 41.4383 8.16573 41.5323C8.1814 41.9085 9.92113 44.3221 10.2659 44.714C11.175 45.7797 11.316 46.0462 12.4602 47.1903L12.8207 47.5822L12.8207 47.5822Z" id="Hình-dạng" fill="#FFCB05" fill-rule="evenodd" stroke="none" />
      <path d="M52.4738 48.8987C52.6932 49.3062 52.944 50.6384 52.9283 51.2654C52.897 52.5976 51.8625 52.6916 50.9378 51.0773C50.6244 50.5287 50.593 50.6071 51.0162 50.2152C51.267 49.9802 52.2544 48.9614 52.4738 48.8987L52.4738 48.8987ZM10.6578 50.5601C10.5324 51.0616 9.35688 52.911 8.65159 52.0647C8.15005 51.4691 8.54188 49.4629 8.87102 48.8674C9.16881 49.0868 9.41958 49.3846 9.76439 49.698C10.0779 49.9645 10.3756 50.2466 10.6578 50.5601L10.6578 50.5601L10.6578 50.5601ZM38.415 4.52795C38.8538 3.80698 40.4211 3.27409 40.5935 3.11736C40.3584 2.66284 39.0575 1.70677 38.4306 1.50302C36.5498 0.860423 35.1706 2.22399 33.8384 2.27101C30.7351 2.38072 31.1426 -1.00468 23.3844 2.12995C22.5224 2.47476 21.6133 2.89794 20.6729 3.19573C18.9332 3.74429 19.0586 3.58756 17.3815 3.69727L18.8235 5.9542C18.4787 6.00122 16.6449 7.11402 16.2374 7.38046C15.4224 7.89768 14.6231 8.47759 13.8708 9.08884C11.269 11.2047 9.99949 12.8817 8.21274 15.5148C7.17832 17.0351 6.20658 19.2294 5.57965 21.0161C5.21917 22.0662 4.93705 23.1477 4.7333 24.2448C3.49512 30.326 4.56089 35.984 7.09995 41.1091C7.28803 41.501 7.57014 42.0182 7.80524 42.41C8.07169 42.8489 8.33813 43.225 8.60457 43.6639C9.13746 44.4789 9.71737 45.2469 10.36 45.9835C11.1436 46.8925 11.7706 47.4411 12.3348 48.0837C12.1154 48.5539 11.943 48.789 11.8959 49.4473C11.8332 50.4347 11.6452 51.5318 11.222 52.4095C11.128 52.6132 11.0182 52.8013 10.8929 52.9894C10.7831 53.1618 10.5794 53.3812 10.5324 53.5223L14.9365 56.3435C15.2187 56.5002 15.4851 56.6569 15.8926 56.4845C16.159 56.3591 16.3941 56.1711 16.5509 55.936C16.3785 55.7165 15.0619 54.9329 14.7171 54.6978C14.4193 54.494 13.0244 53.632 12.899 53.4753C13.0558 53.1148 13.8551 52.2998 14.1842 51.955L15.5008 50.5287C15.5164 50.7011 15.8926 50.8735 16.0337 50.9676L17.3189 51.7512C17.5226 51.8609 17.7734 52.0804 17.9928 52.1117C17.6166 52.3938 16.6763 52.9737 16.4568 53.2715L22.2402 58.6944C22.4753 58.6788 23.7762 58.0832 24.1053 57.9421C26.2055 57.1428 28.4311 56.7196 30.6881 56.7196C33.2741 56.7039 35.0766 57.0331 37.3335 57.9108C37.6783 58.0518 38.8538 58.6474 39.1359 58.6788C39.4494 58.5064 40.2644 57.66 40.6249 57.3465C41.0167 56.9861 44.7939 53.4909 44.9663 53.2558C44.7156 52.8797 43.4774 52.1901 43.258 51.9393C43.5558 51.6885 45.6246 50.5444 45.7187 50.3563C45.9381 50.5757 46.1889 50.9205 46.3769 51.14C46.8315 51.6258 48.2734 53.0207 48.4301 53.4596C48.2264 53.7417 45.0134 55.6068 44.7626 55.9203C45.0604 56.4688 45.75 56.6883 46.2986 56.3905C46.3299 56.3748 46.3613 56.3591 46.3769 56.3435C46.8628 56.0457 50.6244 53.6947 50.7968 53.5066C50.6714 53.1461 49.9974 52.723 49.6213 50.8108C49.3392 49.3689 49.6213 48.8203 48.7436 47.7859L48.8063 47.7546C49.1981 47.4881 50.546 45.8738 50.8281 45.5446C51.6588 44.5572 52.3954 43.4915 53.038 42.363L54.1665 40.2314C56.7526 34.7928 57.3795 27.8183 55.5771 22.0035C55.4047 21.455 55.2479 20.9064 55.0442 20.3735C54.668 19.3391 54.2292 18.3517 53.712 17.3799C53.2418 16.4396 52.6932 15.5305 52.1133 14.6528C49.4175 10.8286 45.9538 7.69392 41.6123 5.70343C41.1264 5.49968 38.9008 4.51227 38.415 4.52795L38.415 4.52795L38.415 4.52795ZM0 27.3324L0 29.7461C0.0156732 29.7618 0.219424 32.0187 0.250771 32.2695C0.34481 33.0531 0.470195 33.8211 0.6426 34.5891C1.17549 36.9087 2.398 40.4352 3.71454 42.4727C3.90262 42.7705 4.05935 43.0369 4.24743 43.3504C4.40416 43.6168 4.63926 43.9146 4.79599 44.1654C5.46994 45.2469 6.37898 46.297 7.19399 47.253C8.10303 48.3188 7.85226 47.6135 7.69553 49.1181C7.1313 54.1649 8.25976 53.7731 10.1092 54.6978C11.0182 55.1523 12.8363 55.983 13.6984 56.5472C13.9335 56.7039 15.2657 57.519 15.4224 57.5503C15.8926 57.2368 16.9897 55.9987 17.3345 55.8733C17.8831 56.1711 20.5005 58.9452 21.0804 59.6348C21.2528 59.8386 21.3469 60.058 21.5663 60.2147C21.676 60.2461 22.8672 59.3684 23.4001 59.1333C24.074 58.8041 24.795 58.5377 25.5159 58.334C27.2086 57.8951 28.964 57.6914 30.7194 57.7227C32.3338 57.7227 34.434 58.0048 35.8132 58.4593C36.5342 58.6788 37.2395 58.9452 37.9134 59.2587C38.2582 59.4311 38.556 59.5408 38.8851 59.7445C39.1829 59.9326 39.4964 60.1207 39.8099 60.2618C39.9823 60.152 40.6562 59.2587 40.7503 59.1019C41.0324 58.7101 41.3458 58.334 41.6906 57.9735C41.9571 57.6914 43.5871 55.9203 43.8692 55.9673C43.9789 55.983 45.3425 57.3465 45.6246 57.5346C45.844 57.4876 46.4396 57.0801 46.6434 56.9547L49.778 55.262C50.546 54.9015 51.2199 54.5724 51.9722 54.2433C52.3954 54.0552 52.6619 53.9298 52.9283 53.585C53.7747 52.5192 53.5709 50.7952 53.4142 49.4943C53.3672 49.0398 53.2261 48.5225 53.1791 48.1307C53.1477 47.8643 53.3358 47.7702 53.4769 47.6448C54.2449 46.9082 56.0159 44.5729 56.5802 43.6168C56.7682 43.3034 57.0033 42.9429 57.1914 42.6138C58.6647 40.1217 59.7305 37.3946 60.3574 34.5734C61.2508 30.3573 61.1411 27.1287 60.3731 22.9753C60.0283 21.1415 59.4327 19.6212 58.8371 18.0696L57.8027 15.891C57.3795 15.1857 57.0817 14.5274 56.6429 13.8692C56.5488 13.7124 56.4234 13.587 56.3137 13.399L55.3106 11.9884C54.8248 11.3614 54.4016 10.8286 53.8844 10.2487C51.9722 8.05441 49.3548 5.93853 46.8628 4.44958C43.2736 2.30235 38.8538 0.688016 34.6691 0.202147C31.6598 -0.14266 28.6035 -0.0172749 25.5473 0.358881C22.6791 0.766384 20.0303 1.62841 17.4129 2.75688C16.5979 3.10169 14.2312 4.33987 13.4319 4.9041C13.2438 5.04516 13.0871 5.1392 12.9147 5.24891C11.8176 5.89151 9.99949 7.41181 9.01207 8.33653C6.77081 10.4367 4.3258 13.5243 2.9779 16.3298C1.78674 18.8062 0.815005 21.4236 0.391829 24.2291C0.329137 24.6836 0.250771 25.2949 0.156732 25.7338C0.0783659 26.0786 0.125385 26.8622 0.0313463 27.2384C0.0313463 27.2541 0.0156732 27.2854 0.0156732 27.2854C0.0156732 27.2854 0.0156732 27.3167 0 27.3324L0 27.3324Z" id="Hình-dạng" fill="#FFCB05" fill-rule="evenodd" stroke="none" />
      <path d="M28.9327 6.48713C29.1051 6.25204 29.3715 5.24895 29.4969 4.88847C29.638 4.48097 29.8417 3.69731 30.0298 3.33683C30.1865 3.65029 30.453 4.51231 30.5784 4.90414C30.7508 5.43703 30.9232 5.96992 31.1113 6.48713L34.481 6.50281C34.4026 6.64387 32.0517 8.28955 31.7852 8.44628C31.8322 8.9008 32.7413 11.095 32.7883 11.6123C32.4278 11.4555 31.7852 10.9226 31.4247 10.6562C31.0172 10.3584 30.4843 9.93523 30.0768 9.71581C29.8261 9.80985 28.9484 10.4838 28.6819 10.6719C28.3685 10.8913 27.5848 11.5026 27.3027 11.6123C27.4437 10.954 28.3058 8.85378 28.2901 8.44628C27.8512 8.14849 25.8451 6.75358 25.5943 6.48713L28.9327 6.48713L28.9327 6.48713ZM18.8705 5.95425L19.231 6.50281L20.8924 8.99484L21.1901 9.48071L22.8672 12.0354C23.2433 12.537 23.5881 13.0699 23.9016 13.6341C24.2151 13.9319 24.8577 15.1701 25.1711 15.4992L28.3371 14.3551C30.2963 13.7125 35.4527 12.0825 36.9574 14.12C37.3649 14.6842 37.3178 15.1231 37.3649 15.9067C37.9918 15.7343 39.371 14.5902 39.8726 14.0259C40.6562 13.1639 41.0794 12.3176 41.0481 10.7659C40.907 10.0293 40.8757 9.9509 40.5622 9.41802L39.6531 8.55599C39.324 8.27388 39.0732 8.03878 38.7598 7.74099C38.1485 7.12973 37.5686 5.89155 38.0388 5.20193C38.1015 4.95116 38.2269 4.73174 38.415 4.54366C38.8538 3.82269 40.4211 3.2898 40.5935 3.13307C40.3584 2.67855 39.0576 1.72249 38.4306 1.51874C36.5499 0.876136 35.1706 2.2397 33.8384 2.28672C30.7351 2.39643 31.1426 -0.988972 23.3844 2.14566C22.5224 2.49047 21.6133 2.91365 20.6729 3.21144C18.9332 3.76 19.0586 3.60327 17.3816 3.71298L18.8705 5.95425L18.8705 5.95425Z" id="Hình-dạng" fill="#ED1C24" fill-rule="evenodd" stroke="none" />
      <path d="M28.4468 17.8815L26.7228 18.2263C26.5504 17.9912 25.0928 16.2515 24.9517 16.1731L23.0866 16.9568L23.4627 19.5272L22.0992 20.5146L19.7482 19.2451C19.231 19.7153 18.7451 20.2168 18.3063 20.7497C18.51 21.0945 18.7765 21.4393 19.0272 21.7684C19.184 22.0035 19.6855 22.6148 19.7639 22.8499C19.5131 23.3201 19.2153 23.7589 18.8862 24.1821L16.1277 23.8686C15.971 24.1194 15.4851 25.624 15.4694 25.7808L17.554 27.113C17.5696 27.4578 17.3816 28.3355 17.3032 28.7117L14.5447 29.4796C14.5447 29.8245 14.482 31.235 14.5917 31.4231C14.8425 31.6112 16.8487 31.8149 17.3659 31.9717C17.7734 33.8525 17.7577 33.539 17.2248 33.9465C16.9584 34.1502 15.8142 34.9966 15.6732 35.169L16.3314 37.0341L18.9959 36.5482C19.4034 37.0184 19.7795 37.52 20.093 38.0529C19.9676 38.3663 19.6698 38.8209 19.4818 39.1343C19.2937 39.4478 19.0116 39.9023 18.8862 40.2628C18.9802 40.4509 20.046 41.5637 20.2654 41.689C20.6729 41.4696 21.0491 41.2345 21.4252 40.9681C21.7073 40.7957 22.3343 40.3412 22.6321 40.2314L24.4345 41.2972C24.9517 40.9054 24.8263 40.4979 24.8106 39.9023C24.5912 39.7456 24.3561 39.6045 24.1053 39.4791C20.046 36.9557 17.742 32.2224 19.1683 27.254C20.4221 22.8656 24.7793 19.1667 30.4216 19.1667C36.7222 19.1667 42.1138 23.9627 42.0981 30.2006C42.0981 34.7772 39.3553 37.8805 36.6752 39.5261L36.6596 40.6546C37.4432 40.8897 37.2708 40.8427 37.8664 40.4665C38.2739 40.2001 38.6657 39.871 38.9165 39.9963C39.3867 40.2158 40.8129 41.0935 41.1734 41.1718C41.5809 40.78 41.9728 40.3568 42.3176 39.918C42.0511 39.3381 41.5496 38.6171 41.2204 38.0529C40.9383 37.567 41.0637 37.661 41.3928 37.1752C41.6123 36.8931 41.816 36.5953 42.0041 36.2818L44.6842 36.5639L45.4679 34.9339C45.3895 34.8242 45.4522 34.9026 45.3425 34.8242C45.2798 34.7772 45.2485 34.7458 45.2014 34.7145L44.3394 34.1189C43.9633 33.8525 43.5714 33.6174 43.2266 33.3196C43.2109 33.0688 43.4774 31.7209 43.5557 31.4388L46.0008 30.6238L46.0008 28.5863L43.5401 28.1944C43.5401 28.1631 43.5244 28.1317 43.5244 28.1474L43.305 27.3167C43.2266 27.0033 43.1482 26.6898 43.1012 26.3764C43.2736 26.1883 44.888 25.1225 45.1231 24.9971C45.0604 24.6053 44.4648 23.6335 44.2924 23.2104C43.6028 23.1947 42.5213 23.6335 41.7847 23.6649C41.3772 23.1947 41.001 22.7088 40.6719 22.1916C40.7503 21.9408 41.1264 21.3453 41.2831 21.0788C41.4399 20.8124 41.8004 20.2325 41.8944 19.966C41.722 19.7623 40.5465 18.7749 40.3898 18.7122C39.7628 19.057 39.0889 19.4802 38.4776 19.872C38.1485 20.0914 38.2269 20.0287 37.5059 19.6055C37.1768 19.4018 36.8476 19.2137 36.5028 19.0413L36.9417 16.659L34.9512 15.891L33.3212 17.9755L31.5188 17.7404L30.8918 15.2954L29.1364 15.2797C28.8386 15.2954 28.917 15.2954 28.7759 16.0164C28.6976 16.6433 28.5722 17.2702 28.4468 17.8815L28.4468 17.8815Z" id="Hình-dạng" fill="#000002" fill-rule="evenodd" stroke="none" />
      <path d="M23.5254 54.259C23.7919 54.1336 24.5285 53.7418 24.8106 53.7104C25.9391 55.8106 22.7731 57.0801 21.77 56.4532C21.3939 56.2181 21.0961 55.5442 20.908 55.0426C20.3751 53.6634 20.1244 52.7857 21.4409 51.9864C21.8484 51.7356 22.5067 51.4378 23.1336 51.4692C23.7135 51.5318 24.1994 51.955 24.3248 52.5193C24.1524 52.6446 23.2903 53.0521 23.0866 53.0678C22.9142 52.8954 22.8828 52.6133 22.6164 52.5193C22.35 52.4722 22.0835 52.5663 21.9111 52.8014C21.6917 53.1462 22.1149 54.0396 22.2402 54.3687C22.397 54.7762 22.6477 55.5755 23.0866 55.5755C23.3374 55.5599 23.5725 55.4031 23.6822 55.168C23.7605 54.8702 23.5725 54.5568 23.5411 54.2747L23.5254 54.259L23.5254 54.259ZM39.5904 56.5002C39.3083 56.4846 38.4463 56.1398 38.1485 56.0144L37.8664 52.9268C37.694 53.8358 37.4589 54.7448 37.1611 55.6225C36.7536 55.5285 36.3461 55.4031 35.9543 55.215C35.9543 54.9016 37.0827 51.3594 37.2551 50.7325C37.7567 50.8579 38.2426 51.0146 38.6971 51.2341L38.9792 54.306C39.1046 53.8515 39.2143 53.3969 39.3083 52.9268C39.418 52.4722 39.5434 52.0334 39.6845 51.5945C39.9509 51.5945 40.5622 51.8923 40.8756 51.9707C40.8913 52.3155 39.7472 56.0457 39.5904 56.5002L39.5904 56.5002L39.5904 56.5002ZM25.9548 50.5601C25.9078 51.1087 26.1742 51.908 26.0958 52.3939L25.5943 52.4722L25.704 53.2245L26.2369 53.1932L26.4877 55.215C27.0362 55.215 28.87 54.9016 29.3402 54.7292C30.3276 54.353 30.3119 53.5694 30.1709 52.3939C30.0455 51.3594 29.9828 50.4034 28.9954 50.2466C28.5252 50.1839 26.2369 50.4034 25.9548 50.5601L25.9548 50.5601L25.9548 50.5601ZM31.3777 49.9489C31.8636 49.9489 32.3494 49.9959 32.8353 50.0899C32.8823 50.1683 32.851 50.0899 32.898 50.231L33.2585 53.538C33.3839 52.9894 33.5563 52.4409 33.7443 51.908C33.9324 51.3751 34.1048 50.7952 34.2929 50.2466L35.7819 50.4034C35.7819 50.5601 34.1048 54.6978 33.9481 54.9172C33.3839 54.9172 32.8196 54.8546 32.2554 54.7292L31.3777 49.9489L31.3777 49.9489L31.3777 49.9489ZM18.6511 51.6729L17.9771 52.1274C17.601 52.4095 16.6606 52.9894 16.4412 53.2872L22.2246 58.7102C22.4597 58.6945 23.7605 58.0989 24.0897 57.9578C26.1899 57.1585 28.4155 56.7353 30.6724 56.7353C33.2585 56.7197 35.0609 57.0488 37.3178 57.9265C37.6626 58.0676 38.8381 58.6631 39.1202 58.6945C39.4337 58.5221 40.2487 57.6757 40.6092 57.3623C41.001 57.0018 44.7783 53.5067 44.9507 53.2716C44.6999 52.8954 43.4617 52.2058 43.2423 51.955C42.9445 51.861 42.6781 51.5789 42.4273 51.4692C42.0041 51.2654 41.5966 51.0146 41.1578 50.7795C39.8412 50.1369 38.4776 49.6197 37.0671 49.2279C31.3934 47.6606 25.0614 48.2718 19.8422 50.999L18.6511 51.6729L18.6511 51.6729Z" id="Hình-dạng" fill="#00529F" fill-rule="evenodd" stroke="none" />
      <path d="M19.4661 29.8871C19.4661 31.7993 19.7482 32.8807 20.4535 34.4951C20.5162 34.6361 20.6102 34.7772 20.6729 34.8869C21.1431 35.7646 21.9111 36.7833 22.6321 37.3946C23.1963 37.8805 23.3374 38.0529 24.027 38.5074C24.5599 38.8522 25.1084 39.15 25.6727 39.4164C26.6444 39.8553 28.6506 40.4352 29.9201 40.3255C30.0925 38.0529 29.4342 35.0279 28.3841 33.6174C27.24 32.0657 26.2369 31.6425 24.4972 31.2977C23.8232 31.1723 23.2747 31.235 22.585 31.1567L22.5694 29.1818C22.8985 29.1505 23.5411 29.2759 23.7605 29.1192C23.8859 29.0094 23.8076 25.6867 23.8076 25.577L22.585 25.5457L22.5694 23.6649C22.8985 23.5709 23.2903 23.5709 23.6508 23.4768C25.2808 23.038 25.798 22.0819 25.9391 22.0192L34.4967 22.0192L34.8571 22.411C35.7975 23.2731 38.2269 23.8216 39.0889 23.6962C39.0732 23.4925 39.0889 23.6179 39.0419 23.5552L38.6187 23.1633C38.462 23.0066 38.2582 22.7872 38.0858 22.6461C36.7693 21.455 35.7975 20.9691 34.1048 20.2952C33.8384 20.1854 33.5249 20.1541 33.2585 20.0757C32.9764 19.9817 32.6786 19.919 32.3965 19.8877C31.5658 19.7936 31.5344 19.7153 30.4843 19.7153C27.1773 19.7153 23.8546 21.2199 21.8014 23.7589C20.4535 25.3733 19.4661 27.5675 19.4661 29.8871L19.4661 29.8871Z" id="Hình-dạng" fill="#00ABE3" fill-rule="evenodd" stroke="none" />
      <path d="M7.85225 40.8897C7.28802 40.2628 6.06551 36.6579 5.7834 35.6235C5.36022 34.0405 4.81166 30.7021 4.99974 29.0721L11.5668 29.0721L11.7235 32.0344C11.8959 33.7897 12.2094 35.5138 12.6796 37.2065L13.2438 38.9619C13.3379 39.15 13.4006 39.3694 13.4006 39.5888C12.4915 39.8082 11.5825 40.0277 10.6264 40.2471C10.1719 40.3568 9.74871 40.4822 9.26284 40.5762C8.88668 40.6703 8.21274 40.9054 7.85225 40.8897L7.85225 40.8897L7.85225 40.8897ZM5.03108 28.3825C4.93704 26.2353 5.61099 23.5082 6.12821 21.7057C6.3633 20.8907 7.08427 19.0099 7.50744 18.2576C7.61716 18.0539 7.72687 17.8188 7.83658 17.615C8.07168 17.1605 8.2911 16.8 8.5262 16.3925C8.87101 16.3769 10.6578 17.0508 11.175 17.2232C12.037 17.521 12.9147 17.8188 13.7767 18.1009C13.7767 18.4457 13.4946 18.9629 13.3849 19.2921C12.9617 20.5146 12.946 20.3735 12.6326 21.6587C12.2878 22.9282 12.037 24.2134 11.8646 25.5143C11.7079 26.8779 11.7392 27.113 11.6452 28.3825L5.03108 28.3825L5.03108 28.3825L5.03108 28.3825ZM8.98072 15.7656C9.95246 16.032 13.6357 17.4426 14.0902 17.4583C14.3723 17.0821 15.344 14.7155 16.9427 12.772L19.1213 10.3584C18.9175 10.1546 18.6824 9.9822 18.4316 9.84114C18.0398 9.59037 16.3471 8.33652 16.2061 8.33652C15.7672 8.47758 14.5447 9.52768 14.1059 9.87249C12.7736 10.9696 11.5668 12.2078 10.4853 13.5557L9.32553 15.1073C9.20015 15.2954 9.01207 15.5462 8.98072 15.7656L8.98072 15.7656L8.98072 15.7656ZM12.3191 48.0837C12.4915 47.927 12.6639 47.7546 12.8207 47.5665L12.5229 47.2373C11.3787 46.0932 11.2377 45.8268 10.3286 44.761C9.9838 44.3691 8.24408 41.9555 8.22841 41.5793C8.41649 41.4853 9.29419 41.3129 9.56063 41.2502C10.2032 41.0935 13.3222 40.2941 13.7454 40.2941C13.9021 40.7016 14.0745 41.0935 14.2783 41.4696C15.3284 43.6952 16.7233 45.7484 18.4316 47.5195C18.557 47.6605 19.2623 48.3345 19.2937 48.3972C19.1683 48.6166 18.8705 48.6323 18.7138 48.8517C18.7921 49.0084 18.9489 49.1651 19.0429 49.3219C19.4034 49.2749 19.5758 48.9927 19.8736 48.9144C20.1714 49.0398 20.187 49.2435 20.5319 49.3375C20.7356 49.2592 20.8923 49.1025 20.955 48.9144C20.8296 48.6793 20.6416 48.6949 20.5475 48.4755C20.6259 48.3972 21.1744 48.0837 21.3312 48.0053C21.5976 47.8486 21.8641 47.6762 22.1148 47.4881L22.1148 46.7828C21.8171 46.7671 20.4065 47.8956 19.9676 48.021C19.6698 47.8956 18.557 46.6731 18.2906 46.3753C17.2091 45.1998 16.3314 43.8049 15.5321 42.3943C15.3127 42.0025 14.482 40.4665 14.482 40.059L16.3001 39.6359C16.2844 39.4634 16.1904 39.4008 15.971 39.1813C15.6418 38.8679 14.8111 39.4478 14.1372 39.4008C13.8864 38.6484 13.6357 37.9432 13.3692 37.1595C12.9774 35.984 12.4915 33.3352 12.4131 32.0657C12.3661 31.2037 12.2094 29.9655 12.3191 29.1035L13.1028 29.0878L13.1028 28.4139L12.3191 28.3825C12.2407 27.113 12.6796 24.2448 12.9931 22.9596C13.1968 22.0976 14.0432 18.9943 14.482 18.383C14.9209 18.3987 15.6262 18.8532 16.1434 18.8689L16.065 18.1949L14.8111 17.7404C14.8895 17.1919 16.4725 14.5118 16.974 13.9162C17.1778 13.6654 17.4129 13.3206 17.601 13.0855C17.8204 12.7877 18.0398 12.5369 18.2906 12.2705C18.5414 12.004 19.4974 10.9226 19.7795 10.7972L21.8327 12.2078C22.0992 12.4115 22.5537 12.7407 22.8672 12.9288C23.259 13.1795 23.5254 13.399 23.8859 13.6341C23.5725 13.0855 23.2276 12.5526 22.8515 12.0354C22.6791 11.9884 21.8327 11.3771 21.5506 11.1577C21.2685 10.9383 20.4535 10.4681 20.3281 10.2643C20.4221 10.1076 20.8296 9.82547 21.0021 9.68441C21.1745 9.54335 21.1588 9.63739 21.1588 9.46499L20.861 8.97912C20.4535 9.02614 20.0617 9.66874 19.6542 9.77845C19.4661 9.77845 16.8957 7.89767 16.8957 7.882C17.0054 7.6469 18.6197 6.84757 18.9645 6.67516C19.1213 6.5968 19.1526 6.61247 19.2153 6.47141L18.8548 5.92285C18.51 5.96987 16.6763 7.08267 16.2688 7.34911C15.4537 7.86632 14.6544 8.44623 13.9021 9.05749C11.269 11.2047 9.99948 12.8974 8.19706 15.5148C7.16263 17.0351 6.1909 19.2294 5.56397 21.0161C5.20349 22.0662 4.92137 23.1477 4.71762 24.2448C3.47944 30.326 4.54521 35.984 7.08427 41.1091C7.27235 41.501 7.55446 42.0182 7.78956 42.41C8.05601 42.8488 8.32245 43.225 8.58889 43.6639C9.12178 44.4789 9.70169 45.2468 10.3443 45.9835C11.1436 46.8925 11.7549 47.4411 12.3191 48.0837L12.3191 48.0837Z" id="Hình-dạng" fill="#FFFEF4" fill-rule="evenodd" stroke="none" />
      <path d="M53.0694 40.8898C52.7089 40.9525 50.6714 40.4039 50.2012 40.2785C49.5116 40.0904 47.9442 39.777 47.4114 39.5889C47.4114 39.3851 48.0226 37.5514 48.1323 37.2066C48.6182 35.5139 48.9473 33.7898 49.0884 32.0344C49.1041 31.768 49.1981 28.9938 49.2765 29.1035L49.9974 29.0565C51.361 29.0565 55.0285 28.9938 55.8749 29.0722C56.0159 30.1223 55.7495 31.5172 55.6868 32.4733C55.5614 34.4324 54.8248 36.5326 54.1978 38.335C54.0411 38.7739 53.8687 39.2127 53.665 39.6202C53.5552 39.824 53.4612 40.0121 53.3672 40.2158C53.2888 40.4666 53.1791 40.686 53.0694 40.8898L53.0694 40.8898L53.0694 40.8898ZM46.9882 17.8032L49.4018 16.7531C49.684 16.612 51.6744 15.7186 51.8625 15.703C52.6775 16.4553 54.1665 20.0915 54.5897 21.2669C54.9501 22.3484 55.2479 23.4455 55.4517 24.574C55.6084 25.3733 55.8749 27.5832 55.8435 28.3826L49.2451 28.3826C49.1354 27.4265 49.104 26.3921 48.9787 25.4674C48.6965 23.2731 48.148 21.1102 47.3643 19.0414C47.2703 18.7906 46.9255 18.0696 46.9882 17.8032L46.9882 17.8032L46.9882 17.8032ZM43.1169 11.8317C44.0103 12.9602 44.214 13.2109 44.9977 14.3707C45.7813 15.5306 46.2515 16.6904 46.5807 17.1762C46.8158 17.2076 47.0979 17.0509 47.2703 16.9568C47.9442 16.5963 51.1886 15.3268 51.455 15.0604C51.2199 14.4648 49.104 12.1138 48.6965 11.6906C48.195 11.1734 45.9537 9.07321 45.3738 8.86946C45.2014 8.97917 44.4334 10.0136 44.214 10.3271C43.9946 10.5778 43.1482 11.6593 43.1169 11.8317L43.1169 11.8317L43.1169 11.8317ZM38.0388 5.18627C38.603 5.21761 41.1107 6.29906 41.6279 6.56551C42.7094 7.09839 43.7438 7.69397 44.7312 8.38359C44.6685 8.63436 44.3708 8.94783 44.1983 9.18292C43.9946 9.44937 42.7407 11.1577 42.5997 11.2518C42.3489 11.0637 40.7346 9.371 40.5465 9.40235C40.86 9.95091 40.8913 10.0293 41.0324 10.7502C41.3145 10.907 42.2705 11.9257 42.4743 12.1765L43.7752 13.7908C44.1357 14.2454 45.8597 17.0038 45.9067 17.4897C45.3738 18.0069 44.7939 17.5367 44.8566 18.6652C45.3425 18.6652 45.9067 18.1637 46.2672 18.1793C47.1136 20.0758 48.0696 23.3828 48.2734 25.4517C48.3204 25.9376 48.6339 27.9907 48.4458 28.3199C48.3517 28.4139 48.0226 28.3669 47.8032 28.3826C47.7875 28.4766 47.7718 28.5706 47.7718 28.6647C47.7718 29.1819 47.9756 28.9938 48.5085 29.0565C48.6495 29.6207 48.3831 32.4419 48.2734 33.2726C48.0696 34.7145 47.8032 35.7176 47.474 37.0968C47.286 37.8492 46.9411 38.6485 46.706 39.3851C46.1575 39.3851 45.5619 39.0873 44.982 39.0403C44.7939 39.2127 44.5275 39.3695 44.4961 39.5889C44.9663 39.8083 46.0164 39.8867 46.3926 40.0904C46.3299 40.4666 45.5306 42.0026 45.3268 42.3474C44.3237 44.0714 43.8849 44.761 42.5997 46.2657C42.2862 46.6261 41.2518 47.786 40.907 47.9584C40.4368 47.8957 39.1986 46.7985 38.8068 46.7985C38.7441 48.0681 39.2613 47.5195 40.2957 48.4599C40.2174 48.695 39.9979 48.7107 39.8569 48.9144C39.9196 49.1182 40.2801 49.3533 40.3584 49.3376C40.6092 49.2279 40.7659 49.0398 40.954 48.9144C41.2675 48.9458 41.4555 49.2436 41.816 49.3376C42.0041 49.2122 42.1295 49.0241 42.1765 48.8047L41.5653 48.4286C41.6279 48.2561 42.2549 47.6919 42.4116 47.5509C42.6937 47.2844 42.9758 46.9396 43.2266 46.6418C43.7595 46.0306 44.261 45.388 44.7156 44.714L45.703 43.1467C46.0321 42.5825 47.0822 40.3569 47.1606 40.2942L52.6462 41.6264C52.4894 42.4257 50.2325 45.2782 49.4802 46.1246C49.2764 46.3597 49.1197 46.5478 48.8846 46.7829C48.7592 46.9083 48.3204 47.3158 48.242 47.4568C48.4458 47.5665 48.6182 47.6919 48.7749 47.8487L48.8376 47.8173C49.2294 47.5509 50.5773 45.9365 50.8594 45.6074C51.6901 44.62 52.4268 43.5542 53.0694 42.4257L54.1978 40.2942C56.7839 34.8556 57.4108 27.881 55.6084 22.0663C55.436 21.5177 55.2793 20.9692 55.0755 20.4363C54.6994 19.4018 54.2605 18.4144 53.7433 17.4427C53.2731 16.5023 52.7402 15.5933 52.1446 14.7156C49.4488 10.8913 45.9851 7.75667 41.6436 5.76617C41.1577 5.54675 38.9165 4.55934 38.4463 4.57501C38.2425 4.71607 38.1015 4.93549 38.0388 5.18627L38.0388 5.18627L38.0388 5.18627Z" id="Hình-dạng" fill="#FFFEF4" fill-rule="evenodd" stroke="none" />
      <path d="M46.9882 17.8031C46.9255 18.0539 47.2703 18.7749 47.3643 19.0256C48.148 21.0945 48.6966 23.2574 48.9787 25.4516C49.0884 26.3763 49.1197 27.4108 49.2451 28.3668L55.8435 28.3668C55.8749 27.5675 55.6084 25.3576 55.4517 24.5583C55.2323 23.4455 54.9501 22.3327 54.5897 21.2512C54.1665 20.0757 52.6775 16.4396 51.8625 15.6872C51.6745 15.7029 49.684 16.5963 49.4018 16.7373L46.9882 17.8031L46.9882 17.8031Z" id="Hình-dạng" fill="#FFCB05" fill-rule="evenodd" stroke="none" />
      <path d="M53.0694 40.8897C53.1791 40.686 53.2888 40.4665 53.3672 40.2471C53.4612 40.0434 53.5552 39.8553 53.665 39.6515C53.8687 39.2284 54.0411 38.8052 54.1978 38.3663C54.8248 36.5639 55.5614 34.4794 55.6868 32.5046C55.7495 31.5485 56.0159 30.1536 55.8749 29.1035C55.0442 29.0251 51.3767 29.0878 49.9974 29.0878L49.2765 29.1348C49.2138 29.0094 49.1197 31.7836 49.0884 32.0657C48.9473 33.8211 48.6182 35.5452 48.1323 37.2379C48.0226 37.5827 47.4114 39.4164 47.4114 39.6202C47.9442 39.7926 49.5116 40.1217 50.2012 40.3098C50.6714 40.4038 52.6932 40.9367 53.0694 40.8897L53.0694 40.8897Z" id="Hình-dạng" fill="#FFCB05" fill-rule="evenodd" stroke="none" />
      <path d="M7.85226 40.8897C8.21274 40.9054 8.88669 40.6703 9.27852 40.5919C9.76439 40.4822 10.1876 40.3725 10.6421 40.2628C11.5825 40.0277 12.5072 39.8083 13.4162 39.6045C13.4162 39.3851 13.3535 39.1657 13.2595 38.9776L12.6953 37.2222C12.2251 35.5295 11.9116 33.8054 11.7392 32.05L11.5825 29.0878L4.99974 29.0878C4.82734 30.7178 5.36023 34.0405 5.7834 35.6392C6.04985 36.658 7.28803 40.2785 7.85226 40.8897L7.85226 40.8897Z" id="Hình-dạng" fill="#FFCB05" fill-rule="evenodd" stroke="none" />
      <path d="M5.01542 28.3825L11.5981 28.3825C11.6922 27.113 11.6608 26.8779 11.8176 25.5143C11.99 24.2135 12.2407 22.9283 12.5856 21.6744C12.9147 20.4049 12.9304 20.5303 13.3379 19.3078C13.4476 18.9786 13.7297 18.4614 13.7297 18.1166C12.8677 17.8345 11.99 17.5367 11.128 17.2389C10.6264 17.0665 8.824 16.4082 8.47919 16.4082C8.24409 16.8157 8.02467 17.1605 7.78957 17.6307C7.69553 17.8188 7.58582 18.0539 7.46043 18.2733C7.05293 19.0256 6.33196 20.9064 6.08119 21.7214C5.59532 23.4925 4.93705 26.2353 5.01542 28.3825L5.01542 28.3825Z" id="Hình-dạng" fill="#FFCB05" fill-rule="evenodd" stroke="none" />
      <path d="M31.3307 31.094L33.1801 31.094L33.1801 37.0968L31.3463 37.1125L31.3307 31.094L31.3307 31.094L31.3307 31.094ZM26.7384 24.3075L27.8826 24.3075L31.0329 24.3232L31.0329 29.6051L27.8826 29.6051L26.8638 29.6051L24.2777 29.6207C26.4406 29.9342 30.0141 31.2508 30.4686 33.7114L30.7664 33.7741L30.7821 38.0686L31.268 38.0843L31.2993 39.3695L33.2271 38.9149L33.2585 38.0999L33.807 38.0843L33.807 30.8903L37.4432 29.6678L32.992 29.6207L32.9764 24.2762L37.3335 24.2605L33.5719 23.1634L33.5406 22.6619C33.039 22.5835 28.8073 22.6462 27.9296 22.6462C26.2212 22.6462 27.0362 22.5051 25.7197 23.2731C25.4219 23.4455 25.1084 23.6022 24.7793 23.7433C24.027 24.0724 23.8702 23.9627 23.9173 24.3075L26.7384 24.3075L26.7384 24.3075Z" id="Hình-dạng" fill="#000002" fill-rule="evenodd" stroke="none" />
      <path d="M8.98073 15.7656C9.95247 16.0321 13.6357 17.4426 14.0902 17.4583C14.3723 17.0822 15.344 14.7155 16.9427 12.772L19.1056 10.3584C18.9018 10.1546 18.6667 9.98221 18.416 9.84115C18.0242 9.59038 16.3314 8.33653 16.1904 8.33653C15.7515 8.47759 14.529 9.52769 14.0902 9.8725C12.758 10.9696 11.5511 12.2078 10.4697 13.5557L9.30986 15.1073C9.20015 15.2797 8.9964 15.5305 8.98073 15.7656L8.98073 15.7656Z" id="Hình-dạng" fill="#FFCB05" fill-rule="evenodd" stroke="none" />
      <path d="M34.7161 34.4167L34.7004 39.1813L34.2772 39.2127L34.2616 39.7926C34.8258 39.8553 36.6125 38.7425 37.0357 38.4604C39.8569 36.5169 41.5182 33.2725 41.4399 29.8401L41.4242 29.511C40.7973 29.511 37.835 30.7805 37.2551 31.141C36.3461 31.6896 35.4214 32.2068 34.9355 33.2099C34.7318 33.6644 34.7004 33.7741 34.7161 34.4167L34.7161 34.4167Z" id="Hình-dạng" fill="#00ABE3" fill-rule="evenodd" stroke="none" />
      <path d="M43.1169 11.8316C44.0103 12.9601 44.214 13.2109 44.9977 14.3707C45.7813 15.5305 46.2515 16.6903 46.5807 17.1762C46.8158 17.2075 47.0979 17.0508 47.2703 16.9568C47.9442 16.5963 51.1886 15.3268 51.455 15.0603C51.2199 14.4647 49.1041 12.1138 48.6966 11.6906C48.195 11.1734 45.9538 9.07317 45.3738 8.86942C45.2014 8.97913 44.4335 10.0136 44.214 10.327C44.0103 10.5778 43.1483 11.6592 43.1169 11.8316L43.1169 11.8316Z" id="Hình-dạng" fill="#FFCB05" fill-rule="evenodd" stroke="none" />
      <path d="M45.3738 49.7921L45.7187 50.3877C45.9381 50.6071 46.1889 50.9519 46.3769 51.1713C46.8315 51.6572 48.2734 53.0521 48.4301 53.4909C48.2264 53.7731 45.0134 55.6382 44.7626 55.9516C45.0604 56.5002 45.75 56.7196 46.2986 56.4218C46.3299 56.4062 46.3613 56.3905 46.3769 56.3748C46.8628 56.077 50.6087 53.726 50.7968 53.538C50.6714 53.1775 49.9974 52.7543 49.6213 50.8422C49.3392 49.4002 49.6213 48.8517 48.7436 47.8173C48.5868 47.6605 48.3988 47.5351 48.2107 47.4254C47.7562 47.0336 46.5493 46.7985 45.8284 47.4098C45.0134 48.0994 45.2014 49.0398 45.3738 49.7921L45.3738 49.7921Z" id="Hình-dạng" fill="#00529F" fill-rule="evenodd" stroke="none" />
      <path d="M12.8207 47.5822C12.6639 47.7546 12.4758 47.927 12.3191 48.0994C12.0997 48.5696 11.9273 48.8047 11.8803 49.4629C11.8176 50.4503 11.6295 51.5475 11.2063 52.4252C11.1123 52.6289 11.0026 52.817 10.8772 53.0051C10.7675 53.1775 10.5637 53.3969 10.5167 53.538L14.9209 56.3591C15.203 56.5159 15.4694 56.6726 15.8769 56.5002C16.1434 56.3748 16.3785 56.1867 16.5352 55.9516C16.3628 55.7322 15.0462 54.9486 14.7014 54.7135C14.4036 54.5097 13.0087 53.6477 12.8834 53.4909C13.0401 53.1305 13.8394 52.3155 14.1685 51.9706L15.4851 50.5444C15.5948 50.372 15.7045 50.1996 15.8456 50.0115C16.018 49.4943 16.1747 49.2278 16.0807 48.5069C16.018 48.068 15.7986 47.6605 15.4538 47.3784C14.5604 46.6574 13.573 47.159 12.8207 47.5822L12.8207 47.5822Z" id="Hình-dạng" fill="#00529F" fill-rule="evenodd" stroke="none" />
      <path d="M28.9327 6.48709L25.563 6.48709C25.8137 6.75354 27.8199 8.14845 28.2587 8.44624C28.2744 8.85374 27.3967 10.9539 27.2713 11.6122C27.5534 11.5025 28.3371 10.8913 28.6506 10.6718C28.917 10.4838 29.779 9.80981 30.0455 9.71577C30.453 9.93519 30.9859 10.374 31.3934 10.6562C31.7695 10.9226 32.4121 11.4555 32.7569 11.6122C32.7099 11.095 31.8009 8.91644 31.7539 8.44624C32.0203 8.28951 34.3869 6.64383 34.4496 6.50277L31.0799 6.48709C30.8918 5.96988 30.7194 5.43699 30.547 4.9041C30.4216 4.51227 30.1709 3.63458 29.9985 3.33679C29.8104 3.69727 29.6066 4.48093 29.4656 4.88843C29.3559 5.24891 29.0894 6.252 28.9327 6.48709L28.9327 6.48709Z" id="Hình-dạng" fill="#FFC90D" fill-rule="evenodd" stroke="none" />
      <path d="M31.0486 45.9678C31.315 45.9678 31.6598 45.8268 31.9733 45.7641C32.6942 45.623 33.8854 45.5917 34.575 45.7641C34.7631 45.8111 35.5154 46.0148 35.6408 46.0148C35.7192 44.8707 35.6565 41.642 35.6565 40.1688C35.2803 40.1531 34.1989 40.8584 32.4905 40.9211C32.1457 40.9367 31.5501 40.874 31.2837 41.0308C30.9232 41.2345 31.0329 41.595 31.0329 42.0809C31.0329 42.9742 30.9859 45.3566 31.0486 45.9678L31.0486 45.9678Z" id="Hình-dạng" fill="#FFFFFF" fill-rule="evenodd" stroke="none" />
      <path d="M25.657 45.9835C25.9548 45.9835 26.4406 45.8268 26.7541 45.7641C27.5534 45.5917 28.3684 45.5917 29.1678 45.7484C29.4499 45.7954 30.0298 45.9835 30.2649 45.9835L30.2649 41.2659C29.591 40.78 29.2305 41.1248 27.8199 40.8897C26.3936 40.6546 26.4406 40.4509 25.657 40.2628L25.657 45.9835L25.657 45.9835Z" id="Hình-dạng" fill="#FFFFFF" fill-rule="evenodd" stroke="none" />
      <path d="M40.8913 27.0033C40.954 26.7995 40.2957 25.3889 40.2017 25.3106C39.9509 25.2322 40.092 25.0912 39.7002 25.0912L35.202 25.1225L35.1706 28.8057L41.2831 28.8057C41.2361 28.4609 41.1734 28.2101 41.1264 27.8967C41.0637 27.5675 40.9227 27.2854 40.8913 27.0033L40.8913 27.0033Z" id="Hình-dạng" fill="#00ABE3" fill-rule="evenodd" stroke="none" />
      <path d="M23.9329 42.5511C23.9173 43.2564 23.8702 47.6292 23.98 47.7389L25.3905 47.4724C25.9078 47.3471 26.3309 47.2687 26.8952 47.1747C27.6788 47.0493 28.917 46.9082 29.6223 47.3784C29.8261 47.5195 29.7007 47.3941 29.8261 47.6135L31.3307 47.6292C31.9576 46.8612 33.4936 47.0649 34.3243 47.1903C34.8571 47.253 35.3744 47.3627 35.8759 47.5038C36.1737 47.5978 37.0984 47.8799 37.3649 47.8799L37.3649 42.6451C37.0671 42.4884 36.7379 42.3943 36.3931 42.3316C36.3931 43.6795 36.4245 45.4506 36.3931 46.7672C35.6565 46.7828 33.8541 45.9208 31.6441 46.5007C31.1426 46.6418 30.8291 46.9709 30.5627 47.0179C30.4373 46.9552 30.2336 46.7671 30.0925 46.6888C29.8887 46.5947 29.685 46.5164 29.4656 46.4537C27.8042 45.9678 25.2338 46.7671 24.9047 46.7045L24.889 42.2846C24.5755 42.3316 24.2464 42.41 23.9329 42.5511L23.9329 42.5511Z" id="Hình-dạng" fill="#FFFEF6" fill-rule="evenodd" stroke="none" />
      <path d="M27.0676 26.0002C28.196 25.6084 28.9797 27.3794 27.6632 27.8653C26.519 28.3198 25.7197 26.4861 27.0676 26.0002L27.0676 26.0002ZM26.8481 29.5894L27.8669 29.5894C28.008 29.5267 28.149 29.464 28.3058 29.4326C30.6254 28.4139 30.3903 25.6397 28.6819 24.6523C28.4782 24.5269 27.9609 24.3859 27.8669 24.3075L26.7228 24.3075L26.3466 24.4956C24.983 25.0441 24.3404 26.5958 24.889 27.9593C24.889 27.975 24.9047 27.9907 24.9047 28.0064C25.4376 29.2759 26.7071 29.4953 26.8481 29.5894L26.8481 29.5894L26.8481 29.5894Z" id="Hình-dạng" fill="#FFFFFF" fill-rule="evenodd" stroke="none" />
      <path d="M40.5622 9.41798C40.7346 9.38663 42.3646 11.0793 42.6154 11.2674C42.7564 11.1734 44.0103 9.48067 44.1984 9.19855C44.3864 8.96346 44.6685 8.64999 44.7312 8.39922C43.7438 7.7096 42.7094 7.11402 41.628 6.58113C41.1107 6.31469 38.603 5.23324 38.0388 5.20189C37.5686 5.89151 38.1485 7.12969 38.7598 7.74095C39.0732 8.05441 39.324 8.28951 39.6531 8.55595L40.5622 9.41798L40.5622 9.41798Z" id="Hình-dạng" fill="#FFCB05" fill-rule="evenodd" stroke="none" />
      <path d="M39.5904 56.5002C39.7628 56.0613 40.8913 52.3155 40.8913 52.0177C40.5779 51.9393 39.9666 51.6415 39.7002 51.6415C39.5434 52.0804 39.418 52.5192 39.324 52.9737C39.2456 53.4439 39.1359 53.8984 38.9949 54.353L38.7127 51.281C38.2425 51.0616 37.7567 50.8892 37.2708 50.7795C37.0984 51.4064 35.9699 54.9329 35.9699 55.262C36.3461 55.4344 36.7536 55.5755 37.1768 55.6695C37.4746 54.7918 37.7253 53.8828 37.8821 52.9737L38.1642 56.0613C38.4463 56.1397 39.3083 56.4845 39.5904 56.5002L39.5904 56.5002Z" id="Hình-dạng" fill="#FAC90E" fill-rule="evenodd" stroke="none" />
      <path d="M27.6475 53.0207C27.8042 52.9267 27.9923 52.9267 28.2274 52.8953C28.2587 52.6289 28.2274 52.3625 28.149 52.1117L27.5064 52.1587C27.381 51.1399 27.24 51.1399 27.9453 51.1399C28.6192 51.1399 28.6035 51.4848 28.6819 52.0647C28.7289 52.4565 28.8543 53.2558 28.8073 53.6163C28.7446 54.0552 28.2274 54.1805 27.7572 54.1492L27.6475 53.0207L27.6475 53.0207L27.6475 53.0207ZM25.9548 50.56C25.9078 51.1086 26.1742 51.9079 26.0958 52.3938L25.5943 52.4722L25.704 53.2245L26.2369 53.1931L26.4877 55.215C27.0362 55.215 28.87 54.9015 29.3402 54.7291C30.3276 54.3529 30.3119 53.5693 30.1709 52.3938C30.0455 51.3594 29.9828 50.4033 28.9954 50.2466C28.5252 50.1839 26.2369 50.4033 25.9548 50.56L25.9548 50.56Z" id="Hình-dạng" fill="#FFCB11" fill-rule="evenodd" stroke="none" />
      <path d="M23.5254 54.2589C23.5568 54.541 23.7449 54.8702 23.6665 55.1523C23.5568 55.3874 23.3374 55.5441 23.0709 55.5598C22.6321 55.5598 22.3813 54.7605 22.2246 54.353C22.0992 54.0238 21.6917 53.1305 21.8954 52.7857C22.0522 52.5662 22.3343 52.4565 22.6007 52.5035C22.8672 52.5819 22.8985 52.8797 23.0709 53.0521C23.2903 53.0364 24.1524 52.6289 24.3091 52.5035C24.1837 51.9393 23.6978 51.5005 23.1179 51.4534C22.491 51.4221 21.8327 51.7199 21.4252 51.9706C20.1087 52.77 20.3595 53.6633 20.8923 55.0269C21.0804 55.5285 21.3782 56.2024 21.7544 56.4375C22.7574 57.0644 25.9391 55.7949 24.795 53.6947C24.5442 53.7417 23.7919 54.1335 23.5254 54.2589L23.5254 54.2589Z" id="Hình-dạng" fill="#FAC90E" fill-rule="evenodd" stroke="none" />
      <path d="M32.851 50.0899C32.3651 49.9958 31.8792 49.9488 31.3934 49.9488L32.2711 54.7448C32.8196 54.8545 33.3995 54.9172 33.9638 54.9329C34.1205 54.7135 35.7975 50.5757 35.7975 50.419L34.3086 50.2623C34.1205 50.8108 33.9481 51.3908 33.76 51.9236C33.5719 52.4565 33.3995 53.0051 33.2742 53.5536L32.9137 50.2466C32.8666 50.0899 32.8823 50.1682 32.851 50.0899L32.851 50.0899Z" id="Hình-dạng" fill="#FFCB11" fill-rule="evenodd" stroke="none" />
      <path d="M31.3464 37.1125L33.1801 37.0968L33.1801 31.094L31.3307 31.094L31.3464 37.1125Z" id="Đa-giác" fill="#FFCB0B" fill-rule="evenodd" stroke="none" />
      <path d="M27.8669 29.5894L31.0172 29.5894L31.0172 24.3075L27.8669 24.2918C27.9609 24.3702 28.4782 24.5112 28.6819 24.6366C30.3903 25.624 30.6254 28.3982 28.3058 29.417C28.149 29.464 28.008 29.511 27.8669 29.5894L27.8669 29.5894Z" id="Hình-dạng" fill="#FFCB11" fill-rule="evenodd" stroke="none" />
      <path d="M20.8767 8.9948L19.2153 6.50277C19.1526 6.64383 19.1213 6.62815 18.9645 6.70652C18.6197 6.87892 17.0054 7.67825 16.8957 7.91335C16.8957 7.91335 19.4661 9.80981 19.6542 9.80981C20.0773 9.68442 20.4692 9.04182 20.8767 8.9948L20.8767 8.9948Z" id="Hình-dạng" fill="#FFCB05" fill-rule="evenodd" stroke="none" />
      <path d="M10.6578 50.5601C10.3756 50.2623 10.0779 49.9645 9.76439 49.698C9.43525 49.3846 9.16881 49.1025 8.87102 48.8674C8.54188 49.4629 8.15005 51.4691 8.65159 52.0647C9.34121 52.911 10.5324 51.0616 10.6578 50.5601L10.6578 50.5601Z" id="Hình-dạng" fill="#00529F" fill-rule="evenodd" stroke="none" />
      <path d="M52.4738 48.8987C52.27 48.9614 51.267 49.9802 51.0162 50.2153C50.593 50.6071 50.6244 50.5287 50.9378 51.0773C51.8625 52.6916 52.897 52.5976 52.9283 51.2654C52.944 50.6541 52.6932 49.3062 52.4738 48.8987L52.4738 48.8987Z" id="Hình-dạng" fill="#00529F" fill-rule="evenodd" stroke="none" />
      <path d="M27.0676 26.0002C25.704 26.4704 26.519 28.3042 27.6632 27.8653C28.9797 27.3794 28.196 25.6084 27.0676 26.0002L27.0676 26.0002Z" id="Hình-dạng" fill="#FFCB11" fill-rule="evenodd" stroke="none" />
      <path d="M27.5221 52.1587L28.1647 52.1117C28.2431 52.3625 28.2744 52.6289 28.2431 52.8954C28.008 52.9267 27.8199 52.9267 27.6632 53.0207L27.7885 54.1649C28.2431 54.1962 28.776 54.0708 28.8386 53.632C28.8857 53.2872 28.7603 52.4722 28.7133 52.0804C28.6349 51.5004 28.6506 51.1556 27.9766 51.1556C27.2713 51.14 27.3967 51.1243 27.5221 52.1587L27.5221 52.1587Z" id="Hình-dạng" fill="#0C4E99" fill-rule="evenodd" stroke="none" />
      <path d="M42.443 51.4691C42.6937 51.5945 42.9758 51.8609 43.258 51.955C43.5558 51.7042 45.6246 50.5601 45.7187 50.372L45.3738 49.7764C44.7783 50.0899 43.0385 51.5161 42.443 51.4691L42.443 51.4691Z" id="Hình-dạng" fill="#FFFEF4" fill-rule="evenodd" stroke="none" />
      <path d="M15.5008 50.5287C15.5164 50.7011 15.8926 50.8735 16.0337 50.9676L17.3189 51.7512C17.5226 51.8609 17.7734 52.0804 17.9928 52.1117L18.6668 51.6572C18.4003 51.6102 17.4599 51.0146 17.1935 50.8735L15.8926 50.0272C15.8926 50.0115 15.8769 50.0115 15.8613 50.0115C15.7045 50.1839 15.6105 50.372 15.5008 50.5287L15.5008 50.5287Z" id="Hình-dạng" fill="#FFFEF6" fill-rule="evenodd" stroke="none" />
      <path d="M22.8515 12.0354L21.1745 9.48067C21.1588 9.65307 21.1745 9.55904 21.0177 9.70009C20.861 9.84115 20.4378 10.1233 20.3438 10.28C20.4535 10.4681 21.2842 10.9539 21.5663 11.1734C21.8484 11.3928 22.6791 11.9884 22.8515 12.0354L22.8515 12.0354Z" id="Hình-dạng" fill="#FFCB05" fill-rule="evenodd" stroke="none" />
      <path d="M40.8913 27.0033C40.9227 27.2854 41.048 27.5518 41.1107 27.881C41.1734 28.2101 41.2205 28.4452 41.2675 28.79L35.1549 28.79L35.202 25.1068L39.7002 25.0912C40.092 25.0912 39.9509 25.2322 40.2017 25.3106C40.0606 24.9187 40.139 25.0128 39.1359 24.9971C38.4306 24.9971 35.3587 24.9501 35.0922 25.0285C35.0295 25.5143 35.0766 26.3764 35.0766 26.9092C35.0766 27.2854 34.9669 28.5863 35.1236 28.8057C35.1863 28.8684 35.2333 28.8684 35.4214 28.8684L36.6282 28.8684C37.9448 28.8684 40.2487 28.9311 41.3458 28.8527C41.4242 28.5079 41.2048 27.8026 41.1107 27.4421C41.048 27.2227 41.0794 27.0816 40.8913 27.0033L40.8913 27.0033Z" id="Hình-dạng" fill="#09A3AE" fill-rule="evenodd" stroke="none" />
    </g>
  </g>
</svg>