<?xml version="1.0" encoding="utf-8"?>
<svg width="54px" height="54px" viewBox="0 0 54 54" version="1.1" xmlns:xlink="http://www.w3.org/1999/xlink" xmlns="http://www.w3.org/2000/svg">
  <g id="newspaper-folded">
    <path d="M20.8898 41.0498L8.5519 41.0498C7.87722 41.0498 7.33032 41.5967 7.33032 42.2713C7.33032 42.946 7.87722 43.4929 8.5519 43.4929L20.8898 43.4929C21.5645 43.4929 22.1114 42.946 22.1114 42.2713C22.1114 41.5967 21.5645 41.0498 20.8898 41.0498L20.8898 41.0498ZM39.3378 41.0498L26.9998 41.0498C26.3252 41.0498 25.7783 41.5967 25.7783 42.2713C25.7783 42.946 26.3252 43.4929 26.9998 43.4929L39.3378 43.4929C40.0123 43.4929 40.5593 42.946 40.5593 42.2713C40.5593 41.5967 40.0123 41.0498 39.3378 41.0498L39.3378 41.0498ZM39.3356 10.5068L8.5519 10.5068C7.87722 10.5068 7.33032 11.0537 7.33032 11.7284C7.33032 12.403 7.87722 12.9499 8.5519 12.9499L39.3356 12.9499C40.0102 12.9499 40.5572 12.403 40.5572 11.7284C40.5572 11.0537 40.0102 10.5068 39.3356 10.5068L39.3356 10.5068ZM39.3378 16.6154L26.9998 16.6154C26.3252 16.6154 25.7783 17.1623 25.7783 17.837C25.7783 18.5116 26.3252 19.0585 26.9998 19.0585L39.3378 19.0585C40.0123 19.0585 40.5593 18.5116 40.5593 17.837C40.5593 17.1623 40.0123 16.6154 39.3378 16.6154L39.3378 16.6154ZM39.3378 22.724L26.9998 22.724C26.3252 22.724 25.7783 23.2709 25.7783 23.9456C25.7783 24.6202 26.3252 25.1671 26.9998 25.1671L39.3378 25.1671C40.0123 25.1671 40.5593 24.6202 40.5593 23.9456C40.5593 23.2709 40.0123 22.724 39.3378 22.724L39.3378 22.724ZM39.3378 28.8326L26.9998 28.8326C26.3252 28.8326 25.7783 29.3795 25.7783 30.0541C25.7783 30.7288 26.3252 31.2757 26.9998 31.2757L39.3378 31.2757C40.0123 31.2757 40.5593 30.7288 40.5593 30.0541C40.5593 29.3795 40.0123 28.8326 39.3378 28.8326L39.3378 28.8326ZM39.3378 34.9412L26.9998 34.9412C26.3252 34.9412 25.7783 35.4881 25.7783 36.1627C25.7783 36.8374 26.3252 37.3843 26.9998 37.3843L39.3378 37.3843C40.0123 37.3843 40.5593 36.8374 40.5593 36.1627C40.5593 35.4881 40.0123 34.9412 39.3378 34.9412L39.3378 34.9412ZM20.8898 34.9412L8.5519 34.9412C7.87722 34.9412 7.33032 35.4881 7.33032 36.1627C7.33032 36.8374 7.87722 37.3843 8.5519 37.3843L20.8898 37.3843C21.5645 37.3843 22.1114 36.8374 22.1114 36.1627C22.1114 35.4881 21.5645 34.9412 20.8898 34.9412L20.8898 34.9412ZM20.8898 16.6154L8.5519 16.6154C7.87722 16.6154 7.33032 17.1623 7.33032 17.837L7.33032 30.1749C7.33032 30.8496 7.87722 31.3965 8.5519 31.3965L20.8898 31.3965C21.5645 31.3965 22.1114 30.8496 22.1114 30.1749L22.1114 17.837C22.1114 17.1623 21.5645 16.6154 20.8898 16.6154L20.8898 16.6154ZM19.6682 28.9533L9.77347 28.9533L9.77347 19.0585L19.6682 19.0585L19.6682 28.9533L19.6682 28.9533ZM51.5505 9.28435L47.8858 9.28435L47.8858 5.61962C47.8858 4.27247 46.7898 3.17647 45.4426 3.17647L2.44315 3.17647C1.096 3.17647 0 4.27247 0 5.61962L0 44.7101C0 48.0779 2.74 50.8179 6.10788 50.8179L47.8858 50.8179C51.2537 50.8179 53.9937 48.0779 53.9937 44.7101L53.9937 11.7275C53.9937 10.3804 52.8977 9.28435 51.5505 9.28435L51.5505 9.28435ZM51.5505 44.7101C51.5505 46.7308 49.9065 48.3748 47.8858 48.3748L6.10787 48.3748C4.08714 48.3748 2.44315 46.7308 2.44315 44.7101L2.44315 5.61963L45.4426 5.61963L45.4426 42.8777C45.4426 44.5616 46.8126 45.9316 48.4966 45.9316C49.1711 45.9316 49.7181 45.3847 49.7181 44.7101C49.7181 44.0354 49.1711 43.4885 48.4966 43.4885C48.1598 43.4885 47.8858 43.2145 47.8858 42.8777L47.8858 11.7275L51.5505 11.7275L51.5505 44.7101L51.5505 44.7101Z" id="Group" fill="#DF0024" fill-rule="evenodd" stroke="none" />
  </g>
</svg>