<?xml version="1.0" encoding="utf-8"?>
<svg width="36px" height="36px" viewBox="0 0 36 36" version="1.1" xmlns:xlink="http://www.w3.org/1999/xlink" xmlns="http://www.w3.org/2000/svg">
  <defs>
    <path d="M36 0L36 0L36 36L0 36L0 0L36 0Z" id="path_1" />
    <clipPath id="clip_1">
      <use xlink:href="#path_1" clip-rule="evenodd" fill-rule="evenodd" />
    </clipPath>
  </defs>
  <g id="Group">
    <g id="picture" clip-path="url(#clip_1)">
      <path d="M36 0L36 0L36 36L0 36L0 0L36 0Z" id="picture" fill="none" stroke="none" />
      <path d="M0.999785 22.0001C0.447501 22.0001 -0.000213623 22.4478 -0.000213623 23.0001L-0.000213623 31.0001C-0.000213623 33.7528 2.24709 36.0001 4.99978 36.0001L12.9998 36.0001C13.5521 36.0001 13.9998 35.5524 13.9998 35.0001C13.9998 34.4478 13.5521 34.0001 12.9998 34.0001L4.99978 34.0001C3.3205 34.0001 1.99979 32.6794 1.99979 31.0001L1.99979 23.0001C1.99979 22.4478 1.55207 22.0001 0.999785 22.0001L0.999785 22.0001ZM34.9998 22.0001C34.4475 22.0001 33.9998 22.4478 33.9998 23.0001L33.9998 31.0001C33.9998 32.6794 32.6791 34.0001 30.9998 34.0001L22.9998 34.0001C22.4475 34.0001 21.9998 34.4478 21.9998 35.0001C21.9998 35.5524 22.4475 36.0001 22.9998 36.0001L30.9998 36.0001C33.7525 36.0001 35.9998 33.7528 35.9998 31.0001L35.9998 23.0001C35.9998 22.4478 35.5521 22.0001 34.9998 22.0001L34.9998 22.0001ZM4.99978 0.00012207C2.24709 0.00012207 -0.000213623 2.24742 -0.000213623 5.00012L-0.000213623 13.0001C-0.000213623 13.5524 0.447501 14.0001 0.999785 14.0001C1.55207 14.0001 1.99979 13.5524 1.99979 13.0001L1.99979 5.00012C1.99979 3.32083 3.32049 2.00012 4.99978 2.00012L12.9998 2.00012C13.5521 2.00012 13.9998 1.55241 13.9998 1.00012C13.9998 0.447837 13.5521 0.00012207 12.9998 0.00012207L4.99978 0.00012207ZM22.9998 0.00012207C22.4475 0.00012207 21.9998 0.447837 21.9998 1.00012C21.9998 1.55241 22.4475 2.00012 22.9998 2.00012L30.9998 2.00012C32.6791 2.00012 33.9998 3.32083 33.9998 5.00012L33.9998 13.0001C33.9998 13.5524 34.4475 14.0001 34.9998 14.0001C35.5521 14.0001 35.9998 13.5524 35.9998 13.0001L35.9998 5.00012C35.9998 2.24742 33.7525 0.00012207 30.9998 0.00012207L22.9998 0.00012207ZM13.6912 16.0001C13.0162 16.0103 12.3443 16.3375 11.9725 16.9767L6.27715 26.7697C5.4676 28.1613 6.52656 30.0001 8.13653 30.0001L27.8787 30.0001C29.4864 30.0001 30.5362 28.1493 29.7107 26.7697L25.1326 19.1212C24.3716 17.8494 22.4532 17.8011 21.6326 19.0353L19.1951 22.7072C19.1369 22.7947 19.0945 22.7926 19.0389 22.7032L15.4373 16.9259C15.0462 16.2984 14.3662 15.9899 13.6912 16.0001L13.6912 16.0001ZM26.9998 6.00013C25.3548 6.00013 23.9998 7.35512 23.9998 9.00013C23.9998 10.6451 25.3548 12.0001 26.9998 12.0001C28.6448 12.0001 29.9998 10.6451 29.9998 9.00013C29.9998 7.35512 28.6448 6.00013 26.9998 6.00013L26.9998 6.00013Z" id="g1773" fill="#FFFFFF" fill-rule="evenodd" stroke="none" />
    </g>
  </g>
</svg>