<?xml version="1.0" encoding="utf-8"?>
<svg width="61px" height="61px" viewBox="0 0 61 61" version="1.1" xmlns:xlink="http://www.w3.org/1999/xlink" xmlns="http://www.w3.org/2000/svg">
  <g id="watching">
    <path d="M53.7804 44.4072L7.20087 44.4072C4.96659 44.4072 3.1488 42.5894 3.1488 40.3551L3.1488 12.134C3.1488 9.89968 4.96659 8.08189 7.20087 8.08189L53.781 8.08189C56.0153 8.08189 57.8331 9.89968 57.8331 12.134L57.8331 40.3557C57.8331 42.59 56.0153 44.4078 53.781 44.4078L53.7804 44.4072ZM7.20085 10.5211C6.31178 10.5211 5.58795 11.2449 5.58795 12.134L5.58795 40.3557C5.58795 41.2448 6.31178 41.9686 7.20085 41.9686L53.781 41.9686C54.6701 41.9686 55.3939 41.2448 55.3939 40.3557L55.3939 12.134C55.3939 11.2449 54.6701 10.5211 53.781 10.5211L7.20085 10.5211ZM46.6059 52.9158L14.3809 52.9158C12.5509 52.9158 11.0618 51.4267 11.0618 49.5967C11.0618 47.7668 12.5509 46.2776 14.3809 46.2776L46.6065 46.2776C48.4365 46.2776 49.9256 47.7668 49.9256 49.5967C49.9256 51.4267 48.4365 52.9158 46.6065 52.9158L46.6059 52.9158ZM14.3802 48.7168C13.8948 48.7168 13.5003 49.1113 13.5003 49.5967C13.5003 50.0821 13.8948 50.4767 14.3802 50.4767L46.6059 50.4767C47.0913 50.4767 47.4858 50.0821 47.4858 49.5967C47.4858 49.1113 47.0913 48.7168 46.6059 48.7168L14.3808 48.7168L14.3802 48.7168ZM26.7205 36.5167C26.1143 36.5167 25.5088 36.3576 24.9563 36.0387C23.8514 35.4008 23.1916 34.2587 23.1916 32.983L23.1916 19.5121C23.1916 18.2364 23.8514 17.0943 24.9563 16.4564C26.0607 15.8186 27.3796 15.8192 28.4846 16.4564L40.1505 23.1916C41.2555 23.8288 41.9146 24.9716 41.9146 26.2472C41.9146 27.5229 41.2548 28.6651 40.1505 29.3029L28.4846 36.0381C27.9321 36.357 27.3266 36.5167 26.7205 36.5167L26.7205 36.5167ZM26.7259 18.4187C26.4747 18.4187 26.2753 18.5108 26.1759 18.5687C26.0119 18.6633 25.6313 18.9444 25.6313 19.5121L25.6313 32.983C25.6313 33.5507 26.0125 33.8318 26.1759 33.9264C26.3393 34.0209 26.7735 34.2093 27.265 33.9264L38.9309 27.1912C39.4224 26.9076 39.4755 26.4369 39.4755 26.2478C39.4755 26.0588 39.4224 25.5881 38.9309 25.3045L27.265 18.5693C27.0723 18.4578 26.8881 18.4193 26.7259 18.4193L26.7259 18.4187Z" id="_01" fill="#DF0024" fill-rule="evenodd" stroke="none" />
  </g>
</svg>