<?xml version="1.0" encoding="utf-8"?>
<svg width="63.99878px" height="45.01184px" viewBox="0 0 63.99878 45.01184" version="1.1" xmlns:xlink="http://www.w3.org/1999/xlink" xmlns="http://www.w3.org/2000/svg">
  <g id="Layer_x0020_1">
    <g id="_391667024">
      <path d="M60.2554 3.01301C58.9626 1.83945 57.3258 1.06991 55.5356 0.872155C51.6442 0.436635 47.7176 0.217374 43.7778 0.107369C39.8637 -0.00188583 35.9326 -0.00188583 32.0103 0.000614287C28.0884 -0.00188583 24.1578 -0.00188583 20.2427 0.107369C16.3026 0.217374 12.375 0.436635 8.4817 0.872155C6.69291 1.06991 5.05687 1.8397 3.76534 3.01376C2.48231 4.18006 1.53954 5.74663 1.12703 7.54722C0.570263 9.96083 0.288757 12.4789 0.146503 15.0131C0.00350008 17.5574 0 20.0698 0 22.5089C0 24.9445 0 27.4539 0.139253 29.9998C0.278257 32.5326 0.556513 35.0508 1.11353 37.4649C1.52829 39.2662 2.47181 40.8333 3.75459 41.9993C5.04537 43.1726 6.67991 43.9419 8.46795 44.1399C12.362 44.5755 16.2896 44.7947 20.2297 44.9045C24.1446 45.0137 28.0754 45.0137 31.9978 45.0112C35.9218 45.0137 39.8527 45.0137 43.767 44.9045C47.7064 44.7947 51.633 44.5755 55.5263 44.1399C57.3143 43.9419 58.9486 43.1726 60.2397 41.9998C61.5232 40.8338 62.468 39.2667 62.8855 37.4649C63.4402 35.0508 63.7182 32.5326 63.8578 29.9998C63.9953 27.5024 63.9963 24.9685 63.9963 22.5089L63.9988 22.5089L63.9988 22.3854L63.9963 22.3854C63.9963 17.4979 63.9963 12.3219 62.899 7.54722C62.4842 5.74563 61.5399 4.17906 60.2554 3.01301L60.2554 3.01301Z" id="Hình-dạng" fill="#E42B26" fill-rule="evenodd" stroke="none" />
      <path d="M44.1425 21.3041C40.4962 19.4 36.8748 17.5102 33.2575 15.6228C30.2504 14.0535 27.2464 12.4859 24.2333 10.9129L23.2388 10.3933L23.2388 11.5139L23.2388 32.2264L23.2388 33.3442L24.2308 32.8304C27.5584 31.1066 30.8719 29.3892 34.185 27.6711L44.1398 22.5089L45.2985 21.9079L44.1425 21.3041Z" id="Hình-dạng" fill="#FFFFFE" fill-rule="evenodd" stroke="none" />
    </g>
  </g>
</svg>