<?xml version="1.0" encoding="utf-8"?>
<svg width="44px" height="44px" viewBox="0 0 44 44" version="1.1" xmlns:xlink="http://www.w3.org/1999/xlink" xmlns="http://www.w3.org/2000/svg">
  <g id="account">
    <g id="Group" transform="translate(0.2578125 0.2578125)">
      <path d="M38.5859 30.25C37.4945 30.25 36.6094 29.3648 36.6094 28.2734C36.6094 27.182 37.4945 26.2969 38.5859 26.2969L42.0234 26.2969C42.8312 26.2969 43.4844 25.6437 43.4844 24.8359C43.4844 24.0281 42.8312 23.375 42.0234 23.375L40.0469 23.375L40.0469 21.3984C40.0469 20.5906 39.3937 19.9375 38.5859 19.9375C37.7781 19.9375 37.125 20.5906 37.125 21.3984L37.125 23.5984C35.1312 24.2172 33.6875 26.082 33.6875 28.2734C33.6875 30.9719 35.8875 33.1719 38.5859 33.1719C39.6773 33.1719 40.5625 34.057 40.5625 35.1484C40.5625 36.2398 39.6773 37.125 38.5859 37.125L35.1484 37.125C34.3406 37.125 33.6875 37.7781 33.6875 38.5859C33.6875 39.3937 34.3406 40.0469 35.1484 40.0469L37.125 40.0469L37.125 42.0234C37.125 42.8312 37.7781 43.4844 38.5859 43.4844C39.3937 43.4844 40.0469 42.8312 40.0469 42.0234L40.0469 39.8234C42.0406 39.2047 43.4844 37.3398 43.4844 35.1484C43.4844 32.45 41.2844 30.25 38.5859 30.25L38.5859 30.25Z" id="Hình-dạng" fill="#DF0024" fill-rule="evenodd" stroke="none" />
      <path d="M30.5938 34.4953C27.6031 36.6695 24.0625 37.8125 20.3672 37.8125C10.7508 37.8125 2.92188 29.9836 2.92188 20.3672C2.92188 10.7508 10.7508 2.92188 20.3672 2.92188C27.9984 2.92188 34.8648 8.02656 37.0734 15.3312C37.3055 16.1047 38.1219 16.543 38.8953 16.3109C39.6688 16.0789 40.107 15.2625 39.875 14.4891C38.6375 10.3898 36.0594 6.70312 32.6219 4.10781C29.0555 1.41797 24.8273 0 20.3672 0C9.13516 0 0 9.13516 0 20.3672C0 31.5992 9.13516 40.7344 20.3672 40.7344C24.6898 40.7344 28.8148 39.3937 32.3125 36.8586C32.9656 36.3859 33.1117 35.475 32.6391 34.8219C32.1578 34.1602 31.2469 34.0141 30.5938 34.4953L30.5938 34.4953Z" id="Hình-dạng" fill="#757575" fill-rule="evenodd" stroke="none" />
      <path d="M26.9844 13.4922C26.9844 9.83984 24.0195 6.875 20.3672 6.875C16.7148 6.875 13.75 9.83984 13.75 13.4922C13.75 17.1445 16.7148 20.1094 20.3672 20.1094C24.0195 20.1094 26.9844 17.1445 26.9844 13.4922L26.9844 13.4922ZM16.6719 13.4922C16.6719 11.4555 18.3305 9.79688 20.3672 9.79688C22.4039 9.79688 24.0625 11.4555 24.0625 13.4922C24.0625 15.5289 22.4039 17.1875 20.3672 17.1875C18.3305 17.1875 16.6719 15.5289 16.6719 13.4922L16.6719 13.4922Z" id="Hình-dạng" fill="#757575" fill-rule="evenodd" stroke="none" />
      <path d="M10.5187 28.6602C10.3554 29.4508 10.8711 30.2242 11.6617 30.3875C11.7562 30.4047 11.8593 30.4133 11.9539 30.4133C12.6328 30.4133 13.2429 29.932 13.3804 29.2445C14.0508 25.9445 16.9898 23.5469 20.3672 23.5469C23.7445 23.5469 26.6836 25.9445 27.3539 29.2445C27.5172 30.0352 28.2906 30.5422 29.0812 30.3875C29.8718 30.2242 30.3789 29.4508 30.2242 28.6602C29.2703 24.0023 25.1281 20.625 20.3672 20.625C15.6062 20.625 11.464 24.0023 10.5187 28.6602L10.5187 28.6602Z" id="Hình-dạng" fill="#757575" fill-rule="evenodd" stroke="none" />
    </g>
  </g>
</svg>