<?xml version="1.0" encoding="utf-8"?>
<svg width="44px" height="44px" viewBox="0 0 44 44" version="1.1" xmlns:xlink="http://www.w3.org/1999/xlink" xmlns="http://www.w3.org/2000/svg">
  <g id="business-report">
    <g id="Group" transform="translate(4.7179565 1.6671753)">
      <path d="M22.9625 6.11016L22.593 5.96406C21.2352 5.46563 20.8914 5.23359 20.8914 4.83828C20.8914 4.43438 21.3469 4.17656 22.0602 4.17656C22.3094 4.17656 22.55 4.19375 22.7563 4.22813C22.9625 4.2625 23.1516 4.31406 23.3234 4.35703C23.9852 4.5375 24.6727 4.15938 24.8445 3.51484L24.9133 3.27422C24.9992 2.95625 24.9563 2.62109 24.793 2.3375C24.6297 2.05391 24.3633 1.84766 24.0453 1.76172C23.7617 1.68438 23.4781 1.63281 23.1859 1.59844L23.1859 1.58125C23.1859 0.713281 22.4727 0 21.5961 0C20.7195 0 20.0063 0.704687 20.0063 1.58125L20.0063 1.89062C18.5883 2.45781 17.7461 3.61797 17.7461 5.03594C17.7461 6.41953 18.5797 7.48516 20.2125 8.20703C20.4359 8.31016 20.6594 8.40469 20.8914 8.48203C22.1547 8.9375 22.4039 9.23828 22.4039 9.61641C22.4039 10.2953 21.5875 10.3984 21.0977 10.3984C20.8656 10.3984 20.6422 10.3813 20.4016 10.3469C20.0578 10.3039 19.7227 10.2266 19.4391 10.1234C19.1125 10.0203 18.7516 10.0547 18.4508 10.218C18.15 10.3898 17.9437 10.6648 17.8664 10.9914L17.7977 11.2664C17.643 11.8852 18.0039 12.5297 18.6055 12.7188C19.0266 12.8477 19.5078 12.9508 19.9891 13.0109L19.9891 13.0195C19.9891 13.8875 20.7023 14.6008 21.5789 14.6008C22.4555 14.6008 23.1687 13.8961 23.1687 13.0195L23.1687 12.7188C24.6641 12.1602 25.5492 10.9484 25.5492 9.45313C25.5578 7.93203 24.7328 6.86641 22.9625 6.11016L22.9625 6.11016L22.9625 6.11016Z" id="Hình-dạng" fill="#DF0024" fill-rule="evenodd" stroke="none" />
      <path d="M4.16797 34.8734C3.22266 34.8734 2.44922 34.1 2.44922 33.1547L2.44922 23.5812C2.44922 22.6359 3.22266 21.8625 4.16797 21.8625C5.11328 21.8625 5.88672 22.6359 5.88672 23.5812L5.88672 33.1461C5.88672 34.1 5.12187 34.8734 4.16797 34.8734L4.16797 34.8734ZM12.9078 34.8734C11.9625 34.8734 11.189 34.1 11.189 33.1547L11.189 16.0187C11.189 15.0734 11.9625 14.3 12.9078 14.3C13.8531 14.3 14.6265 15.0734 14.6265 16.0187L14.6265 33.1461C14.6265 34.1 13.8617 34.8734 12.9078 34.8734L12.9078 34.8734ZM21.6563 34.8734C20.7109 34.8734 19.9375 34.1 19.9375 33.1547L19.9375 18.7687C19.9375 17.8234 20.7109 17.05 21.6563 17.05C22.6016 17.05 23.375 17.8234 23.375 18.7687L23.375 33.1461C23.375 34.1 22.6016 34.8734 21.6563 34.8734L21.6563 34.8734ZM30.3961 34.8734C29.4507 34.8734 28.6773 34.1 28.6773 33.1547L28.6773 11.8937C28.6773 10.9484 29.4507 10.175 30.3961 10.175C31.3414 10.175 32.1148 10.9484 32.1148 11.8937L32.1148 33.1461C32.1148 34.1 31.3414 34.8734 30.3961 34.8734L30.3961 34.8734Z" id="Group" fill="#757575" fill-rule="evenodd" stroke="none" />
      <path d="M32.8453 40.6656L1.71875 40.6656C0.773437 40.6656 0 39.8922 0 38.9468C0 38.0015 0.773437 37.2281 1.71875 37.2281L32.8539 37.2281C33.7992 37.2281 34.5727 38.0015 34.5727 38.9468C34.5727 39.8922 33.7992 40.6656 32.8453 40.6656L32.8453 40.6656Z" id="Hình-dạng" fill="#757575" fill-rule="evenodd" stroke="none" />
    </g>
  </g>
</svg>