<?xml version="1.0" encoding="utf-8"?>
<svg width="48px" height="48px" viewBox="0 0 48 48" version="1.1" xmlns:xlink="http://www.w3.org/1999/xlink" xmlns="http://www.w3.org/2000/svg">
  <g id="document-(1)">
    <path d="M41 14.9999L29 2.99995C28.8 2.79995 28.4 2.59995 28 2.59995L14 2.59995C9.79998 2.39995 6.59998 5.79995 6.59998 9.99995L6.59998 37.9999C6.59998 42.1999 9.99998 45.5999 14.2 45.5999L34.2 45.5999C38.4 45.5999 41.8 42.1999 41.8 37.9999L41.8 15.9999C41.6 15.5999 41.4 15.1999 41 14.9999L41 14.9999ZM29.6 7.59998L36.4 14.4L29.6 14.4L29.6 7.59998L29.6 7.59998ZM34 42.3999L14 42.3999C11.6 42.3999 9.59998 40.3999 9.59998 37.9999L9.59998 9.9999C9.59998 7.5999 11.6 5.3999 14 5.3999L26.4 5.3999L26.4 15.9999C26.4 16.7999 27 17.3999 28 17.3999L38.4 17.3999L38.4 37.9999C38.4 40.3999 36.4 42.3999 34 42.3999L34 42.3999Z" id="Hình-dạng" fill="#757575" fill-rule="evenodd" stroke="none" />
    <path d="M14.4 16C14.4 15.2 15 14.4 16 14.4L20 14.4C20.8 14.4 21.6 15 21.6 16C21.6 16.8 21 17.4 20 17.4L16 17.4C15.2 17.4 14.4 16.8 14.4 16L14.4 16Z" id="Hình-dạng" fill="#DF0024" stroke="none" />
    <path d="M33.6 24C33.6 24.8 33 25.6 32 25.6L16 25.6C15.2 25.6 14.4 25 14.4 24C14.4 23 15 22.4 16 22.4L32 22.4C32.8 22.4 33.6 23.2 33.6 24L33.6 24Z" id="Hình-dạng" fill="#DF0024" stroke="none" />
    <path d="M33.6 32C33.6 32.8 33 33.6 32 33.6L16 33.6C15.2 33.6 14.4 33 14.4 32C14.4 31.2 15 30.4 16 30.4L32 30.4C32.8 30.4 33.6 31.2 33.6 32L33.6 32Z" id="Hình-dạng" fill="#DF0024" stroke="none" />
  </g>
</svg>