<?xml version="1.0" encoding="utf-8"?>
<svg width="20px" height="20px" viewBox="0 0 20 20" version="1.1" xmlns:xlink="http://www.w3.org/1999/xlink" xmlns="http://www.w3.org/2000/svg">
  <g id="download-(3)">
    <path d="M13.5202 11.7484L10.3916 14.2514C10.1647 14.4313 9.84403 14.4313 9.6172 14.2514L6.48852 11.7484C6.23822 11.5099 6.22649 11.1149 6.46114 10.8646C6.66842 10.6417 7.00866 10.6026 7.26287 10.7746L9.37864 12.4641L9.37864 3.75074C9.37864 3.40658 9.66022 3.125 10.0044 3.125C10.3485 3.125 10.6301 3.40658 10.6301 3.75074L10.6301 12.4602L12.7459 10.7707C12.9962 10.5322 13.3951 10.5439 13.6297 10.7981C13.8644 11.0523 13.8566 11.4473 13.6024 11.682C13.5789 11.7054 13.5515 11.7289 13.5202 11.7484L13.5202 11.7484L13.5202 11.7484Z" id="a9148db4-8702-4948-b3d7-c33f0782daf4" fill="#DF0024" fill-rule="evenodd" stroke="none" />
    <path d="M17.5 15L17.5 12.5C17.5 12.1563 17.2188 11.875 16.875 11.875C16.5313 11.875 16.25 12.1563 16.25 12.5L16.25 15C16.25 15.3438 15.9688 15.625 15.625 15.625L4.375 15.625C4.03125 15.625 3.75 15.3438 3.75 15L3.75 12.5C3.75 12.1563 3.46875 11.875 3.125 11.875C2.78125 11.875 2.5 12.1563 2.5 12.5L2.5 15C2.5 16.0352 3.33984 16.875 4.375 16.875L15.625 16.875C16.6602 16.875 17.5 16.0352 17.5 15L17.5 15Z" id="Hình-dạng" fill="#757575" stroke="none" />
  </g>
</svg>