<?xml version="1.0" encoding="utf-8"?>
<svg width="48px" height="48px" viewBox="0 0 48 48" version="1.1" xmlns:xlink="http://www.w3.org/1999/xlink" xmlns="http://www.w3.org/2000/svg">
  <g id="financial-report">
    <g id="Layer_11" transform="translate(3 5.8499756)">
      <path d="M21 25.65C22.65 25.65 24 24.3 24 22.65L24 19.65C24 18 22.65 16.65 21 16.65L15 16.65L15 13.65L22.5 13.65C23.4 13.65 24 13.05 24 12.15C24 11.25 23.4 10.65 22.5 10.65L19.5 10.65L19.5 9.15002C19.5 8.25002 18.9 7.65002 18 7.65002C17.1 7.65002 16.5 8.25002 16.5 9.15002L16.5 10.65L15 10.65C13.35 10.65 12 12 12 13.65L12 16.65C12 18.3 13.35 19.65 15 19.65L21 19.65L21 22.65L13.5 22.65C12.6 22.65 12 23.25 12 24.15C12 25.05 12.6 25.65 13.5 25.65L16.5 25.65L16.5 27.15C16.5 28.05 17.1 28.65 18 28.65C18.9 28.65 19.5 28.05 19.5 27.15L19.5 25.65L21 25.65L21 25.65Z" id="Hình-dạng" fill="#DF0024" fill-rule="evenodd" stroke="none" />
      <path d="M40.5 33.15L39 33.15L39 27.15C39 26.25 38.4 25.65 37.5 25.65C36.6 25.65 36 26.25 36 27.15L36 33.15L33 33.15L33 24.15C33 23.25 32.4 22.65 31.5 22.65C30.6 22.65 30 23.25 30 24.15L30 33.15L27 33.15L27 28.65C27 27.75 26.4 27.15 25.5 27.15C24.6 27.15 24 27.75 24 28.65L24 33.15L22.5 33.15C21.6 33.15 21 33.75 21 34.65C21 35.55 21.6 36.15 22.5 36.15L40.5 36.15C41.4 36.15 42 35.55 42 34.65C42 33.75 41.4 33.15 40.5 33.15L40.5 33.15Z" id="Hình-dạng" fill="#757575" fill-rule="evenodd" stroke="none" />
      <path d="M16.65 33.15C8.4 32.4 2.25 25.05 3.15 16.8C4.05 8.55 11.25 2.4 19.5 3.3C27 4.05 33 10.35 33 18.15C33 18.6 33 19.05 33 19.5C32.85 20.25 33.45 21 34.35 21.15C35.1 21.3 36 20.7 36 19.8C36 19.8 36 19.8 36 19.65C36 19.05 36 18.6 36 18C36 8.1 27.9 0 18 0C8.1 0 0 8.1 0 18C0 27.6 7.05 35.25 16.35 36.15L16.5 36.15C17.4 36.15 18 35.55 18 34.65C18 33.75 17.4 33.15 16.65 33.15L16.65 33.15Z" id="Hình-dạng" fill="#757575" fill-rule="evenodd" stroke="none" />
    </g>
  </g>
</svg>