<?xml version="1.0" encoding="utf-8"?>
<svg width="23.88501px" height="24.608582px" viewBox="0 0 23.88501 24.608582" version="1.1" xmlns:xlink="http://www.w3.org/1999/xlink" xmlns="http://www.w3.org/2000/svg">
  <g id="ic-file">
    <path d="M18.6451 23.9329L5.3549 23.9329C2.63553 23.9329 0.431274 21.7287 0.431274 19.0093L0.431274 5.7191C0.431274 2.99972 2.63553 0.795471 5.3549 0.795471L18.6451 0.795471C21.3645 0.795471 23.5687 2.99972 23.5687 5.7191L23.5687 19.0093C23.5687 21.7287 21.3645 23.9329 18.6451 23.9329L18.6451 23.9329Z" id="Hình-dạng" fill="#FFFFFF" stroke="none" />
    <g id="Group">
      <path d="M23.4609 3.28482C22.6199 1.2938 20.6673 -0.00239264 18.5061 3.2903e-06L5.37886 3.2903e-06C2.4103 -0.00239264 0.00239772 2.40312 1.78823e-06 5.37167C1.78823e-06 5.37407 1.78823e-06 5.37646 1.78823e-06 5.37886L1.78823e-06 19.2297C-0.00239414 22.1983 2.40312 24.6062 5.37167 24.6086C5.37407 24.6086 5.37646 24.6086 5.37886 24.6086L18.5061 24.6086C21.4747 24.611 23.8826 22.2055 23.885 19.2369C23.885 19.2345 23.885 19.2321 23.885 19.2297L23.885 5.37886C23.885 4.66008 23.7412 3.9461 23.4609 3.28482L23.4609 3.28482ZM22.2988 19.2297C22.2988 21.3214 20.5977 23.0225 18.5061 23.0225L5.37881 23.0225C3.28717 23.0225 1.58606 21.3214 1.58606 19.2297L1.58606 5.37887C1.58606 3.28723 3.28717 1.58612 5.37881 1.58612L18.5061 1.58612C20.5977 1.58612 22.2988 3.28723 22.2988 5.37887L22.2988 19.2297L22.2988 19.2297Z" id="Hình-dạng" fill="#848585" fill-rule="evenodd" stroke="none" />
      <path d="M19.8551 7.74601L16.5415 7.74601C16.1486 7.74601 15.8658 7.66694 15.746 7.52319C15.6238 7.37704 15.6334 7.12067 15.6478 7.03202L15.6646 6.96733L15.6646 3.6921C15.6646 3.25364 15.31 2.89905 14.8715 2.89905L14.8715 2.89905L14.8715 2.89905C14.4331 2.89905 14.0785 3.25364 14.0785 3.6921L14.0785 3.6921L14.0785 6.80441C14.0377 7.08952 13.985 7.8682 14.5073 8.5151C14.7206 8.77865 14.9985 8.9847 15.3363 9.12127C15.679 9.26263 16.0839 9.33211 16.5415 9.33211L19.8551 9.33211C20.2935 9.33211 20.6481 8.97751 20.6481 8.53906L20.6481 8.53906L20.6481 8.53906C20.6481 8.10061 20.2935 7.74601 19.8551 7.74601C19.8551 7.74601 19.8551 7.74601 19.8551 7.74601L19.8551 7.74601Z" id="Hình-dạng" fill="#848585" fill-rule="evenodd" stroke="none" />
      <path d="M6.77804 13.9323L12.3222 13.9323C12.7607 13.9323 13.1153 13.5777 13.1153 13.1392L13.1153 13.1392L13.1153 13.1392C13.1153 12.7008 12.7607 12.3462 12.3222 12.3462L6.77804 12.3462C6.33958 12.3462 5.98499 12.7008 5.98499 13.1392L5.98499 13.1392C5.98499 13.5777 6.33958 13.9323 6.77804 13.9323L6.77804 13.9323Z" id="Hình-dạng" fill="#DE1F27" fill-rule="evenodd" stroke="none" />
      <path d="M17.1931 16.8602L6.77804 16.8602C6.33958 16.8602 5.98499 17.2148 5.98499 17.6532L5.98499 17.6532L5.98499 17.6532C5.98499 18.0917 6.33958 18.4463 6.77804 18.4463L17.1955 18.4463C17.634 18.4463 17.9886 18.0917 17.9886 17.6532L17.9886 17.6532C17.9862 17.2148 17.6316 16.8602 17.1931 16.8602L17.1931 16.8602L17.1931 16.8602Z" id="Hình-dạng" fill="#DE1F27" fill-rule="evenodd" stroke="none" />
    </g>
  </g>
</svg>