<?xml version="1.0" encoding="utf-8"?>
<svg width="42px" height="36.802795px" viewBox="0 0 42 36.802795" version="1.1" xmlns:xlink="http://www.w3.org/1999/xlink" xmlns="http://www.w3.org/2000/svg">
  <g id="megaphone">
    <path d="M5.99999 21.2823L5.99999 31.5528C5.99999 34.4523 8.3505 36.8028 11.25 36.8028C12.642 36.8028 13.977 36.2493 14.9625 35.2653C15.9465 34.2798 16.5 32.9448 16.5 31.5528L16.5 23.4933L26.073 25.5093C27.4005 25.7883 28.782 25.4538 29.835 24.6003C30.888 23.7453 31.5 22.4613 31.5 21.1053L31.5 4.50032C31.5 3.14431 30.888 1.86033 29.835 1.00532C28.782 0.151817 27.4005 -0.182693 26.073 0.0963135C20.9625 1.17181 11.6235 3.13831 5.955 4.33232C2.484 5.06282 0 8.12432 0 11.6718L0 13.9338C0 17.4813 2.484 20.5428 5.955 21.2733L5.99999 21.2823ZM9 21.9153L9 31.5528C9 32.7948 10.008 33.8028 11.25 33.8028C11.847 33.8028 12.4185 33.5658 12.8415 33.1443C13.263 32.7213 13.5 32.1498 13.5 31.5528L13.5 22.8618L9 21.9153ZM35.3295 20.8938L39.8295 23.1438C40.569 23.5143 41.472 23.2143 41.841 22.4733C42.2115 21.7338 41.9115 20.8308 41.1705 20.4618L36.6705 18.2118C35.931 17.8413 35.028 18.1413 34.659 18.8823C34.2885 19.6218 34.5885 20.5248 35.3295 20.8938L35.3295 20.8938ZM10.5 19.1643L10.5 6.44135L26.691 3.03185C27.1335 2.93886 27.594 3.04984 27.945 3.33485C28.296 3.61985 28.5 4.04736 28.5 4.50034L28.5 21.1053C28.5 21.5583 28.296 21.9859 27.945 22.2708C27.594 22.5558 27.1335 22.6668 26.691 22.5738L10.5 19.1643ZM7.5 7.07281L7.5 18.5328L6.573 18.3378C4.491 17.8998 3 16.0623 3 13.9338L3 11.6718C3 9.5433 4.491 7.70581 6.573 7.2678L7.5 7.07281ZM36 14.3028L40.5 14.3028C41.328 14.3028 42 13.6308 42 12.8028C42 11.9748 41.328 11.3028 40.5 11.3028L36 11.3028C35.172 11.3028 34.5 11.9748 34.5 12.8028C34.5 13.6308 35.172 14.3028 36 14.3028L36 14.3028ZM36.6705 7.39381L41.1705 5.14381C41.9115 4.7748 42.2115 3.8718 41.841 3.1323C41.472 2.3913 40.569 2.0913 39.8295 2.46179L35.3295 4.71179C34.5885 5.0808 34.2885 5.9838 34.659 6.7233C35.028 7.4643 35.931 7.7643 36.6705 7.39381L36.6705 7.39381Z" id="Group" fill="#000000" fill-rule="evenodd" stroke="none" />
  </g>
</svg>