<?xml version="1.0" encoding="utf-8"?>
<svg width="16.664062px" height="13.328125px" viewBox="0 0 16.664062 13.328125" version="1.1" xmlns:xlink="http://www.w3.org/1999/xlink" xmlns="http://www.w3.org/2000/svg">
  <g id="menu-(2)">
    <g id="Group">
      <path d="M0.832031 1.66406L11.6641 1.66406C12.125 1.66406 12.4961 1.29297 12.4961 0.832031C12.4961 0.371094 12.1211 0 11.6641 0L0.832031 0C0.371094 0 0 0.371094 0 0.832031C0 1.29297 0.371094 1.66406 0.832031 1.66406L0.832031 1.66406Z" id="Hình-dạng" fill="#757575" fill-rule="evenodd" stroke="none" />
      <path d="M15.832 5.83203L0.832031 5.83203C0.371094 5.83203 0 6.20313 0 6.66406C0 7.125 0.375 7.49609 0.832031 7.49609L15.832 7.49609C16.293 7.49609 16.6641 7.125 16.6641 6.66406C16.6641 6.20313 16.293 5.83203 15.832 5.83203L15.832 5.83203Z" id="Hình-dạng" fill="#757575" fill-rule="evenodd" stroke="none" />
      <path d="M8.33203 11.6641L0.832031 11.6641C0.371094 11.6641 0 12.0352 0 12.4961C0 12.957 0.375 13.3281 0.832031 13.3281L8.33203 13.3281C8.79297 13.3281 9.16406 12.957 9.16406 12.4961C9.16406 12.0352 8.79297 11.6641 8.33203 11.6641L8.33203 11.6641Z" id="Hình-dạng" fill="#DF0024" fill-rule="evenodd" stroke="none" />
    </g>
  </g>
</svg>