<?xml version="1.0" encoding="utf-8"?>
<svg width="48px" height="48px" viewBox="0 0 48 48" version="1.1" xmlns:xlink="http://www.w3.org/1999/xlink" xmlns="http://www.w3.org/2000/svg">
  <g id="pie-chart-(1)">
    <path d="M22.0031 45.4968C11.2313 45.4968 2.50313 36.7687 2.50313 25.9968C2.50313 15.225 11.2313 6.49683 22.0031 6.49683C22.8281 6.49683 23.5031 7.17183 23.5031 7.99683L23.5031 24.4968L40.0031 24.4968C40.8281 24.4968 41.5031 25.1718 41.5031 25.9968C41.4844 36.7687 32.7656 45.4875 22.0031 45.4968L22.0031 45.4968ZM20.5031 9.57178C11.4281 10.3968 4.74376 18.4312 5.56876 27.5062C6.39376 36.5811 14.4281 43.2655 23.5031 42.4405C31.4344 41.7186 37.7063 35.4374 38.4375 27.5062L22.0031 27.5062C21.1781 27.5062 20.5031 26.8312 20.5031 26.0062L20.5031 9.57178L20.5031 9.57178Z" id="Hình-dạng" fill="#757575" fill-rule="evenodd" stroke="none" />
    <path d="M43.8844 21.4968L28.0031 21.4968C27.1781 21.4968 26.5031 20.8218 26.5031 19.9968L26.5031 4.1156C26.5031 3.2906 27.1781 2.6156 28.0031 2.6156C28.0594 2.6156 28.1063 2.6156 28.1625 2.62498C37.1906 3.67498 44.3063 10.8 45.3656 19.8281C45.4594 20.6531 44.8594 21.3937 44.0344 21.4875C43.9781 21.4875 43.9219 21.4875 43.8844 21.4968L43.8844 21.4968L43.8844 21.4968ZM29.5031 18.4968L42.1219 18.4968C40.725 12.1968 35.8031 7.27493 29.5031 5.87805L29.5031 18.4968L29.5031 18.4968Z" id="Hình-dạng" fill="#000000" fill-rule="evenodd" stroke="none" />
    <path d="M43.8844 21.4968L28.0031 21.4968C27.1781 21.4968 26.5031 20.8218 26.5031 19.9968L26.5031 4.1156C26.5031 3.2906 27.1781 2.6156 28.0031 2.6156C28.0594 2.6156 28.1063 2.6156 28.1625 2.62498C37.1906 3.67498 44.3063 10.8 45.3656 19.8281C45.4594 20.6531 44.8594 21.3937 44.0344 21.4875C43.9781 21.4875 43.9219 21.4875 43.8844 21.4968L43.8844 21.4968L43.8844 21.4968ZM29.5031 18.4968L42.1219 18.4968C40.725 12.1968 35.8031 7.27493 29.5031 5.87805L29.5031 18.4968L29.5031 18.4968Z" id="Hình-dạng" fill="#DF0024" fill-rule="evenodd" stroke="none" />
  </g>
</svg>