<?xml version="1.0" encoding="utf-8"?>
<svg width="61px" height="61px" viewBox="0 0 61 61" version="1.1" xmlns:xlink="http://www.w3.org/1999/xlink" xmlns="http://www.w3.org/2000/svg">
  <g id="customer">
    <path d="M30.4987 9.52865C32.6036 9.52865 34.3099 7.82232 34.3099 5.71745C34.3099 3.61258 32.6036 1.90625 30.4987 1.90625C28.3938 1.90625 26.6875 3.61258 26.6875 5.71745C26.6875 7.82232 28.3938 9.52865 30.4987 9.52865L30.4987 9.52865ZM30.4987 3.81189C31.5511 3.81189 32.4043 4.66506 32.4043 5.71749C32.4043 6.76992 31.5511 7.62309 30.4987 7.62309C29.4462 7.62309 28.5931 6.76992 28.5931 5.71749C28.5931 4.66506 29.4462 3.81189 30.4987 3.81189L30.4987 3.81189ZM9.52865 30.4987C9.52865 28.3938 7.82232 26.6875 5.71745 26.6875C3.61258 26.6875 1.90625 28.3938 1.90625 30.4987C1.90625 32.6036 3.61258 34.3099 5.71745 34.3099C7.82232 34.3099 9.52865 32.6036 9.52865 30.4987L9.52865 30.4987ZM5.71743 32.4043C4.66499 32.4043 3.81183 31.5512 3.81183 30.4987C3.81183 29.4463 4.66499 28.5931 5.71743 28.5931C6.76986 28.5931 7.62303 29.4463 7.62303 30.4987C7.62303 31.5512 6.76986 32.4043 5.71743 32.4043L5.71743 32.4043ZM30.4987 51.4688C28.3938 51.4688 26.6875 53.1751 26.6875 55.28C26.6875 57.3848 28.3938 59.0912 30.4987 59.0912C32.6036 59.0912 34.3099 57.3848 34.3099 55.28C34.3099 53.1751 32.6036 51.4688 30.4987 51.4688L30.4987 51.4688ZM30.4987 57.1856C29.4462 57.1856 28.5931 56.3324 28.5931 55.28C28.5931 54.2276 29.4462 53.3744 30.4987 53.3744C31.5511 53.3744 32.4043 54.2276 32.4043 55.28C32.4043 56.3324 31.5511 57.1856 30.4987 57.1856L30.4987 57.1856ZM55.28 26.6875C53.1751 26.6875 51.4688 28.3938 51.4688 30.4987C51.4688 32.6036 53.1751 34.3099 55.28 34.3099C57.3848 34.3099 59.0912 32.6036 59.0912 30.4987C59.0912 28.3938 57.3848 26.6875 55.28 26.6875L55.28 26.6875ZM55.2799 32.4043C54.2275 32.4043 53.3743 31.5512 53.3743 30.4987C53.3743 29.4463 54.2275 28.5931 55.2799 28.5931C56.3324 28.5931 57.1855 29.4463 57.1855 30.4987C57.1855 31.5512 56.3324 32.4043 55.2799 32.4043L55.2799 32.4043ZM35.441 6.38403L37.3466 6.38403L37.3466 8.10955L35.441 8.10955L35.441 6.38403ZM41.8003 9.06519L43.7059 9.06519L43.7059 10.7898L41.8003 10.7898L41.8003 9.06519ZM38.6206 7.7251L40.5262 7.7251L40.5262 9.44967L38.6206 9.44967L38.6206 7.7251ZM51.5498 38.6206L53.2744 38.6206L53.2744 40.5262L51.5498 40.5262L51.5498 38.6206ZM52.8899 35.441L54.6145 35.441L54.6145 37.3466L52.8899 37.3466L52.8899 35.441ZM50.2087 41.8003L51.9343 41.8003L51.9343 43.7059L50.2087 43.7059L50.2087 41.8003ZM17.2935 50.2087L19.1991 50.2087L19.1991 51.9343L17.2935 51.9343L17.2935 50.2087ZM20.4731 51.5498L22.3787 51.5498L22.3787 53.2744L20.4731 53.2744L20.4731 51.5498ZM23.6528 52.8899L25.5584 52.8899L25.5584 54.6145L23.6528 54.6145L23.6528 52.8899ZM7.7251 20.4731L9.44967 20.4731L9.44967 22.3787L7.7251 22.3787L7.7251 20.4731ZM6.38403 23.6527L8.10955 23.6527L8.10955 25.5583L6.38403 25.5583L6.38403 23.6527ZM9.06519 17.2935L10.7898 17.2935L10.7898 19.1991L9.06519 19.1991L9.06519 17.2935ZM7.63452 38.7112L9.54012 38.7112L9.54012 40.4357L7.63452 40.4357L7.63452 38.7112ZM8.97461 41.8909L10.8802 41.8909L10.8802 43.6154L8.97461 43.6154L8.97461 41.8909ZM6.29346 35.5305L8.19906 35.5305L8.19906 37.256L6.29346 37.256L6.29346 35.5305ZM38.7112 51.4592L40.4357 51.4592L40.4357 53.3648L38.7112 53.3648L38.7112 51.4592ZM41.8908 50.1182L43.6154 50.1182L43.6154 52.0238L41.8908 52.0238L41.8908 50.1182ZM35.5306 52.8003L37.2561 52.8003L37.2561 54.7059L35.5306 54.7059L35.5306 52.8003ZM50.1182 17.3831L52.0238 17.3831L52.0238 19.1086L50.1182 19.1086L50.1182 17.3831ZM52.7993 23.7433L54.7049 23.7433L54.7049 25.4679L52.7993 25.4679L52.7993 23.7433ZM51.4592 20.5637L53.3648 20.5637L53.3648 22.2883L51.4592 22.2883L51.4592 20.5637ZM23.7433 6.29443L25.4679 6.29443L25.4679 8.20003L23.7433 8.20003L23.7433 6.29443ZM17.3831 8.97461L19.1077 8.97461L19.1077 10.8802L17.3831 10.8802L17.3831 8.97461ZM20.5637 7.63452L22.2882 7.63452L22.2882 9.54012L20.5637 9.54012L20.5637 7.63452ZM12.3893 8.57813C10.2845 8.57813 8.57813 10.2845 8.57813 12.3893C8.57813 14.4942 10.2845 16.2005 12.3893 16.2005C14.4942 16.2005 16.2005 14.4942 16.2005 12.3893C16.2005 10.2845 14.4942 8.57813 12.3893 8.57813L12.3893 8.57813ZM12.3893 14.295C11.3369 14.295 10.4837 13.4418 10.4837 12.3894C10.4837 11.3369 11.3369 10.4838 12.3893 10.4838C13.4417 10.4838 14.2949 11.3369 14.2949 12.3894C14.2949 13.4418 13.4417 14.295 12.3893 14.295L12.3893 14.295ZM12.3893 44.7969C10.2845 44.7969 8.57813 46.5032 8.57813 48.6081C8.57813 50.7129 10.2845 52.4193 12.3893 52.4193C14.4942 52.4193 16.2005 50.7129 16.2005 48.6081C16.2005 46.5032 14.4942 44.7969 12.3893 44.7969L12.3893 44.7969ZM12.3893 50.5137C11.3369 50.5137 10.4837 49.6605 10.4837 48.6081C10.4837 47.5557 11.3369 46.7025 12.3893 46.7025C13.4417 46.7025 14.2949 47.5557 14.2949 48.6081C14.2949 49.6605 13.4417 50.5137 12.3893 50.5137L12.3893 50.5137ZM48.6081 16.2005C50.7129 16.2005 52.4193 14.4942 52.4193 12.3893C52.4193 10.2845 50.7129 8.57813 48.6081 8.57813C46.5032 8.57813 44.7969 10.2845 44.7969 12.3893C44.7969 14.4942 46.5032 16.2005 48.6081 16.2005L48.6081 16.2005ZM48.6081 10.4838C49.6605 10.4838 50.5137 11.3369 50.5137 12.3894C50.5137 13.4418 49.6605 14.295 48.6081 14.295C47.5556 14.295 46.7025 13.4418 46.7025 12.3894C46.7025 11.3369 47.5556 10.4838 48.6081 10.4838L48.6081 10.4838ZM48.6081 44.7969C46.5032 44.7969 44.7969 46.5032 44.7969 48.6081C44.7969 50.7129 46.5032 52.4193 48.6081 52.4193C50.7129 52.4193 52.4193 50.7129 52.4193 48.6081C52.4193 46.5032 50.7129 44.7969 48.6081 44.7969L48.6081 44.7969ZM48.6081 50.5137C47.5556 50.5137 46.7025 49.6605 46.7025 48.6081C46.7025 47.5557 47.5556 46.7025 48.6081 46.7025C49.6605 46.7025 50.5137 47.5557 50.5137 48.6081C50.5137 49.6605 49.6605 50.5137 48.6081 50.5137L48.6081 50.5137ZM31.4531 24.7813L33.3587 24.7813L33.3587 26.6868L31.4531 26.6868L31.4531 24.7813ZM27.6406 24.7813L29.5462 24.7813L29.5462 26.6868L27.6406 26.6868L27.6406 24.7813ZM43.2725 39.1548L34.6973 35.3436C34.5091 35.2585 34.2979 35.2384 34.097 35.2864L33.8017 33.5142C35.8805 32.3307 37.1644 30.1228 37.1651 27.7307L37.1651 23.8242C38.7418 23.8195 40.0187 22.5425 40.0235 20.9658L40.0235 19.0602C40.0194 15.3788 37.036 12.395 33.3542 12.3906L21.9206 12.3906C21.3944 12.3906 20.9678 12.8172 20.9678 13.3434L20.9678 17.1546C20.9754 19.3285 22.0421 21.3623 23.8261 22.6046L23.8261 27.7307C23.8261 30.2056 25.1983 32.4768 27.3893 33.6284L27.1035 35.3529C26.8481 35.2307 26.5518 35.2272 26.2936 35.3434L17.7184 39.1546C17.3748 39.3056 17.1539 39.6464 17.1563 40.0217L17.1563 45.7385C17.1563 46.2647 17.5829 46.6913 18.1091 46.6913L42.8819 46.6913C43.4081 46.6913 43.8347 46.2647 43.8347 45.7385L43.8347 40.0217C43.8371 39.6464 43.6161 39.3056 43.2725 39.1546L43.2725 39.1548ZM22.873 17.1547L22.873 14.2963L33.3538 14.2963C35.9849 14.2963 38.1178 16.4292 38.1178 19.0603L38.1178 20.9659C38.1178 21.4921 37.6913 21.9187 37.165 21.9187L37.146 21.9187C37.1074 21.5221 36.8261 21.1914 36.4409 21.0897L28.8185 19.1841C28.5974 19.1282 28.3635 19.1554 28.1611 19.2604L24.7786 20.9563C23.5808 20.0594 22.8748 18.6511 22.873 17.1547L22.873 17.1547ZM25.7314 27.7307L25.7314 22.6047L28.7042 21.1183L35.2594 22.7571L35.2594 27.7307C35.2594 30.3618 33.1265 32.4947 30.4954 32.4947C27.8644 32.4947 25.7314 30.3618 25.7314 27.7307L25.7314 27.7307ZM32.4106 36.7537L30.4954 38.6783L28.7614 36.9442L29.2092 34.2764C30.1296 34.4563 31.0776 34.4401 31.9913 34.2288L32.4106 36.7537ZM41.9291 44.7859L19.0619 44.7859L19.0619 40.6412L26.4747 37.3445L29.819 40.6983C30.1935 41.0699 30.7975 41.0699 31.172 40.6983L34.5163 37.3445L41.9291 40.6412L41.9291 44.7859Z" id="customer-2" fill="#DF0024" fill-rule="evenodd" stroke="none" />
  </g>
</svg>