<?xml version="1.0" encoding="utf-8"?>
<svg width="61px" height="61px" viewBox="0 0 61 61" version="1.1" xmlns:xlink="http://www.w3.org/1999/xlink" xmlns="http://www.w3.org/2000/svg">
  <g id="special_1">
    <path d="M59.958 31.5L53.958 31.5C53.406 31.5 52.958 31.052 52.958 30.5C52.958 29.948 53.406 29.5 53.958 29.5L59.958 29.5C60.51 29.5 60.958 29.948 60.958 30.5C60.958 31.052 60.51 31.5 59.958 31.5L59.958 31.5ZM51.464 52.006C51.208 52.006 50.953 51.908 50.758 51.713L46.515 47.471C46.124 47.08 46.124 46.448 46.515 46.057C46.906 45.666 47.539 45.666 47.929 46.057L52.172 50.299C52.562 50.69 52.562 51.322 52.172 51.713C51.977 51.908 51.72 52.006 51.464 52.006L51.464 52.006ZM47.929 14.943C47.734 15.139 47.478 15.236 47.222 15.236C46.966 15.236 46.71 15.138 46.515 14.943C46.124 14.552 46.124 13.92 46.515 13.529L50.758 9.28702C51.148 8.89602 51.78 8.89602 52.172 9.28702C52.562 9.67803 52.562 10.31 52.172 10.701L47.929 14.943L47.929 14.943ZM30.958 50.5C19.93 50.5 10.958 41.528 10.958 30.5C10.958 19.471 19.93 10.5 30.958 10.5C41.987 10.5 50.959 19.471 50.959 30.5C50.959 41.528 41.987 50.5 30.958 50.5L30.958 50.5ZM30.958 12.5C21.034 12.5 12.958 20.575 12.958 30.5C12.958 40.425 21.034 48.5 30.958 48.5C40.883 48.5 48.958 40.425 48.958 30.5C48.958 20.575 40.883 12.5 30.958 12.5L30.958 12.5ZM26.714 45.154C26.519 45.38 26.242 45.5 25.958 45.5C25.804 45.5 25.649 45.465 25.505 45.392C25.096 45.184 24.882 44.723 24.985 44.275L27.701 32.5L22.958 32.5C22.566 32.5 22.211 32.271 22.048 31.916C21.885 31.56 21.945 31.142 22.202 30.846L35.202 15.846C35.503 15.498 36.002 15.401 36.411 15.609C36.821 15.817 37.037 16.278 36.932 16.726L34.215 28.5L38.958 28.5C39.351 28.5 39.705 28.729 39.868 29.084C40.031 29.44 39.971 29.858 39.714 30.154L26.714 45.154L26.714 45.154ZM32.958 30.4999C32.653 30.4999 32.365 30.3609 32.176 30.1229C31.986 29.8849 31.916 29.5729 31.983 29.2749L34.079 20.1949L25.148 30.4999L28.958 30.4999C29.263 30.4999 29.551 30.6389 29.74 30.8769C29.93 31.1149 30 31.4269 29.932 31.7249L27.837 40.8049L36.768 30.4999L32.958 30.4999L32.958 30.4999ZM30.958 8.5C30.406 8.5 29.958 8.052 29.958 7.5L29.958 1.5C29.958 0.948 30.406 0.5 30.958 0.5C31.51 0.5 31.959 0.948 31.959 1.5L31.959 7.5C31.959 8.052 31.51 8.5 30.958 8.5L30.958 8.5ZM14.695 15.236C14.439 15.236 14.183 15.138 13.988 14.943L9.74499 10.701C9.35399 10.31 9.35399 9.67803 9.74499 9.28702C10.135 8.89602 10.768 8.89602 11.159 9.28702L15.402 13.529C15.794 13.92 15.794 14.552 15.402 14.943C15.207 15.139 14.95 15.236 14.695 15.236L14.695 15.236ZM7.95799 31.5L1.95899 31.5C1.40599 31.5 0.957993 31.052 0.957993 30.5C0.957993 29.948 1.40599 29.5 1.95899 29.5L7.95799 29.5C8.51099 29.5 8.95799 29.948 8.95799 30.5C8.95799 31.052 8.51099 31.5 7.95799 31.5L7.95799 31.5ZM13.988 46.057C14.379 45.666 15.012 45.666 15.402 46.057C15.794 46.448 15.794 47.08 15.402 47.471L11.159 51.713C10.964 51.908 10.708 52.006 10.452 52.006C10.196 52.006 9.93999 51.908 9.74499 51.713C9.35399 51.322 9.35399 50.69 9.74499 50.299L13.988 46.057L13.988 46.057ZM30.958 52.5C31.51 52.5 31.959 52.948 31.959 53.5L31.959 59.5C31.959 60.052 31.51 60.5 30.958 60.5C30.406 60.5 29.958 60.052 29.958 59.5L29.958 53.5C29.958 52.948 30.406 52.5 30.958 52.5L30.958 52.5Z" id="Hình-dạng" fill="#DF0024" fill-rule="evenodd" stroke="none" />
  </g>
</svg>