<?xml version="1.0" encoding="utf-8"?>
<svg width="61px" height="61px" viewBox="0 0 61 61" version="1.1" xmlns:xlink="http://www.w3.org/1999/xlink" xmlns="http://www.w3.org/2000/svg">
  <g id="electric-factory">
    <path d="M60.9792 54.633C60.9792 54.1396 60.5794 53.7398 60.0859 53.7398L59.3768 53.7398L58.4083 46.3134L58.8101 46.1118C59.1153 45.9586 59.3064 45.645 59.3027 45.3037C59.2989 44.9624 59.101 44.6529 58.7926 44.5066L58.1317 44.1929L57.2966 37.7892L57.9913 37.4594C58.2953 37.3151 58.4924 37.0122 58.5011 36.6757C58.5099 36.3394 58.329 36.0266 58.0328 35.8666L56.971 35.2928L56.154 29.028L57.2254 28.449C57.5059 28.2974 57.6844 28.0079 57.6937 27.6892C57.703 27.3703 57.5417 27.071 57.2704 26.9032L55.7547 25.9664L54.9836 20.0528L55.9853 19.4336C56.2277 19.2838 56.3841 19.0274 56.4062 18.7432C56.4284 18.4592 56.3137 18.1815 56.0974 17.996L54.541 16.6602L53.7478 10.5781L56.3817 10.5781L56.3817 12.4837L56.142 12.4837C55.6486 12.4837 55.2488 12.8835 55.2488 13.3769C55.2488 13.8704 55.6486 14.2702 56.142 14.2702L58.4078 14.2702C58.9012 14.2702 59.3011 13.8704 59.3011 13.3769C59.3011 12.8835 58.9012 12.4837 58.4078 12.4837L58.1681 12.4837L58.1681 9.68471C58.1681 9.19128 57.7682 8.79146 57.2748 8.79146L53.5147 8.79146L53.1812 6.23439C53.1232 5.78955 52.7441 5.45667 52.2954 5.45667L45.4778 5.45667C45.0291 5.45667 44.6501 5.78955 44.592 6.23439L44.2585 8.79146L40.4987 8.79146C40.0053 8.79146 39.6055 9.19128 39.6055 9.68471L39.6055 12.4836L39.3659 12.4836C38.8724 12.4836 38.4726 12.8834 38.4726 13.3768C38.4726 13.8702 38.8724 14.2701 39.3659 14.2701L41.6315 14.2701C42.1249 14.2701 42.5248 13.8702 42.5248 13.3768C42.5248 12.8834 42.1249 12.4836 41.6315 12.4836L41.3919 12.4836L41.3919 10.578L44.0258 10.578L43.2326 16.66L41.6762 17.9959C41.46 18.1815 41.3453 18.4592 41.3673 18.7431C41.3896 19.0273 41.5459 19.2837 41.7882 19.4335L42.79 20.0527L42.5967 21.535L37.8981 21.535C34.4534 21.535 31.6509 24.3376 31.6509 27.7823L31.6509 33.4452L30.6704 33.4452L30.6704 28.2643C30.6704 27.7709 30.2706 27.3711 29.7771 27.3711L25.0465 27.3711L25.0465 22.8849L25.2043 22.8849C25.6976 22.8849 26.0975 22.4851 26.0975 21.9917C26.0975 21.4982 25.6976 21.0984 25.2043 21.0984L25.0465 21.0984L25.0465 17.8431L25.2043 17.8431C25.6976 17.8431 26.0975 17.4432 26.0975 16.9498C26.0975 16.4564 25.6976 16.0566 25.2043 16.0566L25.0465 16.0566L25.0465 12.8012L25.2043 12.8012C25.6976 12.8012 26.0975 12.4014 26.0975 11.908C26.0975 11.4145 25.6976 11.0147 25.2043 11.0147L25.0465 11.0147L25.0465 7.24317L25.2043 7.24317C25.6976 7.24317 26.0975 6.84335 26.0975 6.34992C26.0975 5.85649 25.6976 5.45667 25.2043 5.45667L17.5252 5.45667C17.0319 5.45667 16.632 5.85649 16.632 6.34992C16.632 6.84335 17.0319 7.24317 17.5252 7.24317L17.683 7.24317L17.683 11.0147L17.5252 11.0147C17.0319 11.0147 16.632 11.4145 16.632 11.908C16.632 12.4014 17.0319 12.8012 17.5252 12.8012L17.683 12.8012L17.683 16.0566L17.5252 16.0566C17.0319 16.0566 16.632 16.4564 16.632 16.9498C16.632 17.4432 17.0319 17.8431 17.5252 17.8431L17.683 17.8431L17.683 21.0984L17.5252 21.0984C17.0319 21.0984 16.632 21.4982 16.632 21.9917C16.632 22.4851 17.0319 22.8849 17.5252 22.8849L17.683 22.8849L17.683 27.3711L14.5846 27.3711C14.0913 27.3711 13.6914 27.7709 13.6914 28.2643C13.6914 28.7577 14.0913 29.1576 14.5846 29.1576L28.8838 29.1576L28.8838 53.7398L24.8868 53.7398L24.8868 48.6244C24.8868 46.9531 23.527 45.5933 21.8557 45.5933L16.127 45.5933C14.4556 45.5933 13.0959 46.9531 13.0959 48.6244L13.0959 53.7398L9.09888 53.7398L9.09888 29.1576L11.0116 29.1576C11.5049 29.1576 11.9049 28.7577 11.9049 28.2643C11.9049 27.7709 11.5049 27.3711 11.0116 27.3711L8.20563 27.3711C7.71232 27.3711 7.31238 27.7709 7.31238 28.2643L7.31238 40.7103L2.38676 40.7103C1.89345 40.7103 1.49351 41.1101 1.49351 41.6035L1.49351 48.7733C1.49351 49.2668 1.89345 49.6666 2.38676 49.6666C2.88008 49.6666 3.28001 49.2668 3.28001 48.7733L3.28001 42.4968L7.31274 42.4968L7.31274 53.7398L3.28001 53.7398L3.28001 52.3463C3.28001 51.8529 2.88008 51.4531 2.38676 51.4531C1.89345 51.4531 1.49351 51.8529 1.49351 52.3463L1.49351 53.7398L0.89325 53.7398C0.399938 53.7398 0 54.1396 0 54.633C0 55.1265 0.399938 55.5263 0.89325 55.5263L60.0859 55.5263C60.5793 55.5263 60.9792 55.1265 60.9792 54.633L60.9792 54.633ZM19.4697 7.24316L23.2601 7.24316L23.2601 11.0147L19.4697 11.0147L19.4697 7.24316ZM19.4697 12.8011L23.2601 12.8011L23.2601 16.0565L19.4697 16.0565L19.4697 12.8011ZM19.4697 17.843L23.2601 17.843L23.2601 21.0984L19.4697 21.0984L19.4697 17.843ZM19.4697 27.371L19.4697 22.8849L23.2601 22.8849L23.2601 27.371L19.4697 27.371ZM54.2236 28.0404L48.8869 30.9242L43.5501 28.0404L43.6806 27.0396L48.8869 23.8214L54.0931 27.0396L54.2236 28.0404ZM47.0079 31.9394L42.7409 34.2452L43.3027 29.9373L47.0079 31.9394ZM55.3571 36.7322L48.8868 39.8038L42.4166 36.7322L42.456 36.4299L48.8868 32.9548L55.3177 36.4299L55.3571 36.7322ZM46.804 40.7927L41.5626 43.2811L42.1738 38.5946L46.804 40.7927ZM48.8868 41.7815L56.3736 45.3358L48.8868 49.0934L41.4001 45.3358L48.8868 41.7815ZM46.8956 50.0927L40.2385 53.4339L41.0565 47.162L46.8956 50.0927ZM48.8868 51.0922L54.1619 53.7398L43.6116 53.7398L48.8868 51.0922ZM57.5353 53.4339L50.8782 50.0927L56.7173 47.162L57.5353 53.4339ZM56.2111 43.2809L50.9697 40.7926L55.5999 38.5945L56.2111 43.2809ZM55.0327 34.2452L50.7657 31.9394L54.471 29.9373L55.0327 34.2452ZM53.7952 24.755L50.5858 22.7711L53.3163 21.0833L53.7952 24.755ZM44.9157 17.5698L48.8869 14.1611L52.8582 17.5698L53.0629 19.1398L48.8869 21.7211L44.7109 19.1398L44.9157 17.5698ZM50.2584 12.9839L52.0586 11.4387L52.5123 14.9186L50.2584 12.9839ZM48.8868 11.8068L47.4553 10.578L50.3184 10.578L48.8868 11.8068ZM46.2624 7.24316L51.5113 7.24316L51.7132 8.79146L46.0604 8.79146L46.2624 7.24316ZM45.7152 11.4387L47.5154 12.9839L45.2614 14.9186L45.7152 11.4387ZM47.188 22.7711L43.9786 24.755L44.4574 21.0833L47.188 22.7711ZM14.8826 53.7398L14.8826 48.6245C14.8826 47.9381 15.4409 47.3799 16.1272 47.3799L21.8559 47.3799C22.5421 47.3799 23.1005 47.9382 23.1005 48.6245L23.1005 53.7398L14.8826 53.7398ZM30.6706 53.7398L30.6706 35.2317L34.9788 35.2317L34.9788 38.7689C34.9788 39.2624 35.3786 39.6622 35.872 39.6622C36.3655 39.6622 36.7653 39.2624 36.7653 38.7689L36.7653 34.3384C36.7653 33.845 36.3655 33.4452 35.872 33.4452L33.4376 33.4452L33.4376 27.7824C33.4376 25.3228 35.4388 23.3217 37.8983 23.3217L42.3638 23.3217L42.0189 25.9664L40.5032 26.9032C40.2321 27.0709 40.0707 27.3703 40.08 27.6892C40.0893 28.0079 40.2677 28.2973 40.5483 28.449L41.6197 29.028L40.8027 35.2927L39.7409 35.8666C39.4448 36.0266 39.2638 36.3394 39.2726 36.6757C39.2813 37.0122 39.4785 37.3151 39.7823 37.4594L40.477 37.7892L39.6419 44.1928L38.981 44.5066C38.6727 44.6529 38.4747 44.9624 38.4709 45.3037C38.4672 45.645 38.6584 45.9586 38.9635 46.1118L39.3654 46.3134L38.3968 53.7398L36.7652 53.7398L36.7652 42.3419C36.7652 41.8485 36.3654 41.4487 35.8719 41.4487C35.3785 41.4487 34.9787 41.8485 34.9787 42.3419L34.9787 53.7398L30.6706 53.7398ZM17.1596 38.2673C17.5364 38.5874 18.0999 38.5401 18.4187 38.165L20.9377 35.2C21.1631 34.9346 21.2137 34.5625 21.0676 34.2466C20.9214 33.9307 20.605 33.7283 20.2569 33.7283L19.7285 33.7283L20.9376 32.3052C21.257 31.9292 21.2111 31.3654 20.8351 31.0461C20.4592 30.7268 19.8954 30.7726 19.576 31.1484L17.1166 34.0432C16.8911 34.3087 16.8405 34.6808 16.9866 34.9966C17.1329 35.3126 17.4492 35.5149 17.7974 35.5149L18.3258 35.5149L17.057 37.0082C16.7377 37.3842 16.7836 37.9479 17.1596 38.2673L17.1596 38.2673Z" id="Group" fill="#DF0024" fill-rule="evenodd" stroke="none" />
  </g>
</svg>