<?xml version="1.0" encoding="utf-8"?>
<svg width="54px" height="54.22705px" viewBox="0 0 54 54.22705" version="1.1" xmlns:xlink="http://www.w3.org/1999/xlink" xmlns="http://www.w3.org/2000/svg">
  <g id="consignment" transform="translate(0 0.10546875)">
    <path d="M36.3877 20.6105L41.6943 20.6105C43.4456 20.6105 44.8593 19.1863 44.8593 17.4455C44.8593 15.7048 43.4351 14.2805 41.6943 14.2805L36.3877 14.2805C34.6364 14.2805 33.2227 15.7048 33.2227 17.4455C33.2227 19.1863 34.6364 20.6105 36.3877 20.6105L36.3877 20.6105ZM36.3876 16.074L41.6943 16.074C42.4539 16.074 43.0658 16.6859 43.0658 17.4455C43.0658 18.2051 42.4539 18.817 41.6943 18.817L36.3876 18.817C35.628 18.817 35.0161 18.2051 35.0161 17.4455C35.0161 16.6859 35.628 16.074 36.3876 16.074L36.3876 16.074ZM36.3876 29.396L41.6943 29.396C43.4456 29.396 44.8593 27.9718 44.8593 26.231C44.8593 24.4797 43.435 23.066 41.6943 23.066L36.3876 23.066C34.6364 23.066 33.2227 24.4903 33.2227 26.231C33.2121 27.9718 34.6364 29.396 36.3876 29.396L36.3876 29.396ZM36.3877 24.849L41.6943 24.849C42.4539 24.849 43.0658 25.4609 43.0658 26.2205C43.0658 26.9801 42.4539 27.592 41.6943 27.592L36.3877 27.592C35.6281 27.592 35.0162 26.9801 35.0162 26.2205C35.0056 25.4714 35.6281 24.849 36.3877 24.849L36.3877 24.849ZM41.7015 31.8411L12.3092 31.8411C10.5579 31.8411 9.14417 33.2653 9.14417 35.0061C9.14417 36.7468 10.5684 38.1711 12.3092 38.1711L41.6909 38.1711C43.4317 38.1711 44.8559 36.7468 44.8559 35.0061C44.8665 33.2653 43.4422 31.8411 41.7015 31.8411L41.7015 31.8411ZM41.7015 36.3775L12.3092 36.3775C11.5496 36.3775 10.9377 35.7656 10.9377 35.006C10.9377 34.2464 11.5496 33.6345 12.3092 33.6345L41.6909 33.6345C42.4505 33.6345 43.0624 34.2464 43.0624 35.006C43.073 35.7656 42.4505 36.3775 41.7015 36.3775L41.7015 36.3775ZM41.7015 40.6266L12.3092 40.6266C10.5579 40.6266 9.14417 42.0508 9.14417 43.7916C9.14417 45.5323 10.5684 46.9566 12.3092 46.9566L41.6909 46.9566C43.4317 46.9566 44.8559 45.5323 44.8559 43.7916C44.8665 42.0403 43.4422 40.6266 41.7015 40.6266L41.7015 40.6266ZM41.7015 45.163L12.3092 45.163C11.5496 45.163 10.9377 44.5511 10.9377 43.7915C10.9377 43.0319 11.5496 42.42 12.3092 42.42L41.6909 42.42C42.4505 42.42 43.0624 43.0319 43.0624 43.7915C43.073 44.5511 42.4505 45.163 41.7015 45.163L41.7015 45.163ZM10.0409 20.526C10.5368 20.526 10.9377 20.1251 10.9377 19.6293L10.9377 17.5931C10.9377 16.7491 11.6234 16.0634 12.4674 16.0634L15.2632 16.0634L15.2632 18.7114C15.2632 20.3045 16.5608 21.5916 18.1433 21.5916L20.3377 21.5916C21.9308 21.5916 23.2179 20.2939 23.2179 18.7114L23.2179 16.0634L26.0136 16.0634C26.8576 16.0634 27.5434 16.7491 27.5434 17.5931L27.5434 25.7799C27.5434 26.6239 26.8576 27.3097 26.0136 27.3097L12.4674 27.3097C11.6234 27.3097 10.9377 26.6239 10.9377 25.7799L10.9377 23.3218C10.9377 22.8259 10.5368 22.425 10.0409 22.425C9.54506 22.425 9.14417 22.8259 9.14417 23.3218L9.14417 25.7799C9.14417 27.6051 10.6317 29.1032 12.4674 29.1032L26.0031 29.1032C27.8282 29.1032 29.3263 27.6156 29.3263 25.7799L29.3263 17.5931C29.3263 15.768 27.8388 14.2699 26.0031 14.2699L12.4674 14.2699C10.6423 14.2699 9.14417 15.7574 9.14417 17.5931L9.14417 19.6293C9.14417 20.1251 9.54506 20.526 10.0409 20.526L10.0409 20.526ZM21.4244 18.722C21.4244 19.3234 20.9391 19.8087 20.3377 19.8087L18.1433 19.8087C17.542 19.8087 17.0567 19.3234 17.0567 18.722L17.0567 16.074L21.4244 16.074L21.4244 18.722L21.4244 18.722ZM42.8742 3.74528L39.3399 3.74528L39.3399 3.12283C39.3399 1.33988 37.8946 -0.105469 36.1116 -0.105469L34.1071 -0.105469C33.6113 -0.105469 33.2104 0.295431 33.2104 0.791281C33.2104 1.28713 33.6113 1.68803 34.1071 1.68803L36.1116 1.68803C36.9029 1.68803 37.5464 2.33158 37.5464 3.12283L37.5464 6.17178C37.5464 6.96303 36.9029 7.60658 36.1116 7.60658L17.9023 7.60658C17.1111 7.60658 16.4675 6.96303 16.4675 6.17178L16.4675 3.12283C16.4675 2.33158 17.1111 1.68803 17.9023 1.68803L30.4146 1.68803C30.9105 1.68803 31.3114 1.28713 31.3114 0.791281C31.3114 0.295431 30.9105 -0.105469 30.4146 -0.105469L17.9023 -0.105469C16.1194 -0.105469 14.674 1.33988 14.674 3.12283L14.674 3.74528L11.1398 3.74528C6.88813 3.74528 3.42773 7.20568 3.42773 11.4573L3.42773 46.4095C3.42773 50.6611 6.88813 54.1215 11.1398 54.1215L42.8742 54.1215C47.1258 54.1215 50.5862 50.6611 50.5862 46.4095L50.5862 11.4573C50.5862 7.20568 47.1258 3.74528 42.8742 3.74528L42.8742 3.74528ZM48.7927 46.4095C48.7927 49.6695 46.1341 52.3281 42.8742 52.3281L11.1398 52.3281C7.87982 52.3281 5.22122 49.6695 5.22122 46.4095L5.22122 11.4574C5.22122 8.19742 7.87982 5.53882 11.1398 5.53882L14.674 5.53882L14.674 6.16127C14.674 7.94422 16.1194 9.38957 17.9023 9.38957L36.1116 9.38957C37.8946 9.38957 39.3399 7.94422 39.3399 6.16127L39.3399 5.53882L42.8742 5.53882C46.1341 5.53882 48.7927 8.19742 48.7927 11.4574L48.7927 46.4095L48.7927 46.4095Z" id="Group" fill="#DF0024" fill-rule="evenodd" stroke="none" />
  </g>
</svg>