<?xml version="1.0" encoding="utf-8"?>
<svg width="62.633102px" height="51.269775px" viewBox="0 0 62.633102 51.269775" version="1.1" xmlns:xlink="http://www.w3.org/1999/xlink" xmlns="http://www.w3.org/2000/svg">
  <g id="Group-2">
    <path d="M61.4613 43.7673L59.6773 43.7673L59.6773 25.1082C59.6773 24.4622 59.1532 23.9381 58.5073 23.9381C57.8613 23.9381 57.3372 24.4622 57.3372 25.1082L57.3372 43.7673L37.272 43.7673C36.2763 43.7673 36.0989 44.6372 36.092 44.6654C35.8909 45.5079 35.1421 46.0959 34.2722 46.0959L28.3568 46.0959C27.4892 46.0959 26.745 45.5094 26.5473 44.6692C26.5412 44.6425 26.3066 43.7673 25.3734 43.7673L5.29408 43.7673L5.29408 14.3972C5.29408 13.3201 6.17009 12.4441 7.24682 12.4441L36.5163 12.4441C37.1623 12.4441 37.6864 11.9208 37.6864 11.2741C37.6864 10.6281 37.1623 10.104 36.5163 10.104L7.24682 10.104C4.87969 10.104 2.95398 12.0297 2.95398 14.3972L2.95398 43.7673L1.17225 43.7673C-0.0926359 43.7673 0.00105931 44.983 0.00182106 44.9975C0.125605 47.3345 1.49942 49.456 3.58776 50.5331C4.52204 51.0153 5.5744 51.2697 6.63057 51.2697L56.0003 51.2697C57.0721 51.2697 58.0959 51.0222 59.0435 50.5331C61.1315 49.4552 62.5057 47.3345 62.6291 44.9975C62.6298 44.9891 62.7609 43.7673 61.4613 43.7673L61.4613 43.7673ZM57.971 48.4536C57.3585 48.7697 56.6951 48.9297 56.0003 48.9297L6.63058 48.9297C5.93586 48.9297 5.27314 48.7697 4.66069 48.4536C3.69098 47.9531 2.96542 47.103 2.5994 46.1074L24.6079 46.1074C25.303 47.5106 26.7282 48.4361 28.3568 48.4361L34.2722 48.4361C35.9008 48.4361 37.3291 47.5098 38.0284 46.1074L60.0315 46.1074C59.6659 47.103 58.9407 47.9531 57.971 48.4536L57.971 48.4536ZM45.8679 6.42993L31.2206 21.086L25.3509 15.2099C25.1315 14.9897 24.8341 14.8663 24.5236 14.8663L24.5233 14.8663C24.2128 14.8663 23.9154 14.9897 23.696 15.2091L10.9931 27.912C10.536 28.3691 10.536 29.1095 10.9931 29.5666C11.2216 29.7951 11.521 29.9093 11.8203 29.9093C12.1197 29.9093 12.4191 29.7951 12.6476 29.5666L24.5229 17.6916L30.3925 23.5678C30.6119 23.7879 30.9094 23.9113 31.2202 23.9113C31.5306 23.9113 31.8288 23.7879 32.0482 23.5685L48.3618 7.245C48.8189 6.78795 48.8189 6.04677 48.3618 5.58972C48.358 5.58591 48.3527 5.58515 48.3481 5.58058C48.3474 5.57982 48.3474 5.57906 48.3466 5.57829L45.0444 2.36295L57.3855 2.34162L57.3855 14.8404L53.8457 11.3036C53.8434 11.3013 53.8434 11.2983 53.8411 11.2968C53.6126 11.0682 53.3132 10.954 53.0131 10.954C52.713 10.9532 52.4121 11.0667 52.1828 11.2968C52.1797 11.2998 52.179 11.3036 52.1759 11.3067L32.5433 30.9316L26.6817 25.0715C26.2246 24.6144 25.4842 24.6144 25.0272 25.0707L10.9931 39.0968C10.536 39.5531 10.536 40.2943 10.9927 40.7513C11.2212 40.9799 11.5206 41.0941 11.8203 41.0941C12.1197 41.0941 12.4191 40.9799 12.6476 40.7513L25.8544 27.5532L31.7161 33.4134C32.1731 33.8705 32.9136 33.8705 33.3706 33.4134L53.0131 13.7793L57.7283 18.4907C57.9523 18.7147 58.2516 18.8335 58.5556 18.8335C58.7064 18.8335 58.8587 18.8046 59.0035 18.7444C59.4407 18.5631 59.7256 18.1365 59.7256 17.6635L59.7256 1.17005C59.7256 0.859254 59.6022 0.561409 59.3821 0.342026C59.1627 0.122642 58.8656 0 58.5556 0C58.5548 0 58.5541 0 58.5533 0L42.1681 0.0281839C41.6927 0.0289469 41.2646 0.31765 41.0864 0.758702C40.9074 1.19899 41.0132 1.7048 41.3545 2.03616L45.8679 6.42993ZM43.7092 27.6237L43.7092 39.916C43.7092 40.562 44.2333 41.0861 44.8792 41.0861C45.5251 41.0861 46.0491 40.562 46.0491 39.916L46.0491 27.6237C46.0491 26.9777 45.5251 26.4536 44.8792 26.4536C44.2333 26.4536 43.7092 26.9777 43.7092 27.6237L43.7092 27.6237ZM49.9294 22.191L49.9294 39.9162C49.9294 40.5622 50.4535 41.0863 51.0994 41.0863C51.7453 41.0863 52.2693 40.5622 52.2693 39.9162L52.2693 22.191C52.2693 21.5451 51.7453 21.021 51.0994 21.021C50.4535 21.021 49.9294 21.5451 49.9294 22.191L49.9294 22.191ZM37.4883 32.2626L37.4883 39.9159C37.4883 40.5618 38.0123 41.0859 38.6582 41.0859C39.3042 41.0859 39.8282 40.5618 39.8282 39.9159L39.8282 32.2626C39.8282 31.6166 39.3042 31.0925 38.6582 31.0925C38.0123 31.0925 37.4883 31.6166 37.4883 32.2626L37.4883 32.2626ZM32.4373 36.1267C31.7914 36.1267 31.2673 36.6507 31.2673 37.2967L31.2673 39.9153C31.2673 40.5613 31.7914 41.0853 32.4373 41.0853C33.0832 41.0853 33.6072 40.5613 33.6072 39.9153L33.6072 37.2967C33.6072 36.6507 33.0832 36.1267 32.4373 36.1267L32.4373 36.1267ZM18.8262 37.2967L18.8262 39.9153C18.8262 40.5613 19.3499 41.0853 19.9962 41.0853C20.6426 41.0853 21.1663 40.5613 21.1663 39.9153L21.1663 37.2967C21.1663 36.6507 20.6426 36.1267 19.9962 36.1267C19.3499 36.1267 18.8262 36.6507 18.8262 37.2967L18.8262 37.2967ZM25.0475 33.7716L25.0475 39.9159C25.0475 40.5618 25.5712 41.0859 26.2176 41.0859C26.8639 41.0859 27.3876 40.5618 27.3876 39.9159L27.3876 33.7716C27.3876 33.1256 26.8639 32.6016 26.2176 32.6016C25.5712 32.6016 25.0475 33.1256 25.0475 33.7716L25.0475 33.7716Z" id="Group" fill="#DF0024" fill-rule="evenodd" stroke="none" />
  </g>
</svg>