<?xml version="1.0" encoding="utf-8"?>
<svg width="52.37622px" height="48.996338px" viewBox="0 0 52.37622 48.996338" version="1.1" xmlns:xlink="http://www.w3.org/1999/xlink" xmlns="http://www.w3.org/2000/svg">
  <g id="connection-(1)">
    <path d="M41.3779 14.8884C40.9923 14.4057 40.5789 13.9366 40.1486 13.4937L38.9378 14.6682C39.3302 15.0732 39.7081 15.5018 40.06 15.9422L41.3779 14.8884Z" id="Hình-dạng" fill="#DF0024" stroke="none" />
    <path d="M41.9171 18.7806L43.4114 17.9968C43.1228 17.4475 42.8056 16.9075 42.4689 16.3937L41.0573 17.3218C41.3644 17.7876 41.6538 18.2795 41.9171 18.7806L41.9171 18.7806Z" id="Hình-dạng" fill="#DF0024" stroke="none" />
    <path d="M38.7901 12.2221C38.3193 11.8222 37.8249 11.44 37.3195 11.0873L36.3534 12.4693C36.8141 12.7925 37.2663 13.1443 37.6966 13.508L38.7901 12.2221Z" id="Hình-dạng" fill="#DF0024" stroke="none" />
    <path d="M43.8526 25.2497L45.5325 25.0809C45.4718 24.4625 45.3807 23.8431 45.2617 23.239L43.6063 23.5655C43.7126 24.1199 43.7961 24.6852 43.8526 25.2497L43.8526 25.2497Z" id="Hình-dạng" fill="#DF0024" stroke="none" />
    <path d="M43.197 21.9219L44.8137 21.4376C44.6373 20.847 44.4289 20.2564 44.196 19.6843L42.6326 20.3205C42.846 20.8453 43.0359 21.382 43.197 21.922L43.197 21.9219Z" id="Hình-dạng" fill="#DF0024" stroke="none" />
    <path d="M43.8628 28.6424L45.5427 28.7968C45.5967 28.2062 45.6271 27.6029 45.6271 26.9406L43.937 27.0047C43.937 27.5514 43.9117 28.1016 43.8628 28.6424L43.8628 28.6424Z" id="Hình-dạng" fill="#DF0024" stroke="none" />
    <path d="M22.0839 45.9688C22.6247 46.086 23.1765 46.1814 23.725 46.2514L23.9384 44.5782C23.4389 44.5133 22.9352 44.4264 22.4425 44.3192L22.0839 45.9688Z" id="Hình-dạng" fill="#DF0024" stroke="none" />
    <path d="M25.4504 44.7065L25.377 46.394C25.6566 46.4053 25.937 46.4109 26.2182 46.4109C26.4941 46.4109 26.7684 46.405 27.0426 46.3932L26.9709 44.7057C26.4655 44.7293 25.9541 44.7285 25.4504 44.7065L25.4504 44.7065Z" id="Hình-dạng" fill="#DF0024" stroke="none" />
    <path d="M18.903 44.985C19.4176 45.1942 19.945 45.3832 20.4706 45.5452L20.9685 43.9328C20.49 43.7852 20.0091 43.613 19.5391 43.4215L18.903 44.985Z" id="Hình-dạng" fill="#DF0024" stroke="none" />
    <path d="M31.4495 43.9378L31.9465 45.5502C32.4747 45.3874 33.002 45.1984 33.515 44.99L32.8839 43.4274C32.4156 43.6172 31.9338 43.7893 31.4495 43.9378L31.4495 43.9378Z" id="Hình-dạng" fill="#DF0024" stroke="none" />
    <path d="M28.4863 44.5791L28.6997 46.2531C29.2473 46.1831 29.7966 46.0844 30.3408 45.9713L29.9839 44.3218C29.4895 44.4289 28.9858 44.5158 28.4863 44.5791L28.4863 44.5791Z" id="Hình-dạng" fill="#DF0024" stroke="none" />
    <path d="M8.57292 28.623C8.52398 28.0889 8.49951 27.5438 8.49951 27.0047L8.49951 26.9203L6.81201 27.0047C6.81201 27.5953 6.83901 28.1901 6.89639 28.7765L8.57292 28.623Z" id="Hình-dạng" fill="#DF0024" stroke="none" />
    <path d="M9.80901 20.3069L8.24639 19.6682C8.01351 20.2386 7.80511 20.8284 7.62708 21.4207L9.2437 21.9058C9.4057 21.365 9.59639 20.8275 9.80901 20.3069L9.80901 20.3069Z" id="Hình-dạng" fill="#DF0024" stroke="none" />
    <path d="M16.0932 12.4635L15.128 11.0797C14.6217 11.4341 14.1248 11.8163 13.6556 12.2154L14.7432 13.5047C15.1752 13.1359 15.6266 12.7866 16.0932 12.4635L16.0932 12.4635Z" id="Hình-dạng" fill="#DF0024" stroke="none" />
    <path d="M8.837 23.552L7.17988 23.2246C7.06007 23.8304 6.96894 24.4497 6.90735 25.064L8.58726 25.2327C8.6421 24.67 8.72647 24.1046 8.837 23.552L8.837 23.552Z" id="Hình-dạng" fill="#DF0024" stroke="none" />
    <path d="M11.386 17.3065L9.97523 16.3784C9.63773 16.8956 9.3188 17.4348 9.03192 17.9815L10.5254 18.7671C10.7878 18.2709 11.0772 17.779 11.386 17.3065L11.386 17.3065Z" id="Hình-dạng" fill="#DF0024" stroke="none" />
    <path d="M13.5063 14.6614L12.2964 13.4852C11.8669 13.9265 11.4527 14.3956 11.0662 14.8774L12.3825 15.9338C12.7368 15.4925 13.1148 15.0647 13.5063 14.6614L13.5063 14.6614Z" id="Hình-dạng" fill="#DF0024" stroke="none" />
    <path d="M43.0932 30.3796C40.4697 30.381 37.9702 31.4969 36.2175 33.4492L30.7137 29.3215C31.4577 27.8877 31.4705 26.1845 30.7481 24.7397C30.0257 23.2949 28.6554 22.2831 27.062 22.018L27.062 18.5241C32.0031 18.073 35.7156 13.8155 35.4899 8.85894C35.2641 3.9024 31.1799 8.04663e-07 26.2182 1.60933e-06C21.2566 2.41399e-06 17.1724 3.9024 16.9466 8.85894C16.7208 13.8155 20.4334 18.073 25.3745 18.5241L25.3745 22.018C23.781 22.2834 22.4108 23.2953 21.6884 24.7402C20.9661 26.1851 20.9788 27.8885 21.7227 29.3224L16.2198 33.4492C12.885 29.7546 7.23395 29.3366 3.39188 32.5004C-0.450188 35.6642 -1.12407 41.2905 1.86217 45.2721C4.84841 49.2537 10.4383 50.1822 14.5513 47.3796C18.6643 44.5771 19.8454 39.0351 17.2323 34.7992L22.7361 30.6724C24.6836 32.5341 27.7512 32.5341 29.6987 30.6724L35.2025 34.7992C32.9935 38.3959 33.4926 43.0307 36.4166 46.0747C39.3407 49.1187 43.9516 49.8037 47.6343 47.7411C51.3169 45.6785 53.1416 41.3889 52.0736 37.3053C51.0055 33.2218 47.3141 30.375 43.0932 30.3796L43.0932 30.3796ZM5.96826 46.4531L5.96826 44.7234C5.96826 42.8594 7.4793 41.3484 9.34326 41.3484C11.2072 41.3484 12.7183 42.8594 12.7183 44.7234L12.7183 46.4531C10.5951 47.5213 8.09147 47.5213 5.96826 46.4531L5.96826 46.4531ZM7.65576 37.9734L7.65576 37.1296C7.65576 36.1977 8.41128 35.4421 9.34326 35.4421C10.2752 35.4421 11.0308 36.1977 11.0308 37.1296L11.0308 37.9734C11.0308 38.9054 10.2752 39.6609 9.34326 39.6609C8.41128 39.6609 7.65576 38.9054 7.65576 37.9734L7.65576 37.9734ZM14.4057 45.3047L14.4057 44.7233C14.4045 42.8781 13.3999 41.1801 11.7837 40.2909C12.3818 39.6673 12.7163 38.8371 12.7178 37.9731L12.7178 37.1293C12.7178 35.2654 11.2067 33.7543 9.34275 33.7543C7.47879 33.7543 5.96775 35.2654 5.96775 37.1293L5.96775 37.9731C5.96918 38.8371 6.30375 39.6673 6.90182 40.2909C5.28573 41.1803 4.28136 42.8784 4.28029 44.7231L4.28029 45.3045C1.93354 43.2055 1.12547 39.876 2.24892 36.9348C3.37237 33.9936 6.1943 32.0507 9.34279 32.0507C12.4913 32.0507 15.3132 33.9936 16.4367 36.9348C17.5601 39.876 16.752 43.2055 14.4053 45.3045L14.4057 45.3047ZM24.5308 7.59839L24.5308 6.75464C24.5308 5.82266 25.2863 5.06714 26.2183 5.06714C27.1502 5.06714 27.9058 5.82266 27.9058 6.75464L27.9058 7.59839C27.9058 8.53037 27.1502 9.28589 26.2183 9.28589C25.2863 9.28589 24.5308 8.53037 24.5308 7.59839L24.5308 7.59839ZM26.2183 10.9734C28.0822 10.9734 29.5933 12.4844 29.5933 14.3484L29.5933 16.0781C27.4701 17.1463 24.9665 17.1463 22.8433 16.0781L22.8433 14.3484C22.8433 12.4844 24.3543 10.9734 26.2183 10.9734L26.2183 10.9734ZM18.6245 9.28584C18.6169 5.79458 20.9911 2.74792 24.3786 1.9021C27.766 1.05628 31.2937 2.62929 32.9283 5.71446C34.5629 8.79964 33.8832 12.6019 31.2809 14.9296L31.2809 14.3482C31.2798 12.5034 30.2754 10.8054 28.6592 9.91595C29.2573 9.29237 29.5919 8.46218 29.5933 7.59817L29.5933 6.75442C29.5933 4.89046 28.0822 3.37942 26.2183 3.37942C24.3543 3.37942 22.8433 4.89046 22.8433 6.75442L22.8433 7.59817C22.8447 8.46212 23.1792 9.29232 23.7773 9.9159C22.1612 10.8053 21.1568 12.5034 21.1557 14.3481L21.1557 14.9295C19.5467 13.4945 18.626 11.4415 18.6245 9.28562L18.6245 9.28584ZM26.2183 30.3796C24.3543 30.3796 22.8433 28.8686 22.8433 27.0046C22.8433 25.1407 24.3543 23.6296 26.2183 23.6296C28.0822 23.6296 29.5933 25.1407 29.5933 27.0046C29.5933 28.8686 28.0822 30.3796 26.2183 30.3796L26.2183 30.3796ZM39.7183 46.4531L39.7183 44.7234C39.7183 42.8594 41.2293 41.3484 43.0933 41.3484C44.9572 41.3484 46.4683 42.8594 46.4683 44.7234L46.4683 46.4531C44.3451 47.5213 41.8415 47.5213 39.7183 46.4531L39.7183 46.4531ZM41.4058 37.9734L41.4058 37.1296C41.4058 36.1977 42.1613 35.4421 43.0933 35.4421C44.0252 35.4421 44.7808 36.1977 44.7808 37.1296L44.7808 37.9734C44.7808 38.9054 44.0252 39.6609 43.0933 39.6609C42.1613 39.6609 41.4058 38.9054 41.4058 37.9734L41.4058 37.9734ZM48.1558 45.3046L48.1558 44.7233C48.1545 42.8781 47.1499 41.1801 45.5337 40.2908C46.1318 39.6672 46.4664 38.8371 46.4678 37.973L46.4678 37.1293C46.4678 35.2653 44.9567 33.7543 43.0928 33.7543C41.2288 33.7543 39.7178 35.2653 39.7178 37.1293L39.7178 37.973C39.7192 38.837 40.0537 39.6672 40.6518 40.2908C39.0357 41.1802 38.0313 42.8783 38.0302 44.723L38.0302 45.3043C35.6835 43.2053 34.8754 39.8759 35.9989 36.9347C37.1223 33.9934 39.9442 32.0505 43.0927 32.0505C46.2412 32.0505 49.0631 33.9934 50.1866 36.9347C51.3101 39.8759 50.502 43.2053 48.1552 45.3043L48.1558 45.3046Z" id="Hình-dạng" fill="#DF0024" fill-rule="evenodd" stroke="none" />
  </g>
</svg>