<?xml version="1.0" encoding="utf-8"?>
<svg width="50px" height="50px" viewBox="0 0 50 50" version="1.1" xmlns:xlink="http://www.w3.org/1999/xlink" xmlns="http://www.w3.org/2000/svg">
  <g id="upload-button">
    <path d="M25 0C38.7534 0 50 11.2466 50 25C50 38.7534 38.7534 50 25 50C11.2466 50 0 38.7534 0 25C0 11.2466 11.2466 0 25 0ZM24.9999 2.67346C37.2765 2.67346 47.3265 12.7234 47.3265 25C47.3265 37.2766 37.2765 47.3266 24.9999 47.3266C12.7233 47.3266 2.67334 37.2766 2.67334 25C2.67334 12.7234 12.7233 2.67346 24.9999 2.67346L24.9999 2.67346Z" id="Shape" fill="#2579EE" fill-rule="evenodd" stroke="none" />
    <g id="_2457388949776" transform="translate(19.018799 13.482666)">
      <path d="M1.34617 20.3556L10.6161 20.3556C12.3807 20.3556 12.3807 23.029 10.6161 23.029L1.34617 23.029C-0.418449 23.029 -0.418449 20.3556 1.34617 20.3556Z" id="Path" fill="#2579EE" fill-rule="evenodd" stroke="none" />
      <path d="M11.5552 5.02689C12.0778 5.54945 12.0778 6.39768 11.5552 6.92025C11.0326 7.44282 10.1844 7.44282 9.66184 6.92025L7.3065 4.5649L7.3065 17.6897C7.3065 18.4243 6.70819 19.0226 5.97357 19.0226C5.23894 19.0226 4.64064 18.4243 4.64064 17.6897L4.64064 4.5649L2.28529 6.92025C1.76272 7.44282 0.914496 7.44282 0.391927 6.92025C-0.130642 6.39768 -0.130642 5.54945 0.391927 5.02689L5.02689 0.391927C5.54945 -0.130642 6.39768 -0.130642 6.92025 0.391927L11.5552 5.02689Z" id="Path" fill="#2579EE" fill-rule="evenodd" stroke="none" />
    </g>
  </g>
</svg>